STARTFONT 2.1
COMMENT
COMMENT Converted from OpenType font "SourceSansPro-Light.otf" by "otf2bdf 3.0".
COMMENT
FONT -FreeType-Source Sans Pro Light-Medium-R-Normal--14-100-100-100-P-61-ISO10646-1
SIZE 10 100 100
FONTBOUNDINGBOX 35 18 -6 -4
STARTPROPERTIES 19
FOUNDRY "FreeType"
FAMILY_NAME "Source Sans Pro Light"
WEIGHT_NAME "Medium"
SLANT "R"
SETWIDTH_NAME "Normal"
ADD_STYLE_NAME ""
PIXEL_SIZE 14
POINT_SIZE 100
RESOLUTION_X 100
RESOLUTION_Y 100
SPACING "P"
AVERAGE_WIDTH 61
CHARSET_REGISTRY "ISO10646"
CHARSET_ENCODING "1"
FONT_ASCENT 13
FONT_DESCENT 3
COPYRIGHT "Copyright 2010, 2012, 2014 Adobe Systems Incorporated (http://www.adobe.com/), with Reserved Font Name Source."
_OTF_FONTFILE "SourceSansPro-Light.otf"
_OTF_PSNAME "SourceSansPro-Light"
ENDPROPERTIES
CHARS 1296
STARTCHAR 0020
ENCODING 32
SWIDTH 216 0
DWIDTH 3 0
BBX 0 0 0 0
BITMAP
ENDCHAR
STARTCHAR 0021
ENCODING 33
SWIDTH 288 0
DWIDTH 4 0
BBX 1 10 1 0
BITMAP
80
80
80
80
80
80
00
00
00
80
ENDCHAR
STARTCHAR 0022
ENCODING 34
SWIDTH 360 0
DWIDTH 5 0
BBX 3 3 1 7
BITMAP
A0
A0
A0
ENDCHAR
STARTCHAR 0023
ENCODING 35
SWIDTH 504 0
DWIDTH 7 0
BBX 4 9 1 0
BITMAP
40
50
50
B0
90
90
F0
90
80
ENDCHAR
STARTCHAR 0024
ENCODING 36
SWIDTH 504 0
DWIDTH 7 0
BBX 5 11 1 -1
BITMAP
20
70
80
80
40
20
18
08
08
F0
20
ENDCHAR
STARTCHAR 0025
ENCODING 37
SWIDTH 792 0
DWIDTH 11 0
BBX 10 10 1 0
BITMAP
E200
A200
A400
A400
AB80
AC80
5440
1440
2480
2380
ENDCHAR
STARTCHAR 0026
ENCODING 38
SWIDTH 576 0
DWIDTH 8 0
BBX 8 10 0 0
BITMAP
38
48
48
30
20
52
92
8A
84
7B
ENDCHAR
STARTCHAR 0027
ENCODING 39
SWIDTH 216 0
DWIDTH 3 0
BBX 1 3 1 7
BITMAP
80
80
80
ENDCHAR
STARTCHAR 0028
ENCODING 40
SWIDTH 288 0
DWIDTH 4 0
BBX 2 12 1 -3
BITMAP
40
40
80
80
80
80
80
80
80
80
40
40
ENDCHAR
STARTCHAR 0029
ENCODING 41
SWIDTH 288 0
DWIDTH 4 0
BBX 3 12 0 -3
BITMAP
80
40
40
40
20
20
20
20
40
40
40
80
ENDCHAR
STARTCHAR 002A
ENCODING 42
SWIDTH 360 0
DWIDTH 5 0
BBX 3 3 1 7
BITMAP
40
E0
60
ENDCHAR
STARTCHAR 002B
ENCODING 43
SWIDTH 504 0
DWIDTH 7 0
BBX 6 6 0 2
BITMAP
10
10
10
FC
10
10
ENDCHAR
STARTCHAR 002C
ENCODING 44
SWIDTH 216 0
DWIDTH 3 0
BBX 1 3 1 -2
BITMAP
80
80
80
ENDCHAR
STARTCHAR 002D
ENCODING 45
SWIDTH 288 0
DWIDTH 4 0
BBX 3 1 1 3
BITMAP
E0
ENDCHAR
STARTCHAR 002E
ENCODING 46
SWIDTH 216 0
DWIDTH 3 0
BBX 1 1 1 0
BITMAP
80
ENDCHAR
STARTCHAR 002F
ENCODING 47
SWIDTH 360 0
DWIDTH 5 0
BBX 5 12 0 -2
BITMAP
08
10
10
10
20
20
20
40
40
40
80
80
ENDCHAR
STARTCHAR 0030
ENCODING 48
SWIDTH 504 0
DWIDTH 7 0
BBX 5 9 1 0
BITMAP
70
90
88
88
88
88
88
90
70
ENDCHAR
STARTCHAR 0031
ENCODING 49
SWIDTH 504 0
DWIDTH 7 0
BBX 5 9 1 0
BITMAP
60
20
20
20
20
20
20
20
F8
ENDCHAR
STARTCHAR 0032
ENCODING 50
SWIDTH 504 0
DWIDTH 7 0
BBX 5 9 1 0
BITMAP
F0
10
08
10
10
20
40
80
F8
ENDCHAR
STARTCHAR 0033
ENCODING 51
SWIDTH 504 0
DWIDTH 7 0
BBX 5 9 1 0
BITMAP
F0
08
08
10
70
08
08
08
F0
ENDCHAR
STARTCHAR 0034
ENCODING 52
SWIDTH 504 0
DWIDTH 7 0
BBX 6 9 0 0
BITMAP
08
18
28
28
48
88
FC
08
08
ENDCHAR
STARTCHAR 0035
ENCODING 53
SWIDTH 504 0
DWIDTH 7 0
BBX 5 9 1 0
BITMAP
F8
80
80
A0
D8
08
08
08
F0
ENDCHAR
STARTCHAR 0036
ENCODING 54
SWIDTH 504 0
DWIDTH 7 0
BBX 5 9 1 0
BITMAP
70
80
80
A0
D8
88
88
88
70
ENDCHAR
STARTCHAR 0037
ENCODING 55
SWIDTH 504 0
DWIDTH 7 0
BBX 5 9 1 0
BITMAP
F8
10
10
20
20
20
40
40
40
ENDCHAR
STARTCHAR 0038
ENCODING 56
SWIDTH 504 0
DWIDTH 7 0
BBX 5 9 1 0
BITMAP
70
88
88
90
70
88
88
88
70
ENDCHAR
STARTCHAR 0039
ENCODING 57
SWIDTH 504 0
DWIDTH 7 0
BBX 5 9 1 0
BITMAP
70
90
88
88
98
68
08
10
E0
ENDCHAR
STARTCHAR 003A
ENCODING 58
SWIDTH 216 0
DWIDTH 3 0
BBX 1 6 1 0
BITMAP
80
00
00
00
00
80
ENDCHAR
STARTCHAR 003B
ENCODING 59
SWIDTH 216 0
DWIDTH 3 0
BBX 1 8 1 -2
BITMAP
80
00
00
00
00
80
80
80
ENDCHAR
STARTCHAR 003C
ENCODING 60
SWIDTH 504 0
DWIDTH 7 0
BBX 6 5 0 3
BITMAP
04
38
C0
60
1C
ENDCHAR
STARTCHAR 003D
ENCODING 61
SWIDTH 504 0
DWIDTH 7 0
BBX 6 3 0 3
BITMAP
FC
00
FC
ENDCHAR
STARTCHAR 003E
ENCODING 62
SWIDTH 504 0
DWIDTH 7 0
BBX 6 5 0 3
BITMAP
C0
30
0C
18
60
ENDCHAR
STARTCHAR 003F
ENCODING 63
SWIDTH 432 0
DWIDTH 6 0
BBX 3 10 2 0
BITMAP
80
60
20
20
40
80
80
00
00
80
ENDCHAR
STARTCHAR 0040
ENCODING 64
SWIDTH 792 0
DWIDTH 11 0
BBX 10 11 1 -2
BITMAP
1E00
6180
8080
8E40
B440
A480
A480
9B00
8000
4000
3E00
ENDCHAR
STARTCHAR 0041
ENCODING 65
SWIDTH 504 0
DWIDTH 7 0
BBX 7 10 0 0
BITMAP
10
30
28
28
48
44
7C
44
82
82
ENDCHAR
STARTCHAR 0042
ENCODING 66
SWIDTH 576 0
DWIDTH 8 0
BBX 6 10 1 0
BITMAP
F8
84
84
84
F8
84
84
84
84
F8
ENDCHAR
STARTCHAR 0043
ENCODING 67
SWIDTH 576 0
DWIDTH 8 0
BBX 6 10 1 0
BITMAP
38
44
80
80
80
80
80
80
40
3C
ENDCHAR
STARTCHAR 0044
ENCODING 68
SWIDTH 576 0
DWIDTH 8 0
BBX 7 10 1 0
BITMAP
F8
84
84
84
82
82
84
84
84
F8
ENDCHAR
STARTCHAR 0045
ENCODING 69
SWIDTH 504 0
DWIDTH 7 0
BBX 5 10 1 0
BITMAP
F8
80
80
80
F8
80
80
80
80
F8
ENDCHAR
STARTCHAR 0046
ENCODING 70
SWIDTH 504 0
DWIDTH 7 0
BBX 5 10 1 0
BITMAP
F8
80
80
80
F8
80
80
80
80
80
ENDCHAR
STARTCHAR 0047
ENCODING 71
SWIDTH 576 0
DWIDTH 8 0
BBX 6 10 1 0
BITMAP
3C
40
80
80
80
8C
84
84
44
3C
ENDCHAR
STARTCHAR 0048
ENCODING 72
SWIDTH 648 0
DWIDTH 9 0
BBX 7 10 1 0
BITMAP
82
82
82
82
FE
82
82
82
82
82
ENDCHAR
STARTCHAR 0049
ENCODING 73
SWIDTH 216 0
DWIDTH 3 0
BBX 1 10 1 0
BITMAP
80
80
80
80
80
80
80
80
80
80
ENDCHAR
STARTCHAR 004A
ENCODING 74
SWIDTH 432 0
DWIDTH 6 0
BBX 4 10 1 0
BITMAP
10
10
10
10
10
10
10
10
10
E0
ENDCHAR
STARTCHAR 004B
ENCODING 75
SWIDTH 576 0
DWIDTH 8 0
BBX 6 10 1 0
BITMAP
84
88
90
A0
B0
D0
88
88
84
84
ENDCHAR
STARTCHAR 004C
ENCODING 76
SWIDTH 432 0
DWIDTH 6 0
BBX 5 10 1 0
BITMAP
80
80
80
80
80
80
80
80
80
F8
ENDCHAR
STARTCHAR 004D
ENCODING 77
SWIDTH 720 0
DWIDTH 10 0
BBX 7 10 1 0
BITMAP
82
C2
C6
C6
A6
AA
AA
9A
82
82
ENDCHAR
STARTCHAR 004E
ENCODING 78
SWIDTH 648 0
DWIDTH 9 0
BBX 6 10 1 0
BITMAP
84
C4
C4
A4
A4
94
8C
8C
84
84
ENDCHAR
STARTCHAR 004F
ENCODING 79
SWIDTH 648 0
DWIDTH 9 0
BBX 7 10 1 0
BITMAP
38
C4
82
82
82
82
82
82
44
38
ENDCHAR
STARTCHAR 0050
ENCODING 80
SWIDTH 576 0
DWIDTH 8 0
BBX 6 10 1 0
BITMAP
F8
84
84
84
88
F0
80
80
80
80
ENDCHAR
STARTCHAR 0051
ENCODING 81
SWIDTH 648 0
DWIDTH 9 0
BBX 7 12 1 -2
BITMAP
38
C4
82
82
82
82
82
82
84
78
10
0E
ENDCHAR
STARTCHAR 0052
ENCODING 82
SWIDTH 576 0
DWIDTH 8 0
BBX 6 10 1 0
BITMAP
F8
84
84
84
88
F0
90
88
88
84
ENDCHAR
STARTCHAR 0053
ENCODING 83
SWIDTH 504 0
DWIDTH 7 0
BBX 6 10 1 0
BITMAP
78
80
80
80
60
18
04
04
08
F8
ENDCHAR
STARTCHAR 0054
ENCODING 84
SWIDTH 504 0
DWIDTH 7 0
BBX 7 10 0 0
BITMAP
FE
10
10
10
10
10
10
10
10
10
ENDCHAR
STARTCHAR 0055
ENCODING 85
SWIDTH 648 0
DWIDTH 9 0
BBX 6 10 1 0
BITMAP
84
84
84
84
84
84
84
84
44
38
ENDCHAR
STARTCHAR 0056
ENCODING 86
SWIDTH 504 0
DWIDTH 7 0
BBX 7 10 0 0
BITMAP
82
84
84
44
48
48
28
30
30
10
ENDCHAR
STARTCHAR 0057
ENCODING 87
SWIDTH 792 0
DWIDTH 11 0
BBX 10 10 0 0
BITMAP
8440
8C40
4C40
4A40
5280
5280
5280
5280
3180
2100
ENDCHAR
STARTCHAR 0058
ENCODING 88
SWIDTH 504 0
DWIDTH 7 0
BBX 6 10 0 0
BITMAP
84
48
48
30
10
10
28
48
44
84
ENDCHAR
STARTCHAR 0059
ENCODING 89
SWIDTH 432 0
DWIDTH 6 0
BBX 6 10 0 0
BITMAP
84
88
48
48
30
10
20
20
20
20
ENDCHAR
STARTCHAR 005A
ENCODING 90
SWIDTH 504 0
DWIDTH 7 0
BBX 6 10 1 0
BITMAP
FC
08
08
10
20
20
40
40
80
FC
ENDCHAR
STARTCHAR 005B
ENCODING 91
SWIDTH 288 0
DWIDTH 4 0
BBX 2 12 1 -2
BITMAP
C0
80
80
80
80
80
80
80
80
80
80
C0
ENDCHAR
STARTCHAR 005C
ENCODING 92
SWIDTH 360 0
DWIDTH 5 0
BBX 5 12 0 -2
BITMAP
80
80
80
40
40
20
20
20
10
10
10
08
ENDCHAR
STARTCHAR 005D
ENCODING 93
SWIDTH 288 0
DWIDTH 4 0
BBX 2 12 1 -2
BITMAP
C0
40
40
40
40
40
40
40
40
40
40
C0
ENDCHAR
STARTCHAR 005E
ENCODING 94
SWIDTH 504 0
DWIDTH 7 0
BBX 4 5 1 5
BITMAP
20
60
50
90
90
ENDCHAR
STARTCHAR 005F
ENCODING 95
SWIDTH 504 0
DWIDTH 7 0
BBX 7 1 0 -2
BITMAP
FE
ENDCHAR
STARTCHAR 0060
ENCODING 96
SWIDTH 504 0
DWIDTH 7 0
BBX 2 2 2 8
BITMAP
80
40
ENDCHAR
STARTCHAR 0061
ENCODING 97
SWIDTH 504 0
DWIDTH 7 0
BBX 5 7 1 0
BITMAP
70
08
08
78
88
88
F8
ENDCHAR
STARTCHAR 0062
ENCODING 98
SWIDTH 576 0
DWIDTH 8 0
BBX 6 10 1 0
BITMAP
80
80
80
B8
C8
84
84
84
88
F0
ENDCHAR
STARTCHAR 0063
ENCODING 99
SWIDTH 432 0
DWIDTH 6 0
BBX 4 7 1 0
BITMAP
70
80
80
80
80
80
70
ENDCHAR
STARTCHAR 0064
ENCODING 100
SWIDTH 576 0
DWIDTH 8 0
BBX 5 10 1 0
BITMAP
08
08
08
78
88
88
88
88
88
78
ENDCHAR
STARTCHAR 0065
ENCODING 101
SWIDTH 504 0
DWIDTH 7 0
BBX 5 7 1 0
BITMAP
70
88
88
F8
80
80
78
ENDCHAR
STARTCHAR 0066
ENCODING 102
SWIDTH 288 0
DWIDTH 4 0
BBX 4 10 0 0
BITMAP
30
40
40
F0
40
40
40
40
40
40
ENDCHAR
STARTCHAR 0067
ENCODING 103
SWIDTH 504 0
DWIDTH 7 0
BBX 6 10 1 -3
BITMAP
78
88
88
90
70
80
F0
8C
88
F8
ENDCHAR
STARTCHAR 0068
ENCODING 104
SWIDTH 504 0
DWIDTH 7 0
BBX 5 10 1 0
BITMAP
80
80
80
B8
C8
88
88
88
88
88
ENDCHAR
STARTCHAR 0069
ENCODING 105
SWIDTH 216 0
DWIDTH 3 0
BBX 1 10 1 0
BITMAP
80
00
00
80
80
80
80
80
80
80
ENDCHAR
STARTCHAR 006A
ENCODING 106
SWIDTH 216 0
DWIDTH 3 0
BBX 2 13 0 -3
BITMAP
40
00
00
40
40
40
40
40
40
40
40
40
C0
ENDCHAR
STARTCHAR 006B
ENCODING 107
SWIDTH 432 0
DWIDTH 6 0
BBX 5 10 1 0
BITMAP
80
80
80
88
90
A0
E0
90
90
88
ENDCHAR
STARTCHAR 006C
ENCODING 108
SWIDTH 216 0
DWIDTH 3 0
BBX 1 10 1 0
BITMAP
80
80
80
80
80
80
80
80
80
80
ENDCHAR
STARTCHAR 006D
ENCODING 109
SWIDTH 792 0
DWIDTH 11 0
BBX 9 7 1 0
BITMAP
B300
CC80
8880
8880
8880
8880
8880
ENDCHAR
STARTCHAR 006E
ENCODING 110
SWIDTH 504 0
DWIDTH 7 0
BBX 5 7 1 0
BITMAP
B8
C8
88
88
88
88
88
ENDCHAR
STARTCHAR 006F
ENCODING 111
SWIDTH 504 0
DWIDTH 7 0
BBX 6 7 1 0
BITMAP
70
88
84
84
84
88
70
ENDCHAR
STARTCHAR 0070
ENCODING 112
SWIDTH 576 0
DWIDTH 8 0
BBX 6 10 1 -3
BITMAP
B8
C8
84
84
84
88
F0
80
80
80
ENDCHAR
STARTCHAR 0071
ENCODING 113
SWIDTH 576 0
DWIDTH 8 0
BBX 5 10 1 -3
BITMAP
78
88
88
88
88
88
78
08
08
08
ENDCHAR
STARTCHAR 0072
ENCODING 114
SWIDTH 288 0
DWIDTH 4 0
BBX 3 7 1 0
BITMAP
A0
C0
80
80
80
80
80
ENDCHAR
STARTCHAR 0073
ENCODING 115
SWIDTH 432 0
DWIDTH 6 0
BBX 5 7 0 0
BITMAP
78
80
40
30
08
08
70
ENDCHAR
STARTCHAR 0074
ENCODING 116
SWIDTH 288 0
DWIDTH 4 0
BBX 4 9 0 0
BITMAP
40
40
F0
40
40
40
40
40
30
ENDCHAR
STARTCHAR 0075
ENCODING 117
SWIDTH 504 0
DWIDTH 7 0
BBX 5 7 1 0
BITMAP
88
88
88
88
88
88
78
ENDCHAR
STARTCHAR 0076
ENCODING 118
SWIDTH 432 0
DWIDTH 6 0
BBX 6 7 0 0
BITMAP
84
88
48
48
50
30
30
ENDCHAR
STARTCHAR 0077
ENCODING 119
SWIDTH 720 0
DWIDTH 10 0
BBX 9 7 0 0
BITMAP
8880
8C80
5500
5500
5500
6300
2200
ENDCHAR
STARTCHAR 0078
ENCODING 120
SWIDTH 432 0
DWIDTH 6 0
BBX 5 7 0 0
BITMAP
88
50
30
20
50
48
88
ENDCHAR
STARTCHAR 0079
ENCODING 121
SWIDTH 432 0
DWIDTH 6 0
BBX 6 10 0 -3
BITMAP
84
88
48
48
50
30
10
20
20
C0
ENDCHAR
STARTCHAR 007A
ENCODING 122
SWIDTH 432 0
DWIDTH 6 0
BBX 5 7 0 0
BITMAP
78
10
10
20
40
40
F8
ENDCHAR
STARTCHAR 007B
ENCODING 123
SWIDTH 288 0
DWIDTH 4 0
BBX 2 12 1 -2
BITMAP
40
80
80
80
80
80
80
80
80
80
80
40
ENDCHAR
STARTCHAR 007C
ENCODING 124
SWIDTH 216 0
DWIDTH 3 0
BBX 1 14 1 -4
BITMAP
80
80
80
80
80
80
80
80
80
80
80
80
80
80
ENDCHAR
STARTCHAR 007D
ENCODING 125
SWIDTH 288 0
DWIDTH 4 0
BBX 2 12 1 -2
BITMAP
80
80
80
80
80
80
40
80
80
80
80
80
ENDCHAR
STARTCHAR 007E
ENCODING 126
SWIDTH 504 0
DWIDTH 7 0
BBX 5 2 1 4
BITMAP
E8
10
ENDCHAR
STARTCHAR 00A0
ENCODING 160
SWIDTH 216 0
DWIDTH 3 0
BBX 0 0 0 0
BITMAP
ENDCHAR
STARTCHAR 00A1
ENCODING 161
SWIDTH 288 0
DWIDTH 4 0
BBX 1 9 1 -2
BITMAP
80
00
00
00
80
80
80
80
80
ENDCHAR
STARTCHAR 00A2
ENCODING 162
SWIDTH 504 0
DWIDTH 7 0
BBX 5 7 1 1
BITMAP
20
F8
A0
A0
A0
A0
78
ENDCHAR
STARTCHAR 00A3
ENCODING 163
SWIDTH 504 0
DWIDTH 7 0
BBX 5 9 1 0
BITMAP
70
80
80
80
40
60
40
40
F8
ENDCHAR
STARTCHAR 00A4
ENCODING 164
SWIDTH 504 0
DWIDTH 7 0
BBX 6 6 0 2
BITMAP
7C
44
84
84
44
7C
ENDCHAR
STARTCHAR 00A5
ENCODING 165
SWIDTH 504 0
DWIDTH 7 0
BBX 6 9 0 0
BITMAP
84
48
48
30
10
38
38
10
10
ENDCHAR
STARTCHAR 00A6
ENCODING 166
SWIDTH 216 0
DWIDTH 3 0
BBX 1 14 1 -4
BITMAP
80
80
80
80
80
80
80
80
80
80
80
80
80
80
ENDCHAR
STARTCHAR 00A7
ENCODING 167
SWIDTH 504 0
DWIDTH 7 0
BBX 5 11 1 -1
BITMAP
20
D0
80
E0
90
88
C8
30
10
90
60
ENDCHAR
STARTCHAR 00A8
ENCODING 168
SWIDTH 504 0
DWIDTH 7 0
BBX 3 1 2 8
BITMAP
A0
ENDCHAR
STARTCHAR 00A9
ENCODING 169
SWIDTH 720 0
DWIDTH 10 0
BBX 9 9 1 0
BITMAP
7E00
8100
9D00
A100
C080
A100
9D00
8200
7C00
ENDCHAR
STARTCHAR 00AA
ENCODING 170
SWIDTH 360 0
DWIDTH 5 0
BBX 3 4 1 6
BITMAP
E0
20
E0
E0
ENDCHAR
STARTCHAR 00AB
ENCODING 171
SWIDTH 432 0
DWIDTH 6 0
BBX 4 5 1 1
BITMAP
50
A0
C0
A0
50
ENDCHAR
STARTCHAR 00AC
ENCODING 172
SWIDTH 504 0
DWIDTH 7 0
BBX 6 3 0 2
BITMAP
FC
04
04
ENDCHAR
STARTCHAR 00AD
ENCODING 173
SWIDTH 288 0
DWIDTH 4 0
BBX 3 1 1 3
BITMAP
E0
ENDCHAR
STARTCHAR 00AE
ENCODING 174
SWIDTH 432 0
DWIDTH 6 0
BBX 5 5 0 5
BITMAP
F8
F8
E8
98
70
ENDCHAR
STARTCHAR 00AF
ENCODING 175
SWIDTH 504 0
DWIDTH 7 0
BBX 3 1 2 8
BITMAP
E0
ENDCHAR
STARTCHAR 00B0
ENCODING 176
SWIDTH 288 0
DWIDTH 4 0
BBX 3 3 1 6
BITMAP
E0
A0
C0
ENDCHAR
STARTCHAR 00B1
ENCODING 177
SWIDTH 504 0
DWIDTH 7 0
BBX 6 8 0 0
BITMAP
10
10
10
FC
10
10
00
FC
ENDCHAR
STARTCHAR 00B2
ENCODING 178
SWIDTH 360 0
DWIDTH 5 0
BBX 3 5 1 6
BITMAP
E0
20
20
40
C0
ENDCHAR
STARTCHAR 00B3
ENCODING 179
SWIDTH 360 0
DWIDTH 5 0
BBX 3 5 1 6
BITMAP
E0
20
20
60
E0
ENDCHAR
STARTCHAR 00B4
ENCODING 180
SWIDTH 504 0
DWIDTH 7 0
BBX 2 2 3 8
BITMAP
40
80
ENDCHAR
STARTCHAR 00B5
ENCODING 181
SWIDTH 576 0
DWIDTH 8 0
BBX 6 9 1 -2
BITMAP
88
88
88
88
88
88
F4
80
80
ENDCHAR
STARTCHAR 00B6
ENCODING 182
SWIDTH 504 0
DWIDTH 7 0
BBX 5 10 1 0
BITMAP
68
E8
E8
E8
E8
68
08
08
08
08
ENDCHAR
STARTCHAR 00B7
ENCODING 183
SWIDTH 216 0
DWIDTH 3 0
BBX 1 1 1 4
BITMAP
80
ENDCHAR
STARTCHAR 00B8
ENCODING 184
SWIDTH 504 0
DWIDTH 7 0
BBX 2 3 3 -3
BITMAP
80
40
80
ENDCHAR
STARTCHAR 00B9
ENCODING 185
SWIDTH 360 0
DWIDTH 5 0
BBX 2 5 1 6
BITMAP
C0
40
40
40
40
ENDCHAR
STARTCHAR 00BA
ENCODING 186
SWIDTH 360 0
DWIDTH 5 0
BBX 4 4 0 6
BITMAP
70
90
90
F0
ENDCHAR
STARTCHAR 00BB
ENCODING 187
SWIDTH 432 0
DWIDTH 6 0
BBX 4 4 1 2
BITMAP
A0
50
A0
C0
ENDCHAR
STARTCHAR 00BC
ENCODING 188
SWIDTH 792 0
DWIDTH 11 0
BBX 8 10 1 0
BITMAP
C2
44
44
48
48
53
13
25
23
41
ENDCHAR
STARTCHAR 00BD
ENCODING 189
SWIDTH 792 0
DWIDTH 11 0
BBX 9 10 1 0
BITMAP
C400
4400
4800
4800
5300
5080
2080
2100
4200
4300
ENDCHAR
STARTCHAR 00BE
ENCODING 190
SWIDTH 792 0
DWIDTH 11 0
BBX 8 10 1 0
BITMAP
E2
22
24
64
28
A9
53
15
23
21
ENDCHAR
STARTCHAR 00BF
ENCODING 191
SWIDTH 432 0
DWIDTH 6 0
BBX 4 10 1 -3
BITMAP
60
00
00
40
40
80
80
80
80
F0
ENDCHAR
STARTCHAR 00C0
ENCODING 192
SWIDTH 504 0
DWIDTH 7 0
BBX 7 13 0 0
BITMAP
20
10
00
10
30
28
28
48
44
7C
44
82
82
ENDCHAR
STARTCHAR 00C1
ENCODING 193
SWIDTH 504 0
DWIDTH 7 0
BBX 7 12 0 1
BITMAP
18
00
10
30
28
28
48
44
7C
44
82
82
ENDCHAR
STARTCHAR 00C2
ENCODING 194
SWIDTH 504 0
DWIDTH 7 0
BBX 7 12 0 0
BITMAP
38
00
10
30
28
28
48
44
7C
44
82
82
ENDCHAR
STARTCHAR 00C3
ENCODING 195
SWIDTH 504 0
DWIDTH 7 0
BBX 7 12 0 1
BITMAP
74
08
10
30
28
28
48
44
7C
44
82
82
ENDCHAR
STARTCHAR 00C4
ENCODING 196
SWIDTH 504 0
DWIDTH 7 0
BBX 7 12 0 0
BITMAP
28
00
10
30
28
28
48
44
7C
44
82
82
ENDCHAR
STARTCHAR 00C5
ENCODING 197
SWIDTH 504 0
DWIDTH 7 0
BBX 7 13 0 0
BITMAP
38
28
10
10
30
28
28
48
44
7C
44
82
82
ENDCHAR
STARTCHAR 00C6
ENCODING 198
SWIDTH 792 0
DWIDTH 11 0
BBX 11 10 0 0
BITMAP
07C0
0C00
0C00
1400
13C0
2400
3C00
4400
4400
83E0
ENDCHAR
STARTCHAR 00C7
ENCODING 199
SWIDTH 576 0
DWIDTH 8 0
BBX 6 13 1 -3
BITMAP
38
44
80
80
80
80
80
80
40
3C
10
08
10
ENDCHAR
STARTCHAR 00C8
ENCODING 200
SWIDTH 504 0
DWIDTH 7 0
BBX 5 12 1 1
BITMAP
20
00
F8
80
80
80
F8
80
80
80
80
F8
ENDCHAR
STARTCHAR 00C9
ENCODING 201
SWIDTH 504 0
DWIDTH 7 0
BBX 5 12 1 1
BITMAP
10
00
F8
80
80
80
F8
80
80
80
80
F8
ENDCHAR
STARTCHAR 00CA
ENCODING 202
SWIDTH 504 0
DWIDTH 7 0
BBX 5 12 1 0
BITMAP
70
00
F8
80
80
80
F8
80
80
80
80
F8
ENDCHAR
STARTCHAR 00CB
ENCODING 203
SWIDTH 504 0
DWIDTH 7 0
BBX 5 12 1 0
BITMAP
48
00
F8
80
80
80
F8
80
80
80
80
F8
ENDCHAR
STARTCHAR 00CC
ENCODING 204
SWIDTH 216 0
DWIDTH 3 0
BBX 2 13 0 0
BITMAP
80
40
00
40
40
40
40
40
40
40
40
40
40
ENDCHAR
STARTCHAR 00CD
ENCODING 205
SWIDTH 216 0
DWIDTH 3 0
BBX 2 12 1 1
BITMAP
C0
00
80
80
80
80
80
80
80
80
80
80
ENDCHAR
STARTCHAR 00CE
ENCODING 206
SWIDTH 216 0
DWIDTH 3 0
BBX 3 12 0 0
BITMAP
E0
00
40
40
40
40
40
40
40
40
40
40
ENDCHAR
STARTCHAR 00CF
ENCODING 207
SWIDTH 216 0
DWIDTH 3 0
BBX 4 12 0 0
BITMAP
90
00
40
40
40
40
40
40
40
40
40
40
ENDCHAR
STARTCHAR 00D0
ENCODING 208
SWIDTH 648 0
DWIDTH 9 0
BBX 7 10 1 0
BITMAP
78
84
82
82
82
E2
82
82
84
78
ENDCHAR
STARTCHAR 00D1
ENCODING 209
SWIDTH 648 0
DWIDTH 9 0
BBX 6 12 1 1
BITMAP
74
08
84
C4
C4
A4
A4
94
8C
8C
84
84
ENDCHAR
STARTCHAR 00D2
ENCODING 210
SWIDTH 648 0
DWIDTH 9 0
BBX 7 12 1 1
BITMAP
20
00
38
C4
82
82
82
82
82
82
44
38
ENDCHAR
STARTCHAR 00D3
ENCODING 211
SWIDTH 648 0
DWIDTH 9 0
BBX 7 12 1 1
BITMAP
18
00
38
C4
82
82
82
82
82
82
44
38
ENDCHAR
STARTCHAR 00D4
ENCODING 212
SWIDTH 648 0
DWIDTH 9 0
BBX 7 12 1 0
BITMAP
38
00
38
C4
82
82
82
82
82
82
44
38
ENDCHAR
STARTCHAR 00D5
ENCODING 213
SWIDTH 648 0
DWIDTH 9 0
BBX 7 12 1 1
BITMAP
74
08
38
C4
82
82
82
82
82
82
44
38
ENDCHAR
STARTCHAR 00D6
ENCODING 214
SWIDTH 648 0
DWIDTH 9 0
BBX 7 12 1 0
BITMAP
28
00
38
C4
82
82
82
82
82
82
44
38
ENDCHAR
STARTCHAR 00D7
ENCODING 215
SWIDTH 504 0
DWIDTH 7 0
BBX 5 5 1 2
BITMAP
90
60
20
50
88
ENDCHAR
STARTCHAR 00D8
ENCODING 216
SWIDTH 648 0
DWIDTH 9 0
BBX 7 10 1 0
BITMAP
3A
44
86
8A
92
A2
A2
C2
44
B8
ENDCHAR
STARTCHAR 00D9
ENCODING 217
SWIDTH 648 0
DWIDTH 9 0
BBX 6 12 1 1
BITMAP
20
00
84
84
84
84
84
84
84
84
44
38
ENDCHAR
STARTCHAR 00DA
ENCODING 218
SWIDTH 648 0
DWIDTH 9 0
BBX 6 13 1 0
BITMAP
08
10
00
84
84
84
84
84
84
84
84
44
38
ENDCHAR
STARTCHAR 00DB
ENCODING 219
SWIDTH 648 0
DWIDTH 9 0
BBX 6 12 1 0
BITMAP
38
00
84
84
84
84
84
84
84
84
44
38
ENDCHAR
STARTCHAR 00DC
ENCODING 220
SWIDTH 648 0
DWIDTH 9 0
BBX 6 12 1 0
BITMAP
28
00
84
84
84
84
84
84
84
84
44
38
ENDCHAR
STARTCHAR 00DD
ENCODING 221
SWIDTH 432 0
DWIDTH 6 0
BBX 6 12 0 1
BITMAP
10
00
84
88
48
48
30
10
20
20
20
20
ENDCHAR
STARTCHAR 00DE
ENCODING 222
SWIDTH 576 0
DWIDTH 8 0
BBX 6 10 1 0
BITMAP
80
F0
8C
84
84
84
84
F8
80
80
ENDCHAR
STARTCHAR 00DF
ENCODING 223
SWIDTH 576 0
DWIDTH 8 0
BBX 6 10 1 0
BITMAP
70
88
90
90
A0
90
88
84
84
B8
ENDCHAR
STARTCHAR 00E0
ENCODING 224
SWIDTH 504 0
DWIDTH 7 0
BBX 5 10 1 0
BITMAP
40
20
00
70
08
08
78
88
88
F8
ENDCHAR
STARTCHAR 00E1
ENCODING 225
SWIDTH 504 0
DWIDTH 7 0
BBX 5 10 1 0
BITMAP
10
20
00
70
08
08
78
88
88
F8
ENDCHAR
STARTCHAR 00E2
ENCODING 226
SWIDTH 504 0
DWIDTH 7 0
BBX 5 11 1 0
BITMAP
20
50
00
00
70
08
08
78
88
88
F8
ENDCHAR
STARTCHAR 00E3
ENCODING 227
SWIDTH 504 0
DWIDTH 7 0
BBX 5 10 1 0
BITMAP
48
B0
00
70
08
08
78
88
88
F8
ENDCHAR
STARTCHAR 00E4
ENCODING 228
SWIDTH 504 0
DWIDTH 7 0
BBX 5 9 1 0
BITMAP
50
00
70
08
08
78
88
88
F8
ENDCHAR
STARTCHAR 00E5
ENCODING 229
SWIDTH 504 0
DWIDTH 7 0
BBX 5 10 1 0
BITMAP
70
50
20
70
08
08
78
88
88
F8
ENDCHAR
STARTCHAR 00E6
ENCODING 230
SWIDTH 792 0
DWIDTH 11 0
BBX 9 7 1 0
BITMAP
7700
0880
0880
7F00
8800
8800
F780
ENDCHAR
STARTCHAR 00E7
ENCODING 231
SWIDTH 432 0
DWIDTH 6 0
BBX 4 10 1 -3
BITMAP
70
80
80
80
80
80
70
20
10
20
ENDCHAR
STARTCHAR 00E8
ENCODING 232
SWIDTH 504 0
DWIDTH 7 0
BBX 5 10 1 0
BITMAP
40
20
00
70
88
88
F8
80
80
78
ENDCHAR
STARTCHAR 00E9
ENCODING 233
SWIDTH 504 0
DWIDTH 7 0
BBX 5 10 1 0
BITMAP
10
20
00
70
88
88
F8
80
80
78
ENDCHAR
STARTCHAR 00EA
ENCODING 234
SWIDTH 504 0
DWIDTH 7 0
BBX 5 11 1 0
BITMAP
20
50
08
00
70
88
88
F8
80
80
78
ENDCHAR
STARTCHAR 00EB
ENCODING 235
SWIDTH 504 0
DWIDTH 7 0
BBX 5 9 1 0
BITMAP
50
00
70
88
88
F8
80
80
78
ENDCHAR
STARTCHAR 00EC
ENCODING 236
SWIDTH 216 0
DWIDTH 3 0
BBX 2 10 0 0
BITMAP
80
00
00
40
40
40
40
40
40
40
ENDCHAR
STARTCHAR 00ED
ENCODING 237
SWIDTH 216 0
DWIDTH 3 0
BBX 2 10 1 0
BITMAP
40
80
00
80
80
80
80
80
80
80
ENDCHAR
STARTCHAR 00EE
ENCODING 238
SWIDTH 216 0
DWIDTH 3 0
BBX 3 11 0 0
BITMAP
40
A0
00
00
40
40
40
40
40
40
40
ENDCHAR
STARTCHAR 00EF
ENCODING 239
SWIDTH 216 0
DWIDTH 3 0
BBX 3 10 0 0
BITMAP
A0
00
00
40
40
40
40
40
40
40
ENDCHAR
STARTCHAR 00F0
ENCODING 240
SWIDTH 504 0
DWIDTH 7 0
BBX 6 10 1 0
BITMAP
40
30
70
08
78
88
84
88
88
70
ENDCHAR
STARTCHAR 00F1
ENCODING 241
SWIDTH 504 0
DWIDTH 7 0
BBX 5 10 1 0
BITMAP
60
18
00
B8
C8
88
88
88
88
88
ENDCHAR
STARTCHAR 00F2
ENCODING 242
SWIDTH 504 0
DWIDTH 7 0
BBX 6 10 1 0
BITMAP
40
20
00
70
88
84
84
84
88
70
ENDCHAR
STARTCHAR 00F3
ENCODING 243
SWIDTH 504 0
DWIDTH 7 0
BBX 6 10 1 0
BITMAP
10
20
00
70
88
84
84
84
88
70
ENDCHAR
STARTCHAR 00F4
ENCODING 244
SWIDTH 504 0
DWIDTH 7 0
BBX 6 11 1 0
BITMAP
20
50
08
00
70
88
84
84
84
88
70
ENDCHAR
STARTCHAR 00F5
ENCODING 245
SWIDTH 504 0
DWIDTH 7 0
BBX 6 10 1 0
BITMAP
68
98
00
70
88
84
84
84
88
70
ENDCHAR
STARTCHAR 00F6
ENCODING 246
SWIDTH 504 0
DWIDTH 7 0
BBX 6 9 1 0
BITMAP
50
00
70
88
84
84
84
88
70
ENDCHAR
STARTCHAR 00F7
ENCODING 247
SWIDTH 504 0
DWIDTH 7 0
BBX 6 6 0 2
BITMAP
10
00
00
FC
00
10
ENDCHAR
STARTCHAR 00F8
ENCODING 248
SWIDTH 504 0
DWIDTH 7 0
BBX 6 7 1 0
BITMAP
70
88
94
A4
C4
88
F0
ENDCHAR
STARTCHAR 00F9
ENCODING 249
SWIDTH 504 0
DWIDTH 7 0
BBX 5 10 1 0
BITMAP
40
20
00
88
88
88
88
88
88
78
ENDCHAR
STARTCHAR 00FA
ENCODING 250
SWIDTH 504 0
DWIDTH 7 0
BBX 5 10 1 0
BITMAP
10
20
00
88
88
88
88
88
88
78
ENDCHAR
STARTCHAR 00FB
ENCODING 251
SWIDTH 504 0
DWIDTH 7 0
BBX 5 11 1 0
BITMAP
20
50
08
00
88
88
88
88
88
88
78
ENDCHAR
STARTCHAR 00FC
ENCODING 252
SWIDTH 504 0
DWIDTH 7 0
BBX 5 10 1 0
BITMAP
50
00
00
88
88
88
88
88
88
78
ENDCHAR
STARTCHAR 00FD
ENCODING 253
SWIDTH 432 0
DWIDTH 6 0
BBX 6 13 0 -3
BITMAP
10
00
00
84
88
48
48
50
30
10
20
20
C0
ENDCHAR
STARTCHAR 00FE
ENCODING 254
SWIDTH 576 0
DWIDTH 8 0
BBX 6 13 1 -3
BITMAP
80
80
80
B8
C8
84
84
84
88
F0
80
80
80
ENDCHAR
STARTCHAR 00FF
ENCODING 255
SWIDTH 432 0
DWIDTH 6 0
BBX 6 13 0 -3
BITMAP
48
00
00
84
88
48
48
50
30
10
20
20
C0
ENDCHAR
STARTCHAR 0100
ENCODING 256
SWIDTH 504 0
DWIDTH 7 0
BBX 7 11 0 0
BITMAP
10
10
30
28
28
48
44
7C
44
82
82
ENDCHAR
STARTCHAR 0101
ENCODING 257
SWIDTH 504 0
DWIDTH 7 0
BBX 5 9 1 0
BITMAP
70
00
70
08
08
78
88
88
F8
ENDCHAR
STARTCHAR 0102
ENCODING 258
SWIDTH 504 0
DWIDTH 7 0
BBX 7 12 0 0
BITMAP
28
10
10
30
28
28
48
44
7C
44
82
82
ENDCHAR
STARTCHAR 0103
ENCODING 259
SWIDTH 504 0
DWIDTH 7 0
BBX 5 10 1 0
BITMAP
88
50
20
70
08
08
78
88
88
F8
ENDCHAR
STARTCHAR 0104
ENCODING 260
SWIDTH 504 0
DWIDTH 7 0
BBX 8 13 0 -3
BITMAP
10
30
28
28
48
44
7C
44
82
82
02
04
03
ENDCHAR
STARTCHAR 0105
ENCODING 261
SWIDTH 504 0
DWIDTH 7 0
BBX 5 9 1 -2
BITMAP
70
08
08
78
88
88
F8
10
10
ENDCHAR
STARTCHAR 0106
ENCODING 262
SWIDTH 576 0
DWIDTH 8 0
BBX 6 12 1 1
BITMAP
18
00
38
44
80
80
80
80
80
80
40
3C
ENDCHAR
STARTCHAR 0107
ENCODING 263
SWIDTH 432 0
DWIDTH 6 0
BBX 4 10 1 0
BITMAP
10
20
00
70
80
80
80
80
80
70
ENDCHAR
STARTCHAR 0108
ENCODING 264
SWIDTH 576 0
DWIDTH 8 0
BBX 6 12 1 0
BITMAP
38
00
38
44
80
80
80
80
80
80
40
3C
ENDCHAR
STARTCHAR 0109
ENCODING 265
SWIDTH 432 0
DWIDTH 6 0
BBX 5 11 1 0
BITMAP
20
50
08
00
70
80
80
80
80
80
70
ENDCHAR
STARTCHAR 010A
ENCODING 266
SWIDTH 576 0
DWIDTH 8 0
BBX 6 12 1 0
BITMAP
10
00
38
44
80
80
80
80
80
80
40
3C
ENDCHAR
STARTCHAR 010B
ENCODING 267
SWIDTH 432 0
DWIDTH 6 0
BBX 4 9 1 0
BITMAP
20
00
70
80
80
80
80
80
70
ENDCHAR
STARTCHAR 010C
ENCODING 268
SWIDTH 576 0
DWIDTH 8 0
BBX 6 12 1 0
BITMAP
28
10
38
44
80
80
80
80
80
80
40
3C
ENDCHAR
STARTCHAR 010D
ENCODING 269
SWIDTH 432 0
DWIDTH 6 0
BBX 4 10 1 0
BITMAP
50
20
00
70
80
80
80
80
80
70
ENDCHAR
STARTCHAR 010E
ENCODING 270
SWIDTH 576 0
DWIDTH 8 0
BBX 7 12 1 0
BITMAP
38
00
F8
84
84
84
82
82
84
84
84
F8
ENDCHAR
STARTCHAR 010F
ENCODING 271
SWIDTH 576 0
DWIDTH 8 0
BBX 7 10 1 0
BITMAP
0A
0A
08
78
88
88
88
88
88
78
ENDCHAR
STARTCHAR 0110
ENCODING 272
SWIDTH 648 0
DWIDTH 9 0
BBX 7 10 1 0
BITMAP
78
84
82
82
82
E2
82
82
84
78
ENDCHAR
STARTCHAR 0111
ENCODING 273
SWIDTH 576 0
DWIDTH 8 0
BBX 5 10 1 0
BITMAP
08
08
18
28
D8
88
88
88
88
78
ENDCHAR
STARTCHAR 0112
ENCODING 274
SWIDTH 504 0
DWIDTH 7 0
BBX 5 11 1 0
BITMAP
30
F8
80
80
80
F8
80
80
80
80
F8
ENDCHAR
STARTCHAR 0113
ENCODING 275
SWIDTH 504 0
DWIDTH 7 0
BBX 5 9 1 0
BITMAP
70
00
70
88
88
F8
80
80
78
ENDCHAR
STARTCHAR 0114
ENCODING 276
SWIDTH 504 0
DWIDTH 7 0
BBX 5 12 1 0
BITMAP
48
30
F8
80
80
80
F8
80
80
80
80
F8
ENDCHAR
STARTCHAR 0115
ENCODING 277
SWIDTH 504 0
DWIDTH 7 0
BBX 5 10 1 0
BITMAP
88
50
20
70
88
88
F8
80
80
78
ENDCHAR
STARTCHAR 0116
ENCODING 278
SWIDTH 504 0
DWIDTH 7 0
BBX 5 12 1 0
BITMAP
20
00
F8
80
80
80
F8
80
80
80
80
F8
ENDCHAR
STARTCHAR 0117
ENCODING 279
SWIDTH 504 0
DWIDTH 7 0
BBX 5 9 1 0
BITMAP
20
00
70
88
88
F8
80
80
78
ENDCHAR
STARTCHAR 0118
ENCODING 280
SWIDTH 504 0
DWIDTH 7 0
BBX 6 13 1 -3
BITMAP
F8
80
80
80
F8
80
80
80
80
F8
08
10
0C
ENDCHAR
STARTCHAR 0119
ENCODING 281
SWIDTH 504 0
DWIDTH 7 0
BBX 5 9 1 -2
BITMAP
70
88
88
F8
80
80
78
10
30
ENDCHAR
STARTCHAR 011A
ENCODING 282
SWIDTH 504 0
DWIDTH 7 0
BBX 5 12 1 0
BITMAP
50
20
F8
80
80
80
F8
80
80
80
80
F8
ENDCHAR
STARTCHAR 011B
ENCODING 283
SWIDTH 504 0
DWIDTH 7 0
BBX 5 10 1 0
BITMAP
50
20
00
70
88
88
F8
80
80
78
ENDCHAR
STARTCHAR 011C
ENCODING 284
SWIDTH 576 0
DWIDTH 8 0
BBX 6 12 1 0
BITMAP
38
00
3C
40
80
80
80
8C
84
84
44
3C
ENDCHAR
STARTCHAR 011D
ENCODING 285
SWIDTH 504 0
DWIDTH 7 0
BBX 6 14 1 -3
BITMAP
20
50
00
00
78
88
88
90
70
80
F0
8C
88
F8
ENDCHAR
STARTCHAR 011E
ENCODING 286
SWIDTH 576 0
DWIDTH 8 0
BBX 6 12 1 0
BITMAP
28
10
3C
40
80
80
80
8C
84
84
44
3C
ENDCHAR
STARTCHAR 011F
ENCODING 287
SWIDTH 504 0
DWIDTH 7 0
BBX 6 13 1 -3
BITMAP
88
50
20
78
88
88
90
70
80
F0
8C
88
F8
ENDCHAR
STARTCHAR 0120
ENCODING 288
SWIDTH 576 0
DWIDTH 8 0
BBX 6 12 1 0
BITMAP
10
00
3C
40
80
80
80
8C
84
84
44
3C
ENDCHAR
STARTCHAR 0121
ENCODING 289
SWIDTH 504 0
DWIDTH 7 0
BBX 6 13 1 -3
BITMAP
20
00
00
78
88
88
90
70
80
F0
8C
88
F8
ENDCHAR
STARTCHAR 0122
ENCODING 290
SWIDTH 576 0
DWIDTH 8 0
BBX 6 13 1 -3
BITMAP
3C
40
80
80
80
8C
84
84
44
3C
00
08
10
ENDCHAR
STARTCHAR 0123
ENCODING 291
SWIDTH 504 0
DWIDTH 7 0
BBX 6 13 1 -3
BITMAP
60
20
00
78
88
88
90
70
80
F0
8C
88
F8
ENDCHAR
STARTCHAR 0124
ENCODING 292
SWIDTH 648 0
DWIDTH 9 0
BBX 7 12 1 0
BITMAP
38
00
82
82
82
82
FE
82
82
82
82
82
ENDCHAR
STARTCHAR 0125
ENCODING 293
SWIDTH 504 0
DWIDTH 7 0
BBX 6 12 0 0
BITMAP
40
A0
40
40
40
5C
64
44
44
44
44
44
ENDCHAR
STARTCHAR 0126
ENCODING 294
SWIDTH 648 0
DWIDTH 9 0
BBX 7 10 1 0
BITMAP
82
82
FE
82
7E
82
82
82
82
82
ENDCHAR
STARTCHAR 0127
ENCODING 295
SWIDTH 504 0
DWIDTH 7 0
BBX 5 10 1 0
BITMAP
80
80
E0
90
E8
88
88
88
88
88
ENDCHAR
STARTCHAR 0128
ENCODING 296
SWIDTH 216 0
DWIDTH 3 0
BBX 5 12 -1 1
BITMAP
E8
10
20
20
20
20
20
20
20
20
20
20
ENDCHAR
STARTCHAR 0129
ENCODING 297
SWIDTH 216 0
DWIDTH 3 0
BBX 4 10 0 0
BITMAP
D0
20
00
40
40
40
40
40
40
40
ENDCHAR
STARTCHAR 012A
ENCODING 298
SWIDTH 216 0
DWIDTH 3 0
BBX 1 11 1 0
BITMAP
80
80
80
80
80
80
80
80
80
80
80
ENDCHAR
STARTCHAR 012B
ENCODING 299
SWIDTH 216 0
DWIDTH 3 0
BBX 3 9 0 0
BITMAP
E0
00
40
40
40
40
40
40
40
ENDCHAR
STARTCHAR 012C
ENCODING 300
SWIDTH 216 0
DWIDTH 3 0
BBX 3 12 0 0
BITMAP
A0
40
40
40
40
40
40
40
40
40
40
40
ENDCHAR
STARTCHAR 012D
ENCODING 301
SWIDTH 216 0
DWIDTH 3 0
BBX 4 10 0 0
BITMAP
90
A0
40
40
40
40
40
40
40
40
ENDCHAR
STARTCHAR 012E
ENCODING 302
SWIDTH 216 0
DWIDTH 3 0
BBX 2 13 1 -3
BITMAP
80
80
80
80
80
80
80
80
80
80
80
80
C0
ENDCHAR
STARTCHAR 012F
ENCODING 303
SWIDTH 216 0
DWIDTH 3 0
BBX 1 13 1 -3
BITMAP
80
00
00
80
80
80
80
80
80
80
80
80
80
ENDCHAR
STARTCHAR 0130
ENCODING 304
SWIDTH 216 0
DWIDTH 3 0
BBX 1 12 1 0
BITMAP
80
00
80
80
80
80
80
80
80
80
80
80
ENDCHAR
STARTCHAR 0131
ENCODING 305
SWIDTH 216 0
DWIDTH 3 0
BBX 1 7 1 0
BITMAP
80
80
80
80
80
80
80
ENDCHAR
STARTCHAR 0132
ENCODING 306
SWIDTH 504 0
DWIDTH 7 0
BBX 4 12 1 -2
BITMAP
90
90
90
90
90
90
90
90
90
90
10
30
ENDCHAR
STARTCHAR 0133
ENCODING 307
SWIDTH 432 0
DWIDTH 6 0
BBX 4 12 1 -3
BITMAP
90
00
00
90
90
90
90
90
90
10
10
30
ENDCHAR
STARTCHAR 0134
ENCODING 308
SWIDTH 432 0
DWIDTH 6 0
BBX 5 12 1 0
BITMAP
38
00
10
10
10
10
10
10
10
10
10
E0
ENDCHAR
STARTCHAR 0135
ENCODING 309
SWIDTH 216 0
DWIDTH 3 0
BBX 3 14 0 -3
BITMAP
40
A0
00
00
40
40
40
40
40
40
40
40
40
C0
ENDCHAR
STARTCHAR 0136
ENCODING 310
SWIDTH 576 0
DWIDTH 8 0
BBX 6 13 1 -3
BITMAP
84
88
90
A0
B0
D0
88
88
84
84
00
10
30
ENDCHAR
STARTCHAR 0137
ENCODING 311
SWIDTH 432 0
DWIDTH 6 0
BBX 5 13 1 -3
BITMAP
80
80
80
88
90
A0
E0
90
90
88
00
20
60
ENDCHAR
STARTCHAR 0138
ENCODING 312
SWIDTH 432 0
DWIDTH 6 0
BBX 5 7 1 0
BITMAP
88
90
A0
E0
90
90
88
ENDCHAR
STARTCHAR 0139
ENCODING 313
SWIDTH 432 0
DWIDTH 6 0
BBX 5 12 1 1
BITMAP
C0
00
80
80
80
80
80
80
80
80
80
F8
ENDCHAR
STARTCHAR 013A
ENCODING 314
SWIDTH 216 0
DWIDTH 3 0
BBX 2 12 1 1
BITMAP
C0
00
80
80
80
80
80
80
80
80
80
80
ENDCHAR
STARTCHAR 013B
ENCODING 315
SWIDTH 432 0
DWIDTH 6 0
BBX 5 13 1 -3
BITMAP
80
80
80
80
80
80
80
80
80
F8
00
10
30
ENDCHAR
STARTCHAR 013C
ENCODING 316
SWIDTH 216 0
DWIDTH 3 0
BBX 2 13 1 -3
BITMAP
80
80
80
80
80
80
80
80
80
80
00
40
C0
ENDCHAR
STARTCHAR 013D
ENCODING 317
SWIDTH 432 0
DWIDTH 6 0
BBX 5 11 1 0
BITMAP
10
90
90
80
80
80
80
80
80
80
F8
ENDCHAR
STARTCHAR 013E
ENCODING 318
SWIDTH 216 0
DWIDTH 3 0
BBX 1 10 1 0
BITMAP
80
80
80
80
80
80
80
80
80
80
ENDCHAR
STARTCHAR 013F
ENCODING 319
SWIDTH 432 0
DWIDTH 6 0
BBX 5 10 1 0
BITMAP
80
80
80
80
80
98
80
80
80
F8
ENDCHAR
STARTCHAR 0140
ENCODING 320
SWIDTH 288 0
DWIDTH 4 0
BBX 3 10 1 0
BITMAP
80
80
80
80
80
A0
80
80
80
80
ENDCHAR
STARTCHAR 0141
ENCODING 321
SWIDTH 504 0
DWIDTH 7 0
BBX 6 10 0 0
BITMAP
40
40
40
40
50
60
C0
40
40
7C
ENDCHAR
STARTCHAR 0142
ENCODING 322
SWIDTH 216 0
DWIDTH 3 0
BBX 1 10 1 0
BITMAP
80
80
80
80
80
80
80
80
80
80
ENDCHAR
STARTCHAR 0143
ENCODING 323
SWIDTH 648 0
DWIDTH 9 0
BBX 6 13 1 0
BITMAP
08
10
00
84
C4
C4
A4
A4
94
8C
8C
84
84
ENDCHAR
STARTCHAR 0144
ENCODING 324
SWIDTH 504 0
DWIDTH 7 0
BBX 5 10 1 0
BITMAP
10
20
00
B8
C8
88
88
88
88
88
ENDCHAR
STARTCHAR 0145
ENCODING 325
SWIDTH 648 0
DWIDTH 9 0
BBX 6 13 1 -3
BITMAP
84
C4
C4
A4
A4
94
8C
8C
84
84
00
10
30
ENDCHAR
STARTCHAR 0146
ENCODING 326
SWIDTH 504 0
DWIDTH 7 0
BBX 5 10 1 -3
BITMAP
B8
C8
88
88
88
88
88
00
10
20
ENDCHAR
STARTCHAR 0147
ENCODING 327
SWIDTH 648 0
DWIDTH 9 0
BBX 6 12 1 0
BITMAP
28
10
84
C4
C4
A4
A4
94
8C
8C
84
84
ENDCHAR
STARTCHAR 0148
ENCODING 328
SWIDTH 504 0
DWIDTH 7 0
BBX 5 10 1 0
BITMAP
50
30
00
B8
C8
88
88
88
88
88
ENDCHAR
STARTCHAR 0149
ENCODING 329
SWIDTH 720 0
DWIDTH 10 0
BBX 8 10 1 0
BITMAP
80
80
80
2E
11
11
11
11
11
11
ENDCHAR
STARTCHAR 014A
ENCODING 330
SWIDTH 648 0
DWIDTH 9 0
BBX 7 10 1 0
BITMAP
B8
C4
82
82
82
82
82
82
84
8C
ENDCHAR
STARTCHAR 014B
ENCODING 331
SWIDTH 504 0
DWIDTH 7 0
BBX 5 10 1 -3
BITMAP
B8
C8
88
88
88
88
88
08
08
10
ENDCHAR
STARTCHAR 014C
ENCODING 332
SWIDTH 648 0
DWIDTH 9 0
BBX 7 11 1 0
BITMAP
10
38
C4
82
82
82
82
82
82
44
38
ENDCHAR
STARTCHAR 014D
ENCODING 333
SWIDTH 504 0
DWIDTH 7 0
BBX 6 9 1 0
BITMAP
70
00
70
88
84
84
84
88
70
ENDCHAR
STARTCHAR 014E
ENCODING 334
SWIDTH 648 0
DWIDTH 9 0
BBX 7 12 1 0
BITMAP
48
30
38
C4
82
82
82
82
82
82
44
38
ENDCHAR
STARTCHAR 014F
ENCODING 335
SWIDTH 504 0
DWIDTH 7 0
BBX 6 10 1 0
BITMAP
88
50
20
70
88
84
84
84
88
70
ENDCHAR
STARTCHAR 0150
ENCODING 336
SWIDTH 648 0
DWIDTH 9 0
BBX 7 13 1 0
BITMAP
14
28
00
38
C4
82
82
82
82
82
82
44
38
ENDCHAR
STARTCHAR 0151
ENCODING 337
SWIDTH 504 0
DWIDTH 7 0
BBX 6 10 1 0
BITMAP
28
50
00
70
88
84
84
84
88
70
ENDCHAR
STARTCHAR 0152
ENCODING 338
SWIDTH 864 0
DWIDTH 12 0
BBX 10 10 1 0
BITMAP
3FC0
4400
8400
8400
8780
8400
8400
8400
4400
3FC0
ENDCHAR
STARTCHAR 0153
ENCODING 339
SWIDTH 864 0
DWIDTH 12 0
BBX 10 7 1 0
BITMAP
7380
8C40
8440
8780
8400
8C00
73C0
ENDCHAR
STARTCHAR 0154
ENCODING 340
SWIDTH 576 0
DWIDTH 8 0
BBX 6 12 1 1
BITMAP
10
00
F8
84
84
84
88
F0
90
88
88
84
ENDCHAR
STARTCHAR 0155
ENCODING 341
SWIDTH 288 0
DWIDTH 4 0
BBX 3 10 1 0
BITMAP
20
40
00
A0
C0
80
80
80
80
80
ENDCHAR
STARTCHAR 0156
ENCODING 342
SWIDTH 576 0
DWIDTH 8 0
BBX 6 13 1 -3
BITMAP
F8
84
84
84
88
F0
90
88
88
84
00
10
30
ENDCHAR
STARTCHAR 0157
ENCODING 343
SWIDTH 288 0
DWIDTH 4 0
BBX 4 10 0 -3
BITMAP
50
60
40
40
40
40
40
00
40
C0
ENDCHAR
STARTCHAR 0158
ENCODING 344
SWIDTH 576 0
DWIDTH 8 0
BBX 6 12 1 0
BITMAP
50
20
F8
84
84
84
88
F0
90
88
88
84
ENDCHAR
STARTCHAR 0159
ENCODING 345
SWIDTH 288 0
DWIDTH 4 0
BBX 3 10 1 0
BITMAP
A0
40
00
A0
C0
80
80
80
80
80
ENDCHAR
STARTCHAR 015A
ENCODING 346
SWIDTH 504 0
DWIDTH 7 0
BBX 6 12 1 1
BITMAP
10
20
78
80
80
80
60
18
04
04
08
F8
ENDCHAR
STARTCHAR 015B
ENCODING 347
SWIDTH 432 0
DWIDTH 6 0
BBX 5 10 0 0
BITMAP
10
20
00
78
80
40
30
08
08
70
ENDCHAR
STARTCHAR 015C
ENCODING 348
SWIDTH 504 0
DWIDTH 7 0
BBX 6 12 1 0
BITMAP
70
00
78
80
80
80
60
18
04
04
08
F8
ENDCHAR
STARTCHAR 015D
ENCODING 349
SWIDTH 432 0
DWIDTH 6 0
BBX 5 10 0 1
BITMAP
70
48
00
78
80
40
30
08
08
70
ENDCHAR
STARTCHAR 015E
ENCODING 350
SWIDTH 504 0
DWIDTH 7 0
BBX 6 13 1 -3
BITMAP
78
80
80
80
60
18
04
04
08
F8
20
10
20
ENDCHAR
STARTCHAR 015F
ENCODING 351
SWIDTH 432 0
DWIDTH 6 0
BBX 5 10 0 -3
BITMAP
78
80
40
30
08
08
70
20
10
30
ENDCHAR
STARTCHAR 0160
ENCODING 352
SWIDTH 504 0
DWIDTH 7 0
BBX 6 12 1 0
BITMAP
50
20
78
80
80
80
60
18
04
04
08
F8
ENDCHAR
STARTCHAR 0161
ENCODING 353
SWIDTH 432 0
DWIDTH 6 0
BBX 5 10 0 0
BITMAP
50
30
00
78
80
40
30
08
08
70
ENDCHAR
STARTCHAR 0162
ENCODING 354
SWIDTH 504 0
DWIDTH 7 0
BBX 7 13 0 -3
BITMAP
FE
10
10
10
10
10
10
10
10
10
10
10
10
ENDCHAR
STARTCHAR 0163
ENCODING 355
SWIDTH 288 0
DWIDTH 4 0
BBX 4 12 0 -3
BITMAP
40
40
F0
40
40
40
40
40
30
20
10
20
ENDCHAR
STARTCHAR 0164
ENCODING 356
SWIDTH 504 0
DWIDTH 7 0
BBX 7 12 0 0
BITMAP
28
10
FE
10
10
10
10
10
10
10
10
10
ENDCHAR
STARTCHAR 0165
ENCODING 357
SWIDTH 288 0
DWIDTH 4 0
BBX 4 11 0 0
BITMAP
10
10
50
40
F0
40
40
40
40
40
30
ENDCHAR
STARTCHAR 0166
ENCODING 358
SWIDTH 504 0
DWIDTH 7 0
BBX 7 10 0 0
BITMAP
FE
10
10
10
10
18
10
10
10
10
ENDCHAR
STARTCHAR 0167
ENCODING 359
SWIDTH 288 0
DWIDTH 4 0
BBX 4 9 0 0
BITMAP
40
40
F0
40
40
60
40
40
30
ENDCHAR
STARTCHAR 0168
ENCODING 360
SWIDTH 648 0
DWIDTH 9 0
BBX 6 12 1 1
BITMAP
78
00
84
84
84
84
84
84
84
84
44
38
ENDCHAR
STARTCHAR 0169
ENCODING 361
SWIDTH 504 0
DWIDTH 7 0
BBX 5 10 1 0
BITMAP
68
10
00
88
88
88
88
88
88
78
ENDCHAR
STARTCHAR 016A
ENCODING 362
SWIDTH 648 0
DWIDTH 9 0
BBX 6 11 1 0
BITMAP
10
84
84
84
84
84
84
84
84
44
38
ENDCHAR
STARTCHAR 016B
ENCODING 363
SWIDTH 504 0
DWIDTH 7 0
BBX 5 9 1 0
BITMAP
70
00
88
88
88
88
88
88
78
ENDCHAR
STARTCHAR 016C
ENCODING 364
SWIDTH 648 0
DWIDTH 9 0
BBX 6 12 1 0
BITMAP
48
30
84
84
84
84
84
84
84
84
44
38
ENDCHAR
STARTCHAR 016D
ENCODING 365
SWIDTH 504 0
DWIDTH 7 0
BBX 5 10 1 0
BITMAP
88
50
20
88
88
88
88
88
88
78
ENDCHAR
STARTCHAR 016E
ENCODING 366
SWIDTH 648 0
DWIDTH 9 0
BBX 6 13 1 0
BITMAP
30
28
10
84
84
84
84
84
84
84
84
44
38
ENDCHAR
STARTCHAR 016F
ENCODING 367
SWIDTH 504 0
DWIDTH 7 0
BBX 5 10 1 0
BITMAP
70
50
20
88
88
88
88
88
88
78
ENDCHAR
STARTCHAR 0170
ENCODING 368
SWIDTH 648 0
DWIDTH 9 0
BBX 6 13 1 0
BITMAP
14
28
00
84
84
84
84
84
84
84
84
44
38
ENDCHAR
STARTCHAR 0171
ENCODING 369
SWIDTH 504 0
DWIDTH 7 0
BBX 5 10 1 0
BITMAP
28
00
00
88
88
88
88
88
88
78
ENDCHAR
STARTCHAR 0172
ENCODING 370
SWIDTH 648 0
DWIDTH 9 0
BBX 6 13 1 -3
BITMAP
84
84
84
84
84
84
84
84
44
38
10
20
10
ENDCHAR
STARTCHAR 0173
ENCODING 371
SWIDTH 504 0
DWIDTH 7 0
BBX 5 9 1 -2
BITMAP
88
88
88
88
88
88
78
10
18
ENDCHAR
STARTCHAR 0174
ENCODING 372
SWIDTH 792 0
DWIDTH 11 0
BBX 10 12 0 0
BITMAP
0E00
0000
8440
8C40
4C40
4A40
5280
5280
5280
5280
3180
2100
ENDCHAR
STARTCHAR 0175
ENCODING 373
SWIDTH 720 0
DWIDTH 10 0
BBX 9 11 0 0
BITMAP
0800
1400
0200
0000
8880
8C80
5500
5500
5500
6300
2200
ENDCHAR
STARTCHAR 0176
ENCODING 374
SWIDTH 432 0
DWIDTH 6 0
BBX 6 12 0 0
BITMAP
70
00
84
88
48
48
30
10
20
20
20
20
ENDCHAR
STARTCHAR 0177
ENCODING 375
SWIDTH 432 0
DWIDTH 6 0
BBX 6 13 0 -2
BITMAP
30
48
00
84
88
48
48
50
30
10
20
20
C0
ENDCHAR
STARTCHAR 0178
ENCODING 376
SWIDTH 432 0
DWIDTH 6 0
BBX 6 12 0 0
BITMAP
48
00
84
88
48
48
30
10
20
20
20
20
ENDCHAR
STARTCHAR 0179
ENCODING 377
SWIDTH 504 0
DWIDTH 7 0
BBX 6 12 1 1
BITMAP
10
00
FC
08
08
10
20
20
40
40
80
FC
ENDCHAR
STARTCHAR 017A
ENCODING 378
SWIDTH 432 0
DWIDTH 6 0
BBX 5 10 0 0
BITMAP
10
20
00
78
10
10
20
40
40
F8
ENDCHAR
STARTCHAR 017B
ENCODING 379
SWIDTH 504 0
DWIDTH 7 0
BBX 6 12 1 0
BITMAP
20
00
FC
08
08
10
20
20
40
40
80
FC
ENDCHAR
STARTCHAR 017C
ENCODING 380
SWIDTH 432 0
DWIDTH 6 0
BBX 5 10 0 0
BITMAP
10
00
00
78
10
10
20
40
40
F8
ENDCHAR
STARTCHAR 017D
ENCODING 381
SWIDTH 504 0
DWIDTH 7 0
BBX 6 12 1 0
BITMAP
50
20
FC
08
08
10
20
20
40
40
80
FC
ENDCHAR
STARTCHAR 017E
ENCODING 382
SWIDTH 432 0
DWIDTH 6 0
BBX 5 11 0 0
BITMAP
48
30
00
00
78
10
10
20
40
40
F8
ENDCHAR
STARTCHAR 0180
ENCODING 384
SWIDTH 504 0
DWIDTH 7 0
BBX 6 10 1 0
BITMAP
80
80
E0
90
E8
84
84
84
88
F0
ENDCHAR
STARTCHAR 018F
ENCODING 399
SWIDTH 648 0
DWIDTH 9 0
BBX 7 10 1 0
BITMAP
38
44
02
02
02
FE
82
82
84
78
ENDCHAR
STARTCHAR 0192
ENCODING 402
SWIDTH 504 0
DWIDTH 7 0
BBX 5 12 1 -2
BITMAP
18
20
20
20
78
40
40
40
40
40
40
80
ENDCHAR
STARTCHAR 0193
ENCODING 403
SWIDTH 576 0
DWIDTH 8 0
BBX 7 12 1 0
BITMAP
02
04
3C
40
80
80
80
8C
84
84
44
3C
ENDCHAR
STARTCHAR 01A0
ENCODING 416
SWIDTH 648 0
DWIDTH 9 0
BBX 7 12 1 0
BITMAP
02
02
3E
44
82
82
82
82
82
82
44
38
ENDCHAR
STARTCHAR 01A1
ENCODING 417
SWIDTH 504 0
DWIDTH 7 0
BBX 6 9 1 0
BITMAP
04
04
78
88
84
84
84
88
70
ENDCHAR
STARTCHAR 01AF
ENCODING 431
SWIDTH 648 0
DWIDTH 9 0
BBX 8 12 1 0
BITMAP
01
01
86
84
84
84
84
84
84
84
44
38
ENDCHAR
STARTCHAR 01B0
ENCODING 432
SWIDTH 504 0
DWIDTH 7 0
BBX 6 9 1 0
BITMAP
04
04
88
88
88
88
88
88
78
ENDCHAR
STARTCHAR 01C2
ENCODING 450
SWIDTH 288 0
DWIDTH 4 0
BBX 2 13 1 -3
BITMAP
80
80
80
80
80
C0
80
C0
80
80
80
80
80
ENDCHAR
STARTCHAR 01CD
ENCODING 461
SWIDTH 504 0
DWIDTH 7 0
BBX 7 12 0 0
BITMAP
28
10
10
30
28
28
48
44
7C
44
82
82
ENDCHAR
STARTCHAR 01CE
ENCODING 462
SWIDTH 504 0
DWIDTH 7 0
BBX 5 10 1 0
BITMAP
50
20
00
70
08
08
78
88
88
F8
ENDCHAR
STARTCHAR 01CF
ENCODING 463
SWIDTH 216 0
DWIDTH 3 0
BBX 3 12 0 0
BITMAP
A0
40
40
40
40
40
40
40
40
40
40
40
ENDCHAR
STARTCHAR 01D0
ENCODING 464
SWIDTH 216 0
DWIDTH 3 0
BBX 3 10 0 1
BITMAP
A0
40
00
40
40
40
40
40
40
40
ENDCHAR
STARTCHAR 01D1
ENCODING 465
SWIDTH 648 0
DWIDTH 9 0
BBX 7 12 1 0
BITMAP
28
10
38
C4
82
82
82
82
82
82
44
38
ENDCHAR
STARTCHAR 01D2
ENCODING 466
SWIDTH 504 0
DWIDTH 7 0
BBX 6 10 1 0
BITMAP
50
20
00
70
88
84
84
84
88
70
ENDCHAR
STARTCHAR 01D3
ENCODING 467
SWIDTH 648 0
DWIDTH 9 0
BBX 6 12 1 0
BITMAP
28
10
84
84
84
84
84
84
84
84
44
38
ENDCHAR
STARTCHAR 01D4
ENCODING 468
SWIDTH 504 0
DWIDTH 7 0
BBX 5 11 1 0
BITMAP
08
50
20
00
88
88
88
88
88
88
78
ENDCHAR
STARTCHAR 01D5
ENCODING 469
SWIDTH 648 0
DWIDTH 9 0
BBX 6 13 1 0
BITMAP
10
28
00
84
84
84
84
84
84
84
84
44
38
ENDCHAR
STARTCHAR 01D6
ENCODING 470
SWIDTH 504 0
DWIDTH 7 0
BBX 5 11 1 0
BITMAP
20
50
00
00
88
88
88
88
88
88
78
ENDCHAR
STARTCHAR 01D7
ENCODING 471
SWIDTH 648 0
DWIDTH 9 0
BBX 6 14 1 0
BITMAP
08
10
28
00
84
84
84
84
84
84
84
84
44
38
ENDCHAR
STARTCHAR 01D8
ENCODING 472
SWIDTH 504 0
DWIDTH 7 0
BBX 5 12 1 0
BITMAP
20
20
50
00
00
88
88
88
88
88
88
78
ENDCHAR
STARTCHAR 01D9
ENCODING 473
SWIDTH 648 0
DWIDTH 9 0
BBX 6 14 1 0
BITMAP
28
10
28
00
84
84
84
84
84
84
84
84
44
38
ENDCHAR
STARTCHAR 01DA
ENCODING 474
SWIDTH 504 0
DWIDTH 7 0
BBX 5 12 1 0
BITMAP
50
20
50
00
00
88
88
88
88
88
88
78
ENDCHAR
STARTCHAR 01DB
ENCODING 475
SWIDTH 648 0
DWIDTH 9 0
BBX 6 14 1 0
BITMAP
20
10
28
00
84
84
84
84
84
84
84
84
44
38
ENDCHAR
STARTCHAR 01DC
ENCODING 476
SWIDTH 504 0
DWIDTH 7 0
BBX 5 12 1 0
BITMAP
20
00
50
00
00
88
88
88
88
88
88
78
ENDCHAR
STARTCHAR 01E2
ENCODING 482
SWIDTH 792 0
DWIDTH 11 0
BBX 11 11 0 0
BITMAP
0180
07C0
0C00
0C00
1400
13C0
2400
3C00
4400
4400
83E0
ENDCHAR
STARTCHAR 01E3
ENCODING 483
SWIDTH 792 0
DWIDTH 11 0
BBX 9 9 1 0
BITMAP
1C00
0000
7700
0880
0880
7F00
8800
8800
F780
ENDCHAR
STARTCHAR 01E6
ENCODING 486
SWIDTH 576 0
DWIDTH 8 0
BBX 6 12 1 0
BITMAP
28
10
3C
40
80
80
80
8C
84
84
44
3C
ENDCHAR
STARTCHAR 01E7
ENCODING 487
SWIDTH 504 0
DWIDTH 7 0
BBX 6 13 1 -2
BITMAP
50
20
00
78
88
88
90
70
80
F0
8C
88
F8
ENDCHAR
STARTCHAR 01EA
ENCODING 490
SWIDTH 648 0
DWIDTH 9 0
BBX 7 13 1 -3
BITMAP
38
C4
82
82
82
82
82
82
44
38
10
20
10
ENDCHAR
STARTCHAR 01EB
ENCODING 491
SWIDTH 504 0
DWIDTH 7 0
BBX 6 9 1 -2
BITMAP
70
88
84
84
84
88
70
20
60
ENDCHAR
STARTCHAR 01F4
ENCODING 500
SWIDTH 576 0
DWIDTH 8 0
BBX 6 12 1 1
BITMAP
08
10
3C
40
80
80
80
8C
84
84
44
3C
ENDCHAR
STARTCHAR 01F5
ENCODING 501
SWIDTH 504 0
DWIDTH 7 0
BBX 6 13 1 -3
BITMAP
10
20
00
78
88
88
90
70
80
F0
8C
88
F8
ENDCHAR
STARTCHAR 01F8
ENCODING 504
SWIDTH 648 0
DWIDTH 9 0
BBX 6 12 1 1
BITMAP
30
00
84
C4
C4
A4
A4
94
8C
8C
84
84
ENDCHAR
STARTCHAR 01F9
ENCODING 505
SWIDTH 504 0
DWIDTH 7 0
BBX 5 10 1 0
BITMAP
20
10
00
B8
C8
88
88
88
88
88
ENDCHAR
STARTCHAR 01FC
ENCODING 508
SWIDTH 792 0
DWIDTH 11 0
BBX 11 12 0 1
BITMAP
0080
0000
07C0
0C00
0C00
1400
13C0
2400
3C00
4400
4400
83E0
ENDCHAR
STARTCHAR 01FD
ENCODING 509
SWIDTH 792 0
DWIDTH 11 0
BBX 9 10 1 1
BITMAP
0400
0800
0000
7700
0880
0880
7F00
8800
8800
F780
ENDCHAR
STARTCHAR 0218
ENCODING 536
SWIDTH 504 0
DWIDTH 7 0
BBX 6 13 1 -3
BITMAP
78
80
80
80
60
18
04
04
08
F8
00
10
20
ENDCHAR
STARTCHAR 0219
ENCODING 537
SWIDTH 432 0
DWIDTH 6 0
BBX 5 10 0 -3
BITMAP
78
80
40
30
08
08
70
00
10
30
ENDCHAR
STARTCHAR 021A
ENCODING 538
SWIDTH 504 0
DWIDTH 7 0
BBX 7 13 0 -3
BITMAP
FE
10
10
10
10
10
10
10
10
10
00
08
10
ENDCHAR
STARTCHAR 021B
ENCODING 539
SWIDTH 288 0
DWIDTH 4 0
BBX 4 12 0 -3
BITMAP
40
40
F0
40
40
40
40
40
30
00
10
20
ENDCHAR
STARTCHAR 0237
ENCODING 567
SWIDTH 216 0
DWIDTH 3 0
BBX 2 10 0 -3
BITMAP
40
40
40
40
40
40
40
40
40
C0
ENDCHAR
STARTCHAR 0243
ENCODING 579
SWIDTH 576 0
DWIDTH 8 0
BBX 7 10 1 0
BITMAP
78
84
84
84
98
E4
82
C2
84
F8
ENDCHAR
STARTCHAR 0250
ENCODING 592
SWIDTH 504 0
DWIDTH 7 0
BBX 5 7 1 0
BITMAP
B8
C8
88
90
E0
80
78
ENDCHAR
STARTCHAR 0251
ENCODING 593
SWIDTH 576 0
DWIDTH 8 0
BBX 5 7 1 0
BITMAP
70
88
88
88
88
88
70
ENDCHAR
STARTCHAR 0252
ENCODING 594
SWIDTH 576 0
DWIDTH 8 0
BBX 6 7 1 0
BITMAP
B8
C8
84
84
84
88
F0
ENDCHAR
STARTCHAR 0253
ENCODING 595
SWIDTH 576 0
DWIDTH 8 0
BBX 6 10 1 0
BITMAP
60
80
80
B8
C8
84
84
84
88
F0
ENDCHAR
STARTCHAR 0254
ENCODING 596
SWIDTH 432 0
DWIDTH 6 0
BBX 5 7 1 0
BITMAP
E0
10
10
08
10
10
E0
ENDCHAR
STARTCHAR 0255
ENCODING 597
SWIDTH 432 0
DWIDTH 6 0
BBX 5 8 1 -1
BITMAP
70
80
80
80
80
F8
70
80
ENDCHAR
STARTCHAR 0256
ENCODING 598
SWIDTH 576 0
DWIDTH 8 0
BBX 6 13 1 -3
BITMAP
08
08
08
78
88
88
88
88
88
78
08
08
04
ENDCHAR
STARTCHAR 0257
ENCODING 599
SWIDTH 576 0
DWIDTH 8 0
BBX 7 10 1 0
BITMAP
06
08
08
78
88
88
88
88
88
78
ENDCHAR
STARTCHAR 0258
ENCODING 600
SWIDTH 504 0
DWIDTH 7 0
BBX 5 7 1 0
BITMAP
70
88
88
F8
08
08
F0
ENDCHAR
STARTCHAR 0259
ENCODING 601
SWIDTH 504 0
DWIDTH 7 0
BBX 5 7 1 0
BITMAP
F0
08
08
08
F8
88
70
ENDCHAR
STARTCHAR 025A
ENCODING 602
SWIDTH 648 0
DWIDTH 9 0
BBX 7 7 1 0
BITMAP
F0
08
0C
7A
88
88
70
ENDCHAR
STARTCHAR 025B
ENCODING 603
SWIDTH 432 0
DWIDTH 6 0
BBX 4 7 1 0
BITMAP
70
80
80
60
80
80
70
ENDCHAR
STARTCHAR 025C
ENCODING 604
SWIDTH 432 0
DWIDTH 6 0
BBX 4 7 1 0
BITMAP
F0
10
10
70
10
10
F0
ENDCHAR
STARTCHAR 025E
ENCODING 606
SWIDTH 504 0
DWIDTH 7 0
BBX 6 7 1 0
BITMAP
70
88
84
64
84
88
70
ENDCHAR
STARTCHAR 025F
ENCODING 607
SWIDTH 216 0
DWIDTH 3 0
BBX 2 10 0 -3
BITMAP
40
40
40
40
40
40
40
40
40
C0
ENDCHAR
STARTCHAR 0260
ENCODING 608
SWIDTH 576 0
DWIDTH 8 0
BBX 6 11 1 -2
BITMAP
0C
78
88
88
88
88
88
78
08
08
70
ENDCHAR
STARTCHAR 0261
ENCODING 609
SWIDTH 576 0
DWIDTH 8 0
BBX 5 10 1 -3
BITMAP
78
88
88
88
88
88
78
08
08
70
ENDCHAR
STARTCHAR 0262
ENCODING 610
SWIDTH 504 0
DWIDTH 7 0
BBX 5 7 1 0
BITMAP
78
80
80
98
88
88
78
ENDCHAR
STARTCHAR 0263
ENCODING 611
SWIDTH 432 0
DWIDTH 6 0
BBX 6 10 0 -3
BITMAP
84
88
48
48
50
30
10
30
50
30
ENDCHAR
STARTCHAR 0264
ENCODING 612
SWIDTH 504 0
DWIDTH 7 0
BBX 6 7 0 0
BITMAP
CC
30
28
48
48
48
38
ENDCHAR
STARTCHAR 0265
ENCODING 613
SWIDTH 504 0
DWIDTH 7 0
BBX 5 10 1 -3
BITMAP
88
88
88
88
88
88
78
08
08
08
ENDCHAR
STARTCHAR 0266
ENCODING 614
SWIDTH 504 0
DWIDTH 7 0
BBX 5 10 1 0
BITMAP
60
80
80
B8
C8
88
88
88
88
88
ENDCHAR
STARTCHAR 0267
ENCODING 615
SWIDTH 504 0
DWIDTH 7 0
BBX 5 13 1 -3
BITMAP
60
80
80
B8
C8
88
88
88
88
88
08
08
10
ENDCHAR
STARTCHAR 0268
ENCODING 616
SWIDTH 216 0
DWIDTH 3 0
BBX 1 10 1 0
BITMAP
80
00
00
80
80
80
80
80
80
80
ENDCHAR
STARTCHAR 026A
ENCODING 618
SWIDTH 288 0
DWIDTH 4 0
BBX 3 7 1 0
BITMAP
E0
80
80
80
80
80
E0
ENDCHAR
STARTCHAR 026C
ENCODING 620
SWIDTH 288 0
DWIDTH 4 0
BBX 3 10 0 0
BITMAP
40
40
40
C0
C0
60
40
40
40
20
ENDCHAR
STARTCHAR 026D
ENCODING 621
SWIDTH 216 0
DWIDTH 3 0
BBX 2 13 1 -3
BITMAP
80
80
80
80
80
80
80
80
80
80
80
80
40
ENDCHAR
STARTCHAR 026E
ENCODING 622
SWIDTH 576 0
DWIDTH 8 0
BBX 6 13 1 -3
BITMAP
80
80
80
FC
88
90
90
A0
9C
84
04
04
78
ENDCHAR
STARTCHAR 026F
ENCODING 623
SWIDTH 792 0
DWIDTH 11 0
BBX 9 7 1 0
BITMAP
8880
8880
8880
8880
8880
8880
7780
ENDCHAR
STARTCHAR 0270
ENCODING 624
SWIDTH 792 0
DWIDTH 11 0
BBX 9 10 1 -3
BITMAP
8880
8880
8880
8880
8880
8880
7780
0080
0080
0080
ENDCHAR
STARTCHAR 0271
ENCODING 625
SWIDTH 792 0
DWIDTH 11 0
BBX 9 10 1 -3
BITMAP
B300
CC80
8880
8880
8880
8880
8880
0080
0080
0100
ENDCHAR
STARTCHAR 0272
ENCODING 626
SWIDTH 504 0
DWIDTH 7 0
BBX 6 10 0 -3
BITMAP
5C
64
44
44
44
44
40
40
40
80
ENDCHAR
STARTCHAR 0273
ENCODING 627
SWIDTH 504 0
DWIDTH 7 0
BBX 6 10 1 -3
BITMAP
B8
C8
88
88
88
88
88
08
08
04
ENDCHAR
STARTCHAR 0274
ENCODING 628
SWIDTH 504 0
DWIDTH 7 0
BBX 5 7 1 0
BITMAP
88
C8
C8
A8
98
98
88
ENDCHAR
STARTCHAR 0275
ENCODING 629
SWIDTH 504 0
DWIDTH 7 0
BBX 6 7 1 0
BITMAP
70
88
84
FC
84
88
70
ENDCHAR
STARTCHAR 0276
ENCODING 630
SWIDTH 720 0
DWIDTH 10 0
BBX 8 7 1 0
BITMAP
7F
88
88
8F
88
88
7F
ENDCHAR
STARTCHAR 0278
ENCODING 632
SWIDTH 648 0
DWIDTH 9 0
BBX 7 13 1 -3
BITMAP
10
10
10
7C
92
92
92
92
92
7C
10
10
10
ENDCHAR
STARTCHAR 0279
ENCODING 633
SWIDTH 288 0
DWIDTH 4 0
BBX 3 7 0 0
BITMAP
20
20
20
20
20
20
C0
ENDCHAR
STARTCHAR 027A
ENCODING 634
SWIDTH 288 0
DWIDTH 4 0
BBX 3 10 0 0
BITMAP
20
20
20
20
20
20
20
20
20
C0
ENDCHAR
STARTCHAR 027B
ENCODING 635
SWIDTH 288 0
DWIDTH 4 0
BBX 4 10 0 -3
BITMAP
20
20
20
20
20
20
E0
20
20
10
ENDCHAR
STARTCHAR 027D
ENCODING 637
SWIDTH 288 0
DWIDTH 4 0
BBX 3 10 1 -3
BITMAP
A0
C0
80
80
80
80
80
80
80
40
ENDCHAR
STARTCHAR 027E
ENCODING 638
SWIDTH 288 0
DWIDTH 4 0
BBX 3 7 1 0
BITMAP
60
80
80
80
80
80
80
ENDCHAR
STARTCHAR 0280
ENCODING 640
SWIDTH 504 0
DWIDTH 7 0
BBX 5 7 1 0
BITMAP
F0
88
88
F0
A0
90
88
ENDCHAR
STARTCHAR 0281
ENCODING 641
SWIDTH 504 0
DWIDTH 7 0
BBX 4 6 1 1
BITMAP
90
50
F0
90
90
F0
ENDCHAR
STARTCHAR 0282
ENCODING 642
SWIDTH 432 0
DWIDTH 6 0
BBX 5 10 0 -3
BITMAP
78
80
40
30
08
08
F0
80
80
40
ENDCHAR
STARTCHAR 0283
ENCODING 643
SWIDTH 216 0
DWIDTH 3 0
BBX 4 13 0 -3
BITMAP
30
40
40
40
40
40
40
40
40
40
40
40
C0
ENDCHAR
STARTCHAR 0284
ENCODING 644
SWIDTH 216 0
DWIDTH 3 0
BBX 4 13 0 -3
BITMAP
30
40
40
40
40
40
40
40
40
40
40
40
C0
ENDCHAR
STARTCHAR 0288
ENCODING 648
SWIDTH 288 0
DWIDTH 4 0
BBX 4 12 0 -3
BITMAP
40
40
F0
40
40
40
40
40
40
40
40
30
ENDCHAR
STARTCHAR 0289
ENCODING 649
SWIDTH 576 0
DWIDTH 8 0
BBX 5 7 1 0
BITMAP
88
88
88
F8
88
88
78
ENDCHAR
STARTCHAR 028A
ENCODING 650
SWIDTH 504 0
DWIDTH 7 0
BBX 6 7 1 0
BITMAP
CC
88
88
84
84
88
70
ENDCHAR
STARTCHAR 028B
ENCODING 651
SWIDTH 504 0
DWIDTH 7 0
BBX 5 7 1 0
BITMAP
98
88
88
88
88
88
70
ENDCHAR
STARTCHAR 028C
ENCODING 652
SWIDTH 432 0
DWIDTH 6 0
BBX 6 7 0 0
BITMAP
30
30
50
48
48
88
84
ENDCHAR
STARTCHAR 028D
ENCODING 653
SWIDTH 720 0
DWIDTH 10 0
BBX 9 7 0 0
BITMAP
2200
6300
5500
5500
5500
9880
8880
ENDCHAR
STARTCHAR 028E
ENCODING 654
SWIDTH 432 0
DWIDTH 6 0
BBX 6 10 0 0
BITMAP
0C
10
20
20
30
50
50
48
88
84
ENDCHAR
STARTCHAR 028F
ENCODING 655
SWIDTH 360 0
DWIDTH 5 0
BBX 5 7 0 0
BITMAP
80
88
50
50
20
20
20
ENDCHAR
STARTCHAR 0290
ENCODING 656
SWIDTH 432 0
DWIDTH 6 0
BBX 6 10 0 -3
BITMAP
78
10
10
20
40
40
F8
08
08
04
ENDCHAR
STARTCHAR 0291
ENCODING 657
SWIDTH 432 0
DWIDTH 6 0
BBX 6 8 0 -1
BITMAP
78
10
10
20
40
5C
FC
20
ENDCHAR
STARTCHAR 0292
ENCODING 658
SWIDTH 432 0
DWIDTH 6 0
BBX 4 10 1 -3
BITMAP
F0
20
20
40
80
70
10
10
10
E0
ENDCHAR
STARTCHAR 0294
ENCODING 660
SWIDTH 432 0
DWIDTH 6 0
BBX 5 10 0 0
BITMAP
70
88
08
08
08
30
20
20
20
20
ENDCHAR
STARTCHAR 0295
ENCODING 661
SWIDTH 432 0
DWIDTH 6 0
BBX 5 10 0 0
BITMAP
78
80
80
80
40
20
20
20
20
20
ENDCHAR
STARTCHAR 0298
ENCODING 664
SWIDTH 504 0
DWIDTH 7 0
BBX 5 10 1 0
BITMAP
70
88
88
88
A8
88
88
88
88
70
ENDCHAR
STARTCHAR 0299
ENCODING 665
SWIDTH 504 0
DWIDTH 7 0
BBX 5 7 1 0
BITMAP
F0
88
88
F8
88
88
F8
ENDCHAR
STARTCHAR 029C
ENCODING 668
SWIDTH 576 0
DWIDTH 8 0
BBX 5 6 1 0
BITMAP
88
88
F8
88
88
88
ENDCHAR
STARTCHAR 029D
ENCODING 669
SWIDTH 216 0
DWIDTH 3 0
BBX 4 12 -1 -4
BITMAP
20
00
00
20
20
20
20
20
20
20
E0
D0
ENDCHAR
STARTCHAR 029F
ENCODING 671
SWIDTH 432 0
DWIDTH 6 0
BBX 4 7 1 0
BITMAP
80
80
80
80
80
80
F0
ENDCHAR
STARTCHAR 02A1
ENCODING 673
SWIDTH 432 0
DWIDTH 6 0
BBX 6 10 0 0
BITMAP
70
88
08
08
08
7C
20
20
20
20
ENDCHAR
STARTCHAR 02A2
ENCODING 674
SWIDTH 432 0
DWIDTH 6 0
BBX 5 10 0 0
BITMAP
78
80
80
80
40
F8
10
10
10
10
ENDCHAR
STARTCHAR 02B0
ENCODING 688
SWIDTH 360 0
DWIDTH 5 0
BBX 3 6 1 5
BITMAP
80
80
E0
A0
A0
A0
ENDCHAR
STARTCHAR 02B2
ENCODING 690
SWIDTH 144 0
DWIDTH 2 0
BBX 2 8 0 4
BITMAP
40
00
80
80
80
80
80
80
ENDCHAR
STARTCHAR 02B3
ENCODING 691
SWIDTH 216 0
DWIDTH 3 0
BBX 2 4 1 5
BITMAP
40
80
80
80
ENDCHAR
STARTCHAR 02B7
ENCODING 695
SWIDTH 432 0
DWIDTH 6 0
BBX 6 4 0 6
BITMAP
94
94
B4
58
ENDCHAR
STARTCHAR 02B8
ENCODING 696
SWIDTH 288 0
DWIDTH 4 0
BBX 4 6 0 4
BITMAP
90
90
60
60
20
40
ENDCHAR
STARTCHAR 02B9
ENCODING 697
SWIDTH 216 0
DWIDTH 3 0
BBX 1 3 1 7
BITMAP
80
80
80
ENDCHAR
STARTCHAR 02BB
ENCODING 699
SWIDTH 216 0
DWIDTH 3 0
BBX 1 3 1 7
BITMAP
80
80
80
ENDCHAR
STARTCHAR 02BC
ENCODING 700
SWIDTH 216 0
DWIDTH 3 0
BBX 1 3 1 7
BITMAP
80
80
80
ENDCHAR
STARTCHAR 02BE
ENCODING 702
SWIDTH 144 0
DWIDTH 2 0
BBX 1 2 1 8
BITMAP
80
80
ENDCHAR
STARTCHAR 02BF
ENCODING 703
SWIDTH 144 0
DWIDTH 2 0
BBX 1 2 0 8
BITMAP
80
80
ENDCHAR
STARTCHAR 02C1
ENCODING 705
SWIDTH 288 0
DWIDTH 4 0
BBX 4 6 0 6
BITMAP
F0
80
80
40
40
40
ENDCHAR
STARTCHAR 02C6
ENCODING 710
SWIDTH 504 0
DWIDTH 7 0
BBX 3 2 2 8
BITMAP
40
A0
ENDCHAR
STARTCHAR 02C7
ENCODING 711
SWIDTH 504 0
DWIDTH 7 0
BBX 3 2 2 8
BITMAP
A0
40
ENDCHAR
STARTCHAR 02C8
ENCODING 712
SWIDTH 72 0
DWIDTH 1 0
BBX 1 3 0 7
BITMAP
80
80
80
ENDCHAR
STARTCHAR 02C9
ENCODING 713
SWIDTH 288 0
DWIDTH 4 0
BBX 3 1 0 8
BITMAP
E0
ENDCHAR
STARTCHAR 02CA
ENCODING 714
SWIDTH 216 0
DWIDTH 3 0
BBX 2 2 1 8
BITMAP
40
80
ENDCHAR
STARTCHAR 02CB
ENCODING 715
SWIDTH 216 0
DWIDTH 3 0
BBX 2 2 0 8
BITMAP
80
40
ENDCHAR
STARTCHAR 02CC
ENCODING 716
SWIDTH 72 0
DWIDTH 1 0
BBX 1 3 0 -4
BITMAP
80
80
80
ENDCHAR
STARTCHAR 02D0
ENCODING 720
SWIDTH 216 0
DWIDTH 3 0
BBX 1 6 1 0
BITMAP
80
00
00
00
00
80
ENDCHAR
STARTCHAR 02D1
ENCODING 721
SWIDTH 216 0
DWIDTH 3 0
BBX 1 1 1 4
BITMAP
80
ENDCHAR
STARTCHAR 02D8
ENCODING 728
SWIDTH 504 0
DWIDTH 7 0
BBX 4 2 2 8
BITMAP
90
E0
ENDCHAR
STARTCHAR 02D9
ENCODING 729
SWIDTH 504 0
DWIDTH 7 0
BBX 1 1 3 8
BITMAP
80
ENDCHAR
STARTCHAR 02DA
ENCODING 730
SWIDTH 504 0
DWIDTH 7 0
BBX 3 2 2 8
BITMAP
E0
E0
ENDCHAR
STARTCHAR 02DB
ENCODING 731
SWIDTH 504 0
DWIDTH 7 0
BBX 2 2 3 -2
BITMAP
80
C0
ENDCHAR
STARTCHAR 02DC
ENCODING 732
SWIDTH 504 0
DWIDTH 7 0
BBX 5 2 1 8
BITMAP
68
98
ENDCHAR
STARTCHAR 02DD
ENCODING 733
SWIDTH 504 0
DWIDTH 7 0
BBX 3 1 3 9
BITMAP
A0
ENDCHAR
STARTCHAR 02DE
ENCODING 734
SWIDTH 144 0
DWIDTH 2 0
BBX 3 2 -1 3
BITMAP
C0
60
ENDCHAR
STARTCHAR 02E0
ENCODING 736
SWIDTH 288 0
DWIDTH 4 0
BBX 4 6 0 4
BITMAP
90
A0
60
20
60
60
ENDCHAR
STARTCHAR 02E1
ENCODING 737
SWIDTH 144 0
DWIDTH 2 0
BBX 1 6 1 6
BITMAP
80
80
80
80
80
80
ENDCHAR
STARTCHAR 02E2
ENCODING 738
SWIDTH 288 0
DWIDTH 4 0
BBX 3 4 0 6
BITMAP
60
80
60
60
ENDCHAR
STARTCHAR 02E3
ENCODING 739
SWIDTH 288 0
DWIDTH 4 0
BBX 3 4 0 6
BITMAP
A0
60
60
A0
ENDCHAR
STARTCHAR 0300
ENCODING 768
SWIDTH 0 0
DWIDTH 0 0
BBX 2 2 -1 8
BITMAP
80
40
ENDCHAR
STARTCHAR 0301
ENCODING 769
SWIDTH 0 0
DWIDTH 0 0
BBX 2 2 -1 8
BITMAP
40
80
ENDCHAR
STARTCHAR 0302
ENCODING 770
SWIDTH 0 0
DWIDTH 0 0
BBX 4 2 -2 8
BITMAP
60
90
ENDCHAR
STARTCHAR 0303
ENCODING 771
SWIDTH 0 0
DWIDTH 0 0
BBX 4 2 -2 8
BITMAP
C0
30
ENDCHAR
STARTCHAR 0304
ENCODING 772
SWIDTH 0 0
DWIDTH 0 0
BBX 4 1 -2 8
BITMAP
F0
ENDCHAR
STARTCHAR 0305
ENCODING 773
SWIDTH 0 0
DWIDTH 0 0
BBX 4 1 -2 8
BITMAP
F0
ENDCHAR
STARTCHAR 0306
ENCODING 774
SWIDTH 0 0
DWIDTH 0 0
BBX 4 2 -2 8
BITMAP
90
60
ENDCHAR
STARTCHAR 0307
ENCODING 775
SWIDTH 0 0
DWIDTH 0 0
BBX 2 1 -1 8
BITMAP
C0
ENDCHAR
STARTCHAR 0308
ENCODING 776
SWIDTH 0 0
DWIDTH 0 0
BBX 4 1 -2 8
BITMAP
90
ENDCHAR
STARTCHAR 0309
ENCODING 777
SWIDTH 0 0
DWIDTH 0 0
BBX 1 1 0 8
BITMAP
80
ENDCHAR
STARTCHAR 030A
ENCODING 778
SWIDTH 0 0
DWIDTH 0 0
BBX 2 2 -1 8
BITMAP
C0
C0
ENDCHAR
STARTCHAR 030B
ENCODING 779
SWIDTH 0 0
DWIDTH 0 0
BBX 3 2 -1 9
BITMAP
A0
80
ENDCHAR
STARTCHAR 030C
ENCODING 780
SWIDTH 0 0
DWIDTH 0 0
BBX 4 2 -2 8
BITMAP
90
60
ENDCHAR
STARTCHAR 030F
ENCODING 783
SWIDTH 0 0
DWIDTH 0 0
BBX 3 2 -2 9
BITMAP
C0
20
ENDCHAR
STARTCHAR 0311
ENCODING 785
SWIDTH 0 0
DWIDTH 0 0
BBX 4 2 -2 8
BITMAP
60
90
ENDCHAR
STARTCHAR 0312
ENCODING 786
SWIDTH 0 0
DWIDTH 0 0
BBX 1 1 -1 9
BITMAP
80
ENDCHAR
STARTCHAR 0313
ENCODING 787
SWIDTH 0 0
DWIDTH 0 0
BBX 1 1 0 8
BITMAP
80
ENDCHAR
STARTCHAR 0318
ENCODING 792
SWIDTH 0 0
DWIDTH 0 0
BBX 0 0 -1 -3
BITMAP
ENDCHAR
STARTCHAR 0319
ENCODING 793
SWIDTH 0 0
DWIDTH 0 0
BBX 0 0 -1 -3
BITMAP
ENDCHAR
STARTCHAR 031A
ENCODING 794
SWIDTH 0 0
DWIDTH 0 0
BBX 0 0 -1 8
BITMAP
ENDCHAR
STARTCHAR 031B
ENCODING 795
SWIDTH 0 0
DWIDTH 0 0
BBX 2 3 0 6
BITMAP
40
40
80
ENDCHAR
STARTCHAR 031C
ENCODING 796
SWIDTH 0 0
DWIDTH 0 0
BBX 1 2 -1 -3
BITMAP
80
80
ENDCHAR
STARTCHAR 031D
ENCODING 797
SWIDTH 0 0
DWIDTH 0 0
BBX 0 0 -1 -3
BITMAP
ENDCHAR
STARTCHAR 031E
ENCODING 798
SWIDTH 0 0
DWIDTH 0 0
BBX 0 0 -1 -3
BITMAP
ENDCHAR
STARTCHAR 031F
ENCODING 799
SWIDTH 0 0
DWIDTH 0 0
BBX 0 0 -1 -3
BITMAP
ENDCHAR
STARTCHAR 0320
ENCODING 800
SWIDTH 0 0
DWIDTH 0 0
BBX 0 0 -1 -3
BITMAP
ENDCHAR
STARTCHAR 0323
ENCODING 803
SWIDTH 0 0
DWIDTH 0 0
BBX 2 1 -1 -3
BITMAP
C0
ENDCHAR
STARTCHAR 0324
ENCODING 804
SWIDTH 0 0
DWIDTH 0 0
BBX 4 1 -2 -3
BITMAP
90
ENDCHAR
STARTCHAR 0325
ENCODING 805
SWIDTH 0 0
DWIDTH 0 0
BBX 2 2 -1 -3
BITMAP
C0
C0
ENDCHAR
STARTCHAR 0326
ENCODING 806
SWIDTH 0 0
DWIDTH 0 0
BBX 2 2 -1 -3
BITMAP
40
C0
ENDCHAR
STARTCHAR 0327
ENCODING 807
SWIDTH 0 0
DWIDTH 0 0
BBX 2 3 -1 -3
BITMAP
80
40
C0
ENDCHAR
STARTCHAR 0328
ENCODING 808
SWIDTH 0 0
DWIDTH 0 0
BBX 1 2 -1 -2
BITMAP
80
80
ENDCHAR
STARTCHAR 0329
ENCODING 809
SWIDTH 0 0
DWIDTH 0 0
BBX 1 1 -1 -3
BITMAP
80
ENDCHAR
STARTCHAR 032A
ENCODING 810
SWIDTH 0 0
DWIDTH 0 0
BBX 4 2 -2 -3
BITMAP
F0
90
ENDCHAR
STARTCHAR 032C
ENCODING 812
SWIDTH 0 0
DWIDTH 0 0
BBX 4 2 -2 -3
BITMAP
90
60
ENDCHAR
STARTCHAR 032E
ENCODING 814
SWIDTH 0 0
DWIDTH 0 0
BBX 4 2 -2 -3
BITMAP
90
60
ENDCHAR
STARTCHAR 032F
ENCODING 815
SWIDTH 0 0
DWIDTH 0 0
BBX 4 2 -2 -3
BITMAP
60
90
ENDCHAR
STARTCHAR 0330
ENCODING 816
SWIDTH 0 0
DWIDTH 0 0
BBX 4 2 -2 -3
BITMAP
C0
30
ENDCHAR
STARTCHAR 0331
ENCODING 817
SWIDTH 0 0
DWIDTH 0 0
BBX 2 1 -1 -2
BITMAP
C0
ENDCHAR
STARTCHAR 0334
ENCODING 820
SWIDTH 0 0
DWIDTH 0 0
BBX 4 1 -2 3
BITMAP
F0
ENDCHAR
STARTCHAR 0339
ENCODING 825
SWIDTH 0 0
DWIDTH 0 0
BBX 1 2 0 -3
BITMAP
80
80
ENDCHAR
STARTCHAR 033A
ENCODING 826
SWIDTH 0 0
DWIDTH 0 0
BBX 4 2 -2 -3
BITMAP
90
F0
ENDCHAR
STARTCHAR 033B
ENCODING 827
SWIDTH 0 0
DWIDTH 0 0
BBX 4 2 -2 -3
BITMAP
F0
F0
ENDCHAR
STARTCHAR 033C
ENCODING 828
SWIDTH 0 0
DWIDTH 0 0
BBX 4 2 -2 -3
BITMAP
F0
40
ENDCHAR
STARTCHAR 033D
ENCODING 829
SWIDTH 0 0
DWIDTH 0 0
BBX 2 2 -1 8
BITMAP
C0
C0
ENDCHAR
STARTCHAR 0342
ENCODING 834
SWIDTH 0 0
DWIDTH 0 0
BBX 4 2 -2 8
BITMAP
C0
30
ENDCHAR
STARTCHAR 0345
ENCODING 837
SWIDTH 0 0
DWIDTH 0 0
BBX 1 1 0 -2
BITMAP
80
ENDCHAR
STARTCHAR 0361
ENCODING 865
SWIDTH 0 0
DWIDTH 0 0
BBX 12 2 -6 8
BITMAP
1F80
E070
ENDCHAR
STARTCHAR 0374
ENCODING 884
SWIDTH 216 0
DWIDTH 3 0
BBX 1 3 1 7
BITMAP
80
80
80
ENDCHAR
STARTCHAR 0375
ENCODING 885
SWIDTH 216 0
DWIDTH 3 0
BBX 1 3 1 0
BITMAP
80
80
80
ENDCHAR
STARTCHAR 037A
ENCODING 890
SWIDTH 504 0
DWIDTH 7 0
BBX 1 1 4 -2
BITMAP
80
ENDCHAR
STARTCHAR 037E
ENCODING 894
SWIDTH 216 0
DWIDTH 3 0
BBX 1 8 1 -2
BITMAP
80
00
00
00
00
80
80
80
ENDCHAR
STARTCHAR 0384
ENCODING 900
SWIDTH 504 0
DWIDTH 7 0
BBX 2 3 3 8
BITMAP
40
80
80
ENDCHAR
STARTCHAR 0385
ENCODING 901
SWIDTH 504 0
DWIDTH 7 0
BBX 4 2 2 9
BITMAP
40
90
ENDCHAR
STARTCHAR 0386
ENCODING 902
SWIDTH 504 0
DWIDTH 7 0
BBX 7 10 0 0
BITMAP
90
A8
A8
28
28
44
7C
44
82
82
ENDCHAR
STARTCHAR 0387
ENCODING 903
SWIDTH 216 0
DWIDTH 3 0
BBX 1 1 1 5
BITMAP
80
ENDCHAR
STARTCHAR 0388
ENCODING 904
SWIDTH 576 0
DWIDTH 8 0
BBX 7 10 0 0
BITMAP
BE
C0
40
40
3C
40
40
40
40
3E
ENDCHAR
STARTCHAR 0389
ENCODING 905
SWIDTH 648 0
DWIDTH 9 0
BBX 8 10 0 0
BITMAP
C1
C1
41
41
3F
41
41
41
41
41
ENDCHAR
STARTCHAR 038A
ENCODING 906
SWIDTH 288 0
DWIDTH 4 0
BBX 2 10 0 0
BITMAP
C0
C0
40
40
40
40
40
40
40
40
ENDCHAR
STARTCHAR 038C
ENCODING 908
SWIDTH 648 0
DWIDTH 9 0
BBX 9 10 0 0
BITMAP
9E00
A100
4100
4100
4080
4080
4100
4100
2100
1E00
ENDCHAR
STARTCHAR 038E
ENCODING 910
SWIDTH 504 0
DWIDTH 7 0
BBX 7 10 0 0
BITMAP
C2
A2
24
14
18
08
08
08
08
08
ENDCHAR
STARTCHAR 038F
ENCODING 911
SWIDTH 648 0
DWIDTH 9 0
BBX 9 10 0 0
BITMAP
9E00
A100
4100
4100
4080
4080
4100
4100
2100
7380
ENDCHAR
STARTCHAR 0390
ENCODING 912
SWIDTH 216 0
DWIDTH 3 0
BBX 3 11 0 0
BITMAP
40
C0
40
00
40
40
40
40
40
40
60
ENDCHAR
STARTCHAR 0391
ENCODING 913
SWIDTH 504 0
DWIDTH 7 0
BBX 7 10 0 0
BITMAP
10
30
28
28
48
44
7C
44
82
82
ENDCHAR
STARTCHAR 0392
ENCODING 914
SWIDTH 576 0
DWIDTH 8 0
BBX 6 10 1 0
BITMAP
F8
84
84
84
F8
84
84
84
84
F8
ENDCHAR
STARTCHAR 0393
ENCODING 915
SWIDTH 504 0
DWIDTH 7 0
BBX 5 10 1 0
BITMAP
F8
80
80
80
80
80
80
80
80
80
ENDCHAR
STARTCHAR 0394
ENCODING 916
SWIDTH 576 0
DWIDTH 8 0
BBX 7 10 0 0
BITMAP
10
18
28
28
24
44
44
42
82
FE
ENDCHAR
STARTCHAR 0395
ENCODING 917
SWIDTH 504 0
DWIDTH 7 0
BBX 5 10 1 0
BITMAP
F8
80
80
80
F8
80
80
80
80
F8
ENDCHAR
STARTCHAR 0396
ENCODING 918
SWIDTH 504 0
DWIDTH 7 0
BBX 6 10 1 0
BITMAP
FC
08
08
10
20
20
40
40
80
FC
ENDCHAR
STARTCHAR 0397
ENCODING 919
SWIDTH 648 0
DWIDTH 9 0
BBX 7 10 1 0
BITMAP
82
82
82
82
FE
82
82
82
82
82
ENDCHAR
STARTCHAR 0398
ENCODING 920
SWIDTH 648 0
DWIDTH 9 0
BBX 7 10 1 0
BITMAP
38
44
82
82
BA
82
82
82
84
78
ENDCHAR
STARTCHAR 0399
ENCODING 921
SWIDTH 216 0
DWIDTH 3 0
BBX 1 10 1 0
BITMAP
80
80
80
80
80
80
80
80
80
80
ENDCHAR
STARTCHAR 039A
ENCODING 922
SWIDTH 576 0
DWIDTH 8 0
BBX 6 10 1 0
BITMAP
84
88
90
A0
B0
D0
88
88
84
84
ENDCHAR
STARTCHAR 039B
ENCODING 923
SWIDTH 504 0
DWIDTH 7 0
BBX 7 10 0 0
BITMAP
10
30
30
28
48
48
44
84
84
82
ENDCHAR
STARTCHAR 039C
ENCODING 924
SWIDTH 720 0
DWIDTH 10 0
BBX 7 10 1 0
BITMAP
82
C2
C6
C6
A6
AA
AA
9A
82
82
ENDCHAR
STARTCHAR 039D
ENCODING 925
SWIDTH 648 0
DWIDTH 9 0
BBX 6 10 1 0
BITMAP
84
C4
C4
A4
A4
94
8C
8C
84
84
ENDCHAR
STARTCHAR 039E
ENCODING 926
SWIDTH 504 0
DWIDTH 7 0
BBX 5 10 1 0
BITMAP
F8
00
00
00
70
00
00
00
00
F8
ENDCHAR
STARTCHAR 039F
ENCODING 927
SWIDTH 648 0
DWIDTH 9 0
BBX 7 10 1 0
BITMAP
38
C4
82
82
82
82
82
82
44
38
ENDCHAR
STARTCHAR 03A0
ENCODING 928
SWIDTH 648 0
DWIDTH 9 0
BBX 6 10 1 0
BITMAP
FC
84
84
84
84
84
84
84
84
84
ENDCHAR
STARTCHAR 03A1
ENCODING 929
SWIDTH 576 0
DWIDTH 8 0
BBX 6 10 1 0
BITMAP
F8
84
84
84
88
F0
80
80
80
80
ENDCHAR
STARTCHAR 03A3
ENCODING 931
SWIDTH 504 0
DWIDTH 7 0
BBX 6 10 1 0
BITMAP
F8
80
40
20
20
20
20
40
80
FC
ENDCHAR
STARTCHAR 03A4
ENCODING 932
SWIDTH 504 0
DWIDTH 7 0
BBX 7 10 0 0
BITMAP
FE
10
10
10
10
10
10
10
10
10
ENDCHAR
STARTCHAR 03A5
ENCODING 933
SWIDTH 432 0
DWIDTH 6 0
BBX 6 10 0 0
BITMAP
84
88
48
48
30
10
20
20
20
20
ENDCHAR
STARTCHAR 03A6
ENCODING 934
SWIDTH 720 0
DWIDTH 10 0
BBX 8 9 1 0
BITMAP
10
7C
92
91
91
91
92
7C
10
ENDCHAR
STARTCHAR 03A7
ENCODING 935
SWIDTH 504 0
DWIDTH 7 0
BBX 6 10 0 0
BITMAP
84
48
48
30
10
10
28
48
44
84
ENDCHAR
STARTCHAR 03A8
ENCODING 936
SWIDTH 648 0
DWIDTH 9 0
BBX 7 10 1 0
BITMAP
92
92
92
92
92
7C
10
10
10
10
ENDCHAR
STARTCHAR 03A9
ENCODING 937
SWIDTH 648 0
DWIDTH 9 0
BBX 8 10 1 0
BITMAP
38
44
82
82
82
82
82
82
44
E7
ENDCHAR
STARTCHAR 03AA
ENCODING 938
SWIDTH 216 0
DWIDTH 3 0
BBX 4 12 0 0
BITMAP
90
00
40
40
40
40
40
40
40
40
40
40
ENDCHAR
STARTCHAR 03AB
ENCODING 939
SWIDTH 432 0
DWIDTH 6 0
BBX 6 12 0 0
BITMAP
48
00
84
88
48
48
30
10
20
20
20
20
ENDCHAR
STARTCHAR 03AC
ENCODING 940
SWIDTH 576 0
DWIDTH 8 0
BBX 6 11 1 0
BITMAP
10
10
20
00
74
88
88
88
88
88
74
ENDCHAR
STARTCHAR 03AD
ENCODING 941
SWIDTH 432 0
DWIDTH 6 0
BBX 4 10 1 1
BITMAP
20
20
00
70
80
80
60
80
80
F0
ENDCHAR
STARTCHAR 03AE
ENCODING 942
SWIDTH 504 0
DWIDTH 7 0
BBX 5 12 1 -2
BITMAP
10
10
20
00
B8
C8
88
88
88
88
88
08
ENDCHAR
STARTCHAR 03AF
ENCODING 943
SWIDTH 216 0
DWIDTH 3 0
BBX 2 11 1 0
BITMAP
40
80
80
00
80
80
80
80
80
80
C0
ENDCHAR
STARTCHAR 03B0
ENCODING 944
SWIDTH 504 0
DWIDTH 7 0
BBX 5 11 1 0
BITMAP
20
B0
00
00
88
88
88
88
88
88
70
ENDCHAR
STARTCHAR 03B1
ENCODING 945
SWIDTH 576 0
DWIDTH 8 0
BBX 6 7 1 0
BITMAP
74
88
88
88
88
88
74
ENDCHAR
STARTCHAR 03B2
ENCODING 946
SWIDTH 576 0
DWIDTH 8 0
BBX 6 12 1 -2
BITMAP
70
88
88
88
B0
88
84
84
84
F8
80
80
ENDCHAR
STARTCHAR 03B3
ENCODING 947
SWIDTH 432 0
DWIDTH 6 0
BBX 6 8 0 -2
BITMAP
84
44
48
48
28
30
10
20
ENDCHAR
STARTCHAR 03B4
ENCODING 948
SWIDTH 504 0
DWIDTH 7 0
BBX 5 10 1 0
BITMAP
78
80
40
20
50
88
88
88
88
70
ENDCHAR
STARTCHAR 03B5
ENCODING 949
SWIDTH 432 0
DWIDTH 6 0
BBX 4 7 1 0
BITMAP
70
80
80
60
80
80
F0
ENDCHAR
STARTCHAR 03B6
ENCODING 950
SWIDTH 432 0
DWIDTH 6 0
BBX 4 12 1 -3
BITMAP
F0
20
40
40
80
80
80
80
80
40
30
10
ENDCHAR
STARTCHAR 03B7
ENCODING 951
SWIDTH 504 0
DWIDTH 7 0
BBX 5 8 1 -2
BITMAP
B8
C8
88
88
88
88
88
08
ENDCHAR
STARTCHAR 03B8
ENCODING 952
SWIDTH 504 0
DWIDTH 7 0
BBX 5 10 1 0
BITMAP
70
88
88
88
F8
88
88
88
88
70
ENDCHAR
STARTCHAR 03B9
ENCODING 953
SWIDTH 216 0
DWIDTH 3 0
BBX 2 7 1 0
BITMAP
80
80
80
80
80
80
C0
ENDCHAR
STARTCHAR 03BA
ENCODING 954
SWIDTH 432 0
DWIDTH 6 0
BBX 5 7 1 0
BITMAP
88
90
A0
E0
90
90
88
ENDCHAR
STARTCHAR 03BB
ENCODING 955
SWIDTH 432 0
DWIDTH 6 0
BBX 6 10 0 0
BITMAP
C0
20
10
10
30
28
48
48
84
84
ENDCHAR
STARTCHAR 03BC
ENCODING 956
SWIDTH 576 0
DWIDTH 8 0
BBX 6 9 1 -2
BITMAP
88
88
88
88
88
88
F4
80
80
ENDCHAR
STARTCHAR 03BD
ENCODING 957
SWIDTH 432 0
DWIDTH 6 0
BBX 6 7 0 0
BITMAP
84
44
48
48
28
30
10
ENDCHAR
STARTCHAR 03BE
ENCODING 958
SWIDTH 432 0
DWIDTH 6 0
BBX 6 12 0 -3
BITMAP
FC
40
40
40
38
60
40
80
40
20
1C
04
ENDCHAR
STARTCHAR 03BF
ENCODING 959
SWIDTH 504 0
DWIDTH 7 0
BBX 6 7 1 0
BITMAP
70
88
88
84
88
88
70
ENDCHAR
STARTCHAR 03C0
ENCODING 960
SWIDTH 576 0
DWIDTH 8 0
BBX 7 7 0 0
BITMAP
FE
44
44
44
44
44
46
ENDCHAR
STARTCHAR 03C1
ENCODING 961
SWIDTH 504 0
DWIDTH 7 0
BBX 6 9 1 -2
BITMAP
78
88
84
84
84
88
F0
80
80
ENDCHAR
STARTCHAR 03C2
ENCODING 962
SWIDTH 432 0
DWIDTH 6 0
BBX 4 9 1 -2
BITMAP
70
80
80
80
80
80
70
10
10
ENDCHAR
STARTCHAR 03C3
ENCODING 963
SWIDTH 504 0
DWIDTH 7 0
BBX 6 7 1 0
BITMAP
7C
88
88
88
88
88
70
ENDCHAR
STARTCHAR 03C4
ENCODING 964
SWIDTH 432 0
DWIDTH 6 0
BBX 6 7 0 0
BITMAP
FC
20
20
20
20
20
18
ENDCHAR
STARTCHAR 03C5
ENCODING 965
SWIDTH 504 0
DWIDTH 7 0
BBX 5 7 1 0
BITMAP
88
88
88
88
88
88
70
ENDCHAR
STARTCHAR 03C6
ENCODING 966
SWIDTH 648 0
DWIDTH 9 0
BBX 7 11 1 -2
BITMAP
10
10
7C
92
92
92
92
92
7C
10
10
ENDCHAR
STARTCHAR 03C7
ENCODING 967
SWIDTH 432 0
DWIDTH 6 0
BBX 6 9 0 -2
BITMAP
84
48
48
30
10
30
48
48
04
ENDCHAR
STARTCHAR 03C8
ENCODING 968
SWIDTH 648 0
DWIDTH 9 0
BBX 7 11 1 -2
BITMAP
10
10
92
92
92
92
92
92
7C
10
10
ENDCHAR
STARTCHAR 03C9
ENCODING 969
SWIDTH 648 0
DWIDTH 9 0
BBX 8 7 1 0
BITMAP
42
82
82
91
91
92
6E
ENDCHAR
STARTCHAR 03CA
ENCODING 970
SWIDTH 216 0
DWIDTH 3 0
BBX 3 10 0 0
BITMAP
A0
00
00
40
40
40
40
40
40
60
ENDCHAR
STARTCHAR 03CB
ENCODING 971
SWIDTH 504 0
DWIDTH 7 0
BBX 5 9 1 0
BITMAP
D0
00
88
88
88
88
88
88
70
ENDCHAR
STARTCHAR 03CC
ENCODING 972
SWIDTH 504 0
DWIDTH 7 0
BBX 6 11 1 0
BITMAP
10
20
20
00
70
88
88
84
88
88
70
ENDCHAR
STARTCHAR 03CD
ENCODING 973
SWIDTH 504 0
DWIDTH 7 0
BBX 5 10 1 1
BITMAP
20
20
00
88
88
88
88
88
88
70
ENDCHAR
STARTCHAR 03CE
ENCODING 974
SWIDTH 648 0
DWIDTH 9 0
BBX 8 11 1 0
BITMAP
08
10
10
00
42
82
82
91
91
92
6E
ENDCHAR
STARTCHAR 03D0
ENCODING 976
SWIDTH 576 0
DWIDTH 8 0
BBX 6 10 1 0
BITMAP
70
88
88
88
B0
D8
84
84
84
78
ENDCHAR
STARTCHAR 03D1
ENCODING 977
SWIDTH 504 0
DWIDTH 7 0
BBX 5 10 1 0
BITMAP
70
88
88
88
68
18
88
88
88
70
ENDCHAR
STARTCHAR 03D5
ENCODING 981
SWIDTH 648 0
DWIDTH 9 0
BBX 7 9 1 -2
BITMAP
4C
92
92
92
92
92
7C
10
10
ENDCHAR
STARTCHAR 03D7
ENCODING 983
SWIDTH 432 0
DWIDTH 6 0
BBX 5 9 1 -2
BITMAP
88
90
A0
E0
90
90
88
08
10
ENDCHAR
STARTCHAR 03D9
ENCODING 985
SWIDTH 504 0
DWIDTH 7 0
BBX 6 9 1 -2
BITMAP
70
88
88
84
88
88
70
20
20
ENDCHAR
STARTCHAR 03DB
ENCODING 987
SWIDTH 432 0
DWIDTH 6 0
BBX 5 9 1 -2
BITMAP
78
80
80
80
80
80
70
10
10
ENDCHAR
STARTCHAR 03DD
ENCODING 989
SWIDTH 432 0
DWIDTH 6 0
BBX 4 9 1 -2
BITMAP
F0
80
80
80
F0
80
80
80
80
ENDCHAR
STARTCHAR 03E1
ENCODING 993
SWIDTH 504 0
DWIDTH 7 0
BBX 5 12 1 -2
BITMAP
80
40
20
10
10
68
88
38
C8
08
08
08
ENDCHAR
STARTCHAR 0400
ENCODING 1024
SWIDTH 504 0
DWIDTH 7 0
BBX 5 12 1 1
BITMAP
20
00
F8
80
80
80
F8
80
80
80
80
F8
ENDCHAR
STARTCHAR 0401
ENCODING 1025
SWIDTH 504 0
DWIDTH 7 0
BBX 5 12 1 0
BITMAP
48
00
F8
80
80
80
F8
80
80
80
80
F8
ENDCHAR
STARTCHAR 0402
ENCODING 1026
SWIDTH 648 0
DWIDTH 9 0
BBX 9 10 0 0
BITMAP
FE00
1000
1000
1000
1E00
1100
1080
1080
1100
1700
ENDCHAR
STARTCHAR 0403
ENCODING 1027
SWIDTH 504 0
DWIDTH 7 0
BBX 5 12 1 1
BITMAP
10
00
F8
80
80
80
80
80
80
80
80
80
ENDCHAR
STARTCHAR 0404
ENCODING 1028
SWIDTH 576 0
DWIDTH 8 0
BBX 6 10 1 0
BITMAP
38
C4
80
80
F8
80
80
80
80
7C
ENDCHAR
STARTCHAR 0405
ENCODING 1029
SWIDTH 504 0
DWIDTH 7 0
BBX 6 10 1 0
BITMAP
78
80
80
80
60
18
04
04
08
F8
ENDCHAR
STARTCHAR 0406
ENCODING 1030
SWIDTH 216 0
DWIDTH 3 0
BBX 1 10 1 0
BITMAP
80
80
80
80
80
80
80
80
80
80
ENDCHAR
STARTCHAR 0407
ENCODING 1031
SWIDTH 216 0
DWIDTH 3 0
BBX 4 12 0 0
BITMAP
90
00
40
40
40
40
40
40
40
40
40
40
ENDCHAR
STARTCHAR 0408
ENCODING 1032
SWIDTH 432 0
DWIDTH 6 0
BBX 4 10 1 0
BITMAP
10
10
10
10
10
10
10
10
10
E0
ENDCHAR
STARTCHAR 0409
ENCODING 1033
SWIDTH 864 0
DWIDTH 12 0
BBX 12 10 0 0
BITMAP
1E00
2200
2200
2200
2380
2260
2210
4210
4220
C3E0
ENDCHAR
STARTCHAR 040A
ENCODING 1034
SWIDTH 936 0
DWIDTH 13 0
BBX 11 10 1 0
BITMAP
8400
8400
8400
8400
FF80
8460
8420
8420
8420
83C0
ENDCHAR
STARTCHAR 040B
ENCODING 1035
SWIDTH 648 0
DWIDTH 9 0
BBX 8 10 0 0
BITMAP
FE
10
10
10
1E
11
11
11
11
11
ENDCHAR
STARTCHAR 040C
ENCODING 1036
SWIDTH 576 0
DWIDTH 8 0
BBX 6 13 1 0
BITMAP
08
10
00
84
88
88
90
F0
90
90
88
84
84
ENDCHAR
STARTCHAR 040D
ENCODING 1037
SWIDTH 648 0
DWIDTH 9 0
BBX 7 13 1 0
BITMAP
20
10
00
82
86
8A
8A
92
92
A2
C2
C2
82
ENDCHAR
STARTCHAR 040E
ENCODING 1038
SWIDTH 504 0
DWIDTH 7 0
BBX 7 12 0 0
BITMAP
48
30
82
84
44
48
28
28
30
10
10
60
ENDCHAR
STARTCHAR 040F
ENCODING 1039
SWIDTH 648 0
DWIDTH 9 0
BBX 6 13 1 -3
BITMAP
84
84
84
84
84
84
84
84
84
FC
10
10
10
ENDCHAR
STARTCHAR 0410
ENCODING 1040
SWIDTH 504 0
DWIDTH 7 0
BBX 7 10 0 0
BITMAP
10
30
28
28
48
44
7C
44
82
82
ENDCHAR
STARTCHAR 0411
ENCODING 1041
SWIDTH 576 0
DWIDTH 8 0
BBX 6 10 1 0
BITMAP
FC
80
80
80
E0
9C
84
84
84
F8
ENDCHAR
STARTCHAR 0412
ENCODING 1042
SWIDTH 576 0
DWIDTH 8 0
BBX 6 10 1 0
BITMAP
F8
84
84
84
F8
84
84
84
84
F8
ENDCHAR
STARTCHAR 0413
ENCODING 1043
SWIDTH 504 0
DWIDTH 7 0
BBX 5 10 1 0
BITMAP
F8
80
80
80
80
80
80
80
80
80
ENDCHAR
STARTCHAR 0414
ENCODING 1044
SWIDTH 648 0
DWIDTH 9 0
BBX 8 13 0 -3
BITMAP
1E
22
22
22
22
22
22
42
42
FF
81
81
01
ENDCHAR
STARTCHAR 0415
ENCODING 1045
SWIDTH 504 0
DWIDTH 7 0
BBX 5 10 1 0
BITMAP
F8
80
80
80
F8
80
80
80
80
F8
ENDCHAR
STARTCHAR 0416
ENCODING 1046
SWIDTH 792 0
DWIDTH 11 0
BBX 10 10 0 0
BITMAP
C440
4480
2480
2500
1F00
2500
2480
4480
4440
8440
ENDCHAR
STARTCHAR 0417
ENCODING 1047
SWIDTH 576 0
DWIDTH 8 0
BBX 6 10 1 0
BITMAP
78
88
08
08
70
08
04
04
04
F8
ENDCHAR
STARTCHAR 0418
ENCODING 1048
SWIDTH 648 0
DWIDTH 9 0
BBX 7 10 1 0
BITMAP
82
86
8A
8A
92
92
A2
C2
C2
82
ENDCHAR
STARTCHAR 0419
ENCODING 1049
SWIDTH 648 0
DWIDTH 9 0
BBX 7 12 1 0
BITMAP
48
30
82
86
8A
8A
92
92
A2
C2
C2
82
ENDCHAR
STARTCHAR 041A
ENCODING 1050
SWIDTH 576 0
DWIDTH 8 0
BBX 6 10 1 0
BITMAP
84
88
88
90
F0
90
90
88
84
84
ENDCHAR
STARTCHAR 041B
ENCODING 1051
SWIDTH 648 0
DWIDTH 9 0
BBX 7 10 0 0
BITMAP
1E
22
22
22
22
22
22
42
42
C2
ENDCHAR
STARTCHAR 041C
ENCODING 1052
SWIDTH 720 0
DWIDTH 10 0
BBX 7 10 1 0
BITMAP
82
C2
C6
C6
A6
AA
AA
9A
82
82
ENDCHAR
STARTCHAR 041D
ENCODING 1053
SWIDTH 648 0
DWIDTH 9 0
BBX 7 10 1 0
BITMAP
82
82
82
82
FE
82
82
82
82
82
ENDCHAR
STARTCHAR 041E
ENCODING 1054
SWIDTH 648 0
DWIDTH 9 0
BBX 7 10 1 0
BITMAP
38
C4
82
82
82
82
82
82
44
38
ENDCHAR
STARTCHAR 041F
ENCODING 1055
SWIDTH 648 0
DWIDTH 9 0
BBX 6 10 1 0
BITMAP
FC
84
84
84
84
84
84
84
84
84
ENDCHAR
STARTCHAR 0420
ENCODING 1056
SWIDTH 576 0
DWIDTH 8 0
BBX 6 10 1 0
BITMAP
F8
84
84
84
88
F0
80
80
80
80
ENDCHAR
STARTCHAR 0421
ENCODING 1057
SWIDTH 576 0
DWIDTH 8 0
BBX 6 10 1 0
BITMAP
38
44
80
80
80
80
80
80
40
3C
ENDCHAR
STARTCHAR 0422
ENCODING 1058
SWIDTH 504 0
DWIDTH 7 0
BBX 7 10 0 0
BITMAP
FE
10
10
10
10
10
10
10
10
10
ENDCHAR
STARTCHAR 0423
ENCODING 1059
SWIDTH 504 0
DWIDTH 7 0
BBX 7 10 0 0
BITMAP
82
84
44
48
28
28
30
10
10
60
ENDCHAR
STARTCHAR 0424
ENCODING 1060
SWIDTH 720 0
DWIDTH 10 0
BBX 8 10 1 0
BITMAP
10
10
7E
91
91
91
91
52
3C
10
ENDCHAR
STARTCHAR 0425
ENCODING 1061
SWIDTH 504 0
DWIDTH 7 0
BBX 6 10 0 0
BITMAP
84
48
48
30
10
10
28
48
44
84
ENDCHAR
STARTCHAR 0426
ENCODING 1062
SWIDTH 648 0
DWIDTH 9 0
BBX 7 12 1 -3
BITMAP
84
84
84
84
84
84
84
84
84
FE
02
02
ENDCHAR
STARTCHAR 0427
ENCODING 1063
SWIDTH 576 0
DWIDTH 8 0
BBX 6 10 1 0
BITMAP
84
84
84
84
84
7C
04
04
04
04
ENDCHAR
STARTCHAR 0428
ENCODING 1064
SWIDTH 864 0
DWIDTH 12 0
BBX 9 10 1 0
BITMAP
8880
8880
8880
8880
8880
8880
8880
8880
8880
FF80
ENDCHAR
STARTCHAR 0429
ENCODING 1065
SWIDTH 864 0
DWIDTH 12 0
BBX 10 12 1 -3
BITMAP
8880
8880
8880
8880
8880
8880
8880
8880
8880
FFC0
0040
0040
ENDCHAR
STARTCHAR 042A
ENCODING 1066
SWIDTH 720 0
DWIDTH 10 0
BBX 9 10 0 0
BITMAP
F000
1000
1000
1000
1E00
1180
1080
1080
1080
1F00
ENDCHAR
STARTCHAR 042B
ENCODING 1067
SWIDTH 792 0
DWIDTH 11 0
BBX 8 10 1 0
BITMAP
81
81
81
81
E1
9D
85
85
85
F9
ENDCHAR
STARTCHAR 042C
ENCODING 1068
SWIDTH 576 0
DWIDTH 8 0
BBX 6 10 1 0
BITMAP
80
80
80
80
F0
8C
84
84
84
F8
ENDCHAR
STARTCHAR 042D
ENCODING 1069
SWIDTH 576 0
DWIDTH 8 0
BBX 6 10 1 0
BITMAP
70
88
04
04
7C
04
04
04
08
F0
ENDCHAR
STARTCHAR 042E
ENCODING 1070
SWIDTH 864 0
DWIDTH 12 0
BBX 10 10 1 0
BITMAP
8780
8840
9040
9040
F040
9040
9040
9040
8840
8780
ENDCHAR
STARTCHAR 042F
ENCODING 1071
SWIDTH 576 0
DWIDTH 8 0
BBX 6 10 0 0
BITMAP
3C
44
84
44
44
3C
24
24
44
84
ENDCHAR
STARTCHAR 0430
ENCODING 1072
SWIDTH 504 0
DWIDTH 7 0
BBX 5 7 1 0
BITMAP
70
08
08
78
88
88
F8
ENDCHAR
STARTCHAR 0431
ENCODING 1073
SWIDTH 504 0
DWIDTH 7 0
BBX 6 10 1 0
BITMAP
18
60
80
80
F8
84
84
84
88
70
ENDCHAR
STARTCHAR 0432
ENCODING 1074
SWIDTH 504 0
DWIDTH 7 0
BBX 5 7 1 0
BITMAP
F0
88
88
F8
88
88
F8
ENDCHAR
STARTCHAR 0433
ENCODING 1075
SWIDTH 432 0
DWIDTH 6 0
BBX 4 7 1 0
BITMAP
F0
80
80
80
80
80
80
ENDCHAR
STARTCHAR 0434
ENCODING 1076
SWIDTH 504 0
DWIDTH 7 0
BBX 7 9 0 -2
BITMAP
3C
44
44
44
44
44
FE
82
82
ENDCHAR
STARTCHAR 0435
ENCODING 1077
SWIDTH 504 0
DWIDTH 7 0
BBX 5 7 1 0
BITMAP
70
88
88
F8
80
80
78
ENDCHAR
STARTCHAR 0436
ENCODING 1078
SWIDTH 648 0
DWIDTH 9 0
BBX 8 7 0 0
BITMAP
C9
4A
2A
3E
4A
49
89
ENDCHAR
STARTCHAR 0437
ENCODING 1079
SWIDTH 432 0
DWIDTH 6 0
BBX 5 7 1 0
BITMAP
F0
10
10
70
08
08
F0
ENDCHAR
STARTCHAR 0438
ENCODING 1080
SWIDTH 576 0
DWIDTH 8 0
BBX 5 7 1 0
BITMAP
88
98
98
A8
C8
C8
88
ENDCHAR
STARTCHAR 0439
ENCODING 1081
SWIDTH 576 0
DWIDTH 8 0
BBX 5 10 1 0
BITMAP
88
50
20
88
98
98
A8
C8
C8
88
ENDCHAR
STARTCHAR 043A
ENCODING 1082
SWIDTH 504 0
DWIDTH 7 0
BBX 5 7 1 0
BITMAP
88
90
A0
E0
90
90
88
ENDCHAR
STARTCHAR 043B
ENCODING 1083
SWIDTH 504 0
DWIDTH 7 0
BBX 6 7 0 0
BITMAP
3C
24
44
44
44
44
C4
ENDCHAR
STARTCHAR 043C
ENCODING 1084
SWIDTH 648 0
DWIDTH 9 0
BBX 6 7 1 0
BITMAP
84
C4
CC
AC
B4
94
84
ENDCHAR
STARTCHAR 043D
ENCODING 1085
SWIDTH 576 0
DWIDTH 8 0
BBX 5 7 1 0
BITMAP
88
88
88
F8
88
88
88
ENDCHAR
STARTCHAR 043E
ENCODING 1086
SWIDTH 504 0
DWIDTH 7 0
BBX 6 7 1 0
BITMAP
70
88
84
84
84
88
70
ENDCHAR
STARTCHAR 043F
ENCODING 1087
SWIDTH 576 0
DWIDTH 8 0
BBX 5 7 1 0
BITMAP
F8
88
88
88
88
88
88
ENDCHAR
STARTCHAR 0440
ENCODING 1088
SWIDTH 576 0
DWIDTH 8 0
BBX 6 10 1 -3
BITMAP
B8
C8
84
84
84
88
F0
80
80
80
ENDCHAR
STARTCHAR 0441
ENCODING 1089
SWIDTH 432 0
DWIDTH 6 0
BBX 4 7 1 0
BITMAP
70
80
80
80
80
80
70
ENDCHAR
STARTCHAR 0442
ENCODING 1090
SWIDTH 432 0
DWIDTH 6 0
BBX 6 7 0 0
BITMAP
FC
20
20
20
20
20
20
ENDCHAR
STARTCHAR 0443
ENCODING 1091
SWIDTH 432 0
DWIDTH 6 0
BBX 6 10 0 -3
BITMAP
84
88
48
48
50
30
10
20
20
C0
ENDCHAR
STARTCHAR 0444
ENCODING 1092
SWIDTH 720 0
DWIDTH 10 0
BBX 8 13 1 -3
BITMAP
10
10
10
7E
91
91
91
91
91
7E
10
10
10
ENDCHAR
STARTCHAR 0445
ENCODING 1093
SWIDTH 432 0
DWIDTH 6 0
BBX 5 7 0 0
BITMAP
88
50
30
20
50
48
88
ENDCHAR
STARTCHAR 0446
ENCODING 1094
SWIDTH 504 0
DWIDTH 7 0
BBX 6 9 1 -2
BITMAP
88
88
88
88
88
88
FC
04
04
ENDCHAR
STARTCHAR 0447
ENCODING 1095
SWIDTH 504 0
DWIDTH 7 0
BBX 5 7 1 0
BITMAP
88
88
88
78
08
08
08
ENDCHAR
STARTCHAR 0448
ENCODING 1096
SWIDTH 720 0
DWIDTH 10 0
BBX 8 7 1 0
BITMAP
91
91
91
91
91
91
FF
ENDCHAR
STARTCHAR 0449
ENCODING 1097
SWIDTH 720 0
DWIDTH 10 0
BBX 9 9 1 -2
BITMAP
9100
9100
9100
9100
9100
9100
FF80
0080
0080
ENDCHAR
STARTCHAR 044A
ENCODING 1098
SWIDTH 576 0
DWIDTH 8 0
BBX 7 7 0 0
BITMAP
F0
10
10
1E
12
12
1E
ENDCHAR
STARTCHAR 044B
ENCODING 1099
SWIDTH 648 0
DWIDTH 9 0
BBX 7 7 1 0
BITMAP
82
82
82
F2
8A
8A
F2
ENDCHAR
STARTCHAR 044C
ENCODING 1100
SWIDTH 504 0
DWIDTH 7 0
BBX 5 7 1 0
BITMAP
80
80
80
F0
88
88
F0
ENDCHAR
STARTCHAR 044D
ENCODING 1101
SWIDTH 432 0
DWIDTH 6 0
BBX 4 7 1 0
BITMAP
E0
10
10
70
10
10
E0
ENDCHAR
STARTCHAR 044E
ENCODING 1102
SWIDTH 720 0
DWIDTH 10 0
BBX 8 7 1 0
BITMAP
8E
91
A1
E1
A1
91
8E
ENDCHAR
STARTCHAR 044F
ENCODING 1103
SWIDTH 504 0
DWIDTH 7 0
BBX 5 7 1 0
BITMAP
78
88
88
78
48
88
88
ENDCHAR
STARTCHAR 0450
ENCODING 1104
SWIDTH 504 0
DWIDTH 7 0
BBX 5 11 1 0
BITMAP
40
40
20
00
70
88
88
F8
80
80
78
ENDCHAR
STARTCHAR 0451
ENCODING 1105
SWIDTH 504 0
DWIDTH 7 0
BBX 5 9 1 0
BITMAP
50
00
70
88
88
F8
80
80
78
ENDCHAR
STARTCHAR 0452
ENCODING 1106
SWIDTH 504 0
DWIDTH 7 0
BBX 6 13 1 -3
BITMAP
80
80
E0
90
E8
88
84
84
84
84
08
08
30
ENDCHAR
STARTCHAR 0453
ENCODING 1107
SWIDTH 432 0
DWIDTH 6 0
BBX 4 10 1 0
BITMAP
10
20
00
F0
80
80
80
80
80
80
ENDCHAR
STARTCHAR 0454
ENCODING 1108
SWIDTH 432 0
DWIDTH 6 0
BBX 4 7 1 0
BITMAP
70
80
80
F0
80
80
70
ENDCHAR
STARTCHAR 0455
ENCODING 1109
SWIDTH 432 0
DWIDTH 6 0
BBX 5 7 0 0
BITMAP
78
80
40
30
08
08
70
ENDCHAR
STARTCHAR 0456
ENCODING 1110
SWIDTH 216 0
DWIDTH 3 0
BBX 1 10 1 0
BITMAP
80
00
00
80
80
80
80
80
80
80
ENDCHAR
STARTCHAR 0457
ENCODING 1111
SWIDTH 216 0
DWIDTH 3 0
BBX 3 10 0 0
BITMAP
A0
00
00
40
40
40
40
40
40
40
ENDCHAR
STARTCHAR 0458
ENCODING 1112
SWIDTH 216 0
DWIDTH 3 0
BBX 2 13 0 -3
BITMAP
40
00
00
40
40
40
40
40
40
40
40
40
C0
ENDCHAR
STARTCHAR 0459
ENCODING 1113
SWIDTH 720 0
DWIDTH 10 0
BBX 9 7 0 0
BITMAP
3C00
2400
4600
4580
4480
4480
C700
ENDCHAR
STARTCHAR 045A
ENCODING 1114
SWIDTH 720 0
DWIDTH 10 0
BBX 9 7 1 0
BITMAP
8800
8800
8800
FF00
8880
8880
8F00
ENDCHAR
STARTCHAR 045B
ENCODING 1115
SWIDTH 504 0
DWIDTH 7 0
BBX 5 10 1 0
BITMAP
80
80
E0
90
E8
88
88
88
88
88
ENDCHAR
STARTCHAR 045C
ENCODING 1116
SWIDTH 504 0
DWIDTH 7 0
BBX 5 10 1 0
BITMAP
10
20
00
88
90
A0
E0
90
90
88
ENDCHAR
STARTCHAR 045D
ENCODING 1117
SWIDTH 576 0
DWIDTH 8 0
BBX 5 10 1 0
BITMAP
20
10
00
88
98
98
A8
C8
C8
88
ENDCHAR
STARTCHAR 045E
ENCODING 1118
SWIDTH 432 0
DWIDTH 6 0
BBX 6 13 0 -3
BITMAP
48
28
10
84
88
48
48
50
30
10
20
20
C0
ENDCHAR
STARTCHAR 045F
ENCODING 1119
SWIDTH 576 0
DWIDTH 8 0
BBX 5 9 1 -2
BITMAP
88
88
88
88
88
88
F8
20
20
ENDCHAR
STARTCHAR 0462
ENCODING 1122
SWIDTH 576 0
DWIDTH 8 0
BBX 8 10 0 0
BITMAP
20
20
FE
20
20
3E
21
21
21
3E
ENDCHAR
STARTCHAR 0463
ENCODING 1123
SWIDTH 576 0
DWIDTH 8 0
BBX 7 8 0 1
BITMAP
20
FC
20
20
1C
22
22
1C
ENDCHAR
STARTCHAR 0472
ENCODING 1138
SWIDTH 648 0
DWIDTH 9 0
BBX 7 10 1 0
BITMAP
38
C4
82
82
FE
82
82
82
84
78
ENDCHAR
STARTCHAR 0473
ENCODING 1139
SWIDTH 504 0
DWIDTH 7 0
BBX 6 7 1 0
BITMAP
70
88
84
FC
84
88
70
ENDCHAR
STARTCHAR 0474
ENCODING 1140
SWIDTH 504 0
DWIDTH 7 0
BBX 7 10 0 0
BITMAP
82
84
84
44
48
48
28
28
30
10
ENDCHAR
STARTCHAR 0475
ENCODING 1141
SWIDTH 432 0
DWIDTH 6 0
BBX 6 7 0 0
BITMAP
84
88
48
48
50
30
30
ENDCHAR
STARTCHAR 0490
ENCODING 1168
SWIDTH 504 0
DWIDTH 7 0
BBX 5 12 1 0
BITMAP
08
08
F8
80
80
80
80
80
80
80
80
80
ENDCHAR
STARTCHAR 0491
ENCODING 1169
SWIDTH 432 0
DWIDTH 6 0
BBX 4 9 1 0
BITMAP
10
10
F0
80
80
80
80
80
80
ENDCHAR
STARTCHAR 0492
ENCODING 1170
SWIDTH 504 0
DWIDTH 7 0
BBX 6 9 1 1
BITMAP
7C
80
80
80
80
E0
80
80
80
ENDCHAR
STARTCHAR 0493
ENCODING 1171
SWIDTH 432 0
DWIDTH 6 0
BBX 4 7 1 0
BITMAP
F0
80
80
C0
80
80
80
ENDCHAR
STARTCHAR 0496
ENCODING 1174
SWIDTH 792 0
DWIDTH 11 0
BBX 11 13 0 -3
BITMAP
C440
4480
2480
2500
1F00
2500
2480
4480
4440
8420
0020
0020
0020
ENDCHAR
STARTCHAR 0497
ENCODING 1175
SWIDTH 648 0
DWIDTH 9 0
BBX 9 9 0 -2
BITMAP
C900
4A00
2A00
3E00
4A00
4900
8880
0080
0080
ENDCHAR
STARTCHAR 0498
ENCODING 1176
SWIDTH 576 0
DWIDTH 8 0
BBX 6 12 1 -2
BITMAP
78
88
08
08
70
08
04
04
04
F8
20
20
ENDCHAR
STARTCHAR 0499
ENCODING 1177
SWIDTH 432 0
DWIDTH 6 0
BBX 5 9 1 -2
BITMAP
F0
10
10
70
08
08
F0
40
40
ENDCHAR
STARTCHAR 049A
ENCODING 1178
SWIDTH 576 0
DWIDTH 8 0
BBX 7 13 1 -3
BITMAP
84
88
88
90
F0
90
90
88
84
82
02
02
02
ENDCHAR
STARTCHAR 049B
ENCODING 1179
SWIDTH 504 0
DWIDTH 7 0
BBX 6 9 1 -2
BITMAP
88
90
A0
E0
90
90
8C
04
04
ENDCHAR
STARTCHAR 04A0
ENCODING 1184
SWIDTH 720 0
DWIDTH 10 0
BBX 10 10 0 0
BITMAP
F080
1100
1200
1200
1C00
1200
1100
1100
1080
1040
ENDCHAR
STARTCHAR 04A1
ENCODING 1185
SWIDTH 576 0
DWIDTH 8 0
BBX 8 7 0 0
BITMAP
F3
14
14
1C
14
12
11
ENDCHAR
STARTCHAR 04A2
ENCODING 1186
SWIDTH 648 0
DWIDTH 9 0
BBX 7 11 1 -3
BITMAP
82
82
82
82
FE
82
82
82
82
02
02
ENDCHAR
STARTCHAR 04A3
ENCODING 1187
SWIDTH 576 0
DWIDTH 8 0
BBX 6 8 1 -2
BITMAP
88
88
F8
88
88
84
04
04
ENDCHAR
STARTCHAR 04AA
ENCODING 1194
SWIDTH 576 0
DWIDTH 8 0
BBX 6 12 1 -2
BITMAP
38
44
80
80
80
80
80
80
80
7C
10
10
ENDCHAR
STARTCHAR 04AB
ENCODING 1195
SWIDTH 432 0
DWIDTH 6 0
BBX 4 9 1 -2
BITMAP
70
80
80
80
80
80
70
20
20
ENDCHAR
STARTCHAR 04AE
ENCODING 1198
SWIDTH 432 0
DWIDTH 6 0
BBX 6 9 0 0
BITMAP
84
48
48
50
30
20
20
20
20
ENDCHAR
STARTCHAR 04AF
ENCODING 1199
SWIDTH 432 0
DWIDTH 6 0
BBX 6 9 0 -3
BITMAP
84
88
48
48
50
30
20
20
20
ENDCHAR
STARTCHAR 04B0
ENCODING 1200
SWIDTH 432 0
DWIDTH 6 0
BBX 6 9 0 0
BITMAP
84
88
48
50
30
20
20
20
20
ENDCHAR
STARTCHAR 04B1
ENCODING 1201
SWIDTH 432 0
DWIDTH 6 0
BBX 6 10 0 -3
BITMAP
84
88
48
48
50
30
10
20
20
20
ENDCHAR
STARTCHAR 04B2
ENCODING 1202
SWIDTH 504 0
DWIDTH 7 0
BBX 7 12 0 -3
BITMAP
84
48
28
30
10
30
48
44
86
02
02
02
ENDCHAR
STARTCHAR 04B3
ENCODING 1203
SWIDTH 432 0
DWIDTH 6 0
BBX 6 9 0 -2
BITMAP
80
48
50
20
50
50
8C
04
04
ENDCHAR
STARTCHAR 04B6
ENCODING 1206
SWIDTH 576 0
DWIDTH 8 0
BBX 7 12 1 -3
BITMAP
84
84
84
84
7C
04
04
04
06
02
02
02
ENDCHAR
STARTCHAR 04B7
ENCODING 1207
SWIDTH 504 0
DWIDTH 7 0
BBX 5 9 1 -2
BITMAP
88
88
88
78
08
08
08
08
08
ENDCHAR
STARTCHAR 04BA
ENCODING 1210
SWIDTH 576 0
DWIDTH 8 0
BBX 6 9 1 0
BITMAP
80
80
80
B0
CC
84
84
84
84
ENDCHAR
STARTCHAR 04BB
ENCODING 1211
SWIDTH 504 0
DWIDTH 7 0
BBX 5 10 1 0
BITMAP
80
80
80
B8
C8
88
88
88
88
80
ENDCHAR
STARTCHAR 04C0
ENCODING 1216
SWIDTH 216 0
DWIDTH 3 0
BBX 1 9 1 0
BITMAP
80
80
80
80
80
80
80
80
80
ENDCHAR
STARTCHAR 04C1
ENCODING 1217
SWIDTH 792 0
DWIDTH 11 0
BBX 10 12 0 0
BITMAP
1200
0C00
C440
4480
2480
2500
1F00
2500
2480
4480
8440
8400
ENDCHAR
STARTCHAR 04C2
ENCODING 1218
SWIDTH 648 0
DWIDTH 9 0
BBX 8 10 0 0
BITMAP
24
14
08
C9
4A
2A
3E
4A
49
88
ENDCHAR
STARTCHAR 04CF
ENCODING 1231
SWIDTH 216 0
DWIDTH 3 0
BBX 1 10 1 0
BITMAP
80
80
80
80
80
80
80
80
80
80
ENDCHAR
STARTCHAR 04D0
ENCODING 1232
SWIDTH 504 0
DWIDTH 7 0
BBX 7 12 0 0
BITMAP
28
10
10
30
28
28
48
44
7C
44
82
82
ENDCHAR
STARTCHAR 04D1
ENCODING 1233
SWIDTH 504 0
DWIDTH 7 0
BBX 5 10 1 0
BITMAP
90
50
20
70
08
08
78
88
88
F8
ENDCHAR
STARTCHAR 04D4
ENCODING 1236
SWIDTH 792 0
DWIDTH 11 0
BBX 11 10 0 0
BITMAP
07C0
0C00
0C00
1400
13C0
2400
3C00
4400
4400
83E0
ENDCHAR
STARTCHAR 04D5
ENCODING 1237
SWIDTH 792 0
DWIDTH 11 0
BBX 9 7 1 0
BITMAP
7700
0880
0880
7F00
8800
8800
F780
ENDCHAR
STARTCHAR 04D6
ENCODING 1238
SWIDTH 504 0
DWIDTH 7 0
BBX 5 12 1 0
BITMAP
48
30
F8
80
80
80
F8
80
80
80
80
F8
ENDCHAR
STARTCHAR 04D7
ENCODING 1239
SWIDTH 504 0
DWIDTH 7 0
BBX 5 10 1 0
BITMAP
88
50
20
70
88
88
F8
80
80
78
ENDCHAR
STARTCHAR 04D8
ENCODING 1240
SWIDTH 648 0
DWIDTH 9 0
BBX 7 10 1 0
BITMAP
38
44
02
02
02
FE
82
82
84
78
ENDCHAR
STARTCHAR 04D9
ENCODING 1241
SWIDTH 504 0
DWIDTH 7 0
BBX 5 7 1 0
BITMAP
F0
08
08
08
F8
88
70
ENDCHAR
STARTCHAR 04E2
ENCODING 1250
SWIDTH 648 0
DWIDTH 9 0
BBX 7 11 1 0
BITMAP
10
82
86
8A
8A
92
92
A2
C2
C2
82
ENDCHAR
STARTCHAR 04E3
ENCODING 1251
SWIDTH 576 0
DWIDTH 8 0
BBX 5 9 1 0
BITMAP
78
00
88
98
98
A8
C8
C8
88
ENDCHAR
STARTCHAR 04E6
ENCODING 1254
SWIDTH 648 0
DWIDTH 9 0
BBX 7 12 1 0
BITMAP
28
00
38
C4
82
82
82
82
82
82
44
38
ENDCHAR
STARTCHAR 04E7
ENCODING 1255
SWIDTH 504 0
DWIDTH 7 0
BBX 6 9 1 0
BITMAP
50
00
70
88
84
84
84
88
70
ENDCHAR
STARTCHAR 04E8
ENCODING 1256
SWIDTH 648 0
DWIDTH 9 0
BBX 7 10 1 0
BITMAP
38
C4
82
82
FE
82
82
82
84
78
ENDCHAR
STARTCHAR 04E9
ENCODING 1257
SWIDTH 504 0
DWIDTH 7 0
BBX 6 7 1 0
BITMAP
70
88
84
FC
84
88
70
ENDCHAR
STARTCHAR 04EE
ENCODING 1262
SWIDTH 504 0
DWIDTH 7 0
BBX 7 11 0 0
BITMAP
30
82
84
44
48
28
28
30
10
10
60
ENDCHAR
STARTCHAR 04EF
ENCODING 1263
SWIDTH 432 0
DWIDTH 6 0
BBX 6 12 0 -3
BITMAP
78
00
84
88
48
48
50
30
10
20
20
C0
ENDCHAR
STARTCHAR 04F2
ENCODING 1266
SWIDTH 504 0
DWIDTH 7 0
BBX 6 12 0 0
BITMAP
28
28
00
84
44
44
48
28
30
10
10
60
ENDCHAR
STARTCHAR 04F3
ENCODING 1267
SWIDTH 432 0
DWIDTH 6 0
BBX 6 13 0 -3
BITMAP
28
28
00
84
88
48
48
50
30
10
20
20
C0
ENDCHAR
STARTCHAR 1D43
ENCODING 7491
SWIDTH 360 0
DWIDTH 5 0
BBX 3 4 1 6
BITMAP
E0
20
E0
E0
ENDCHAR
STARTCHAR 1D47
ENCODING 7495
SWIDTH 360 0
DWIDTH 5 0
BBX 4 6 1 6
BITMAP
80
80
E0
90
90
E0
ENDCHAR
STARTCHAR 1D48
ENCODING 7496
SWIDTH 360 0
DWIDTH 5 0
BBX 3 6 1 6
BITMAP
20
20
E0
A0
A0
E0
ENDCHAR
STARTCHAR 1D49
ENCODING 7497
SWIDTH 360 0
DWIDTH 5 0
BBX 4 4 0 6
BITMAP
70
90
E0
E0
ENDCHAR
STARTCHAR 1D4D
ENCODING 7501
SWIDTH 360 0
DWIDTH 5 0
BBX 4 6 0 4
BITMAP
60
90
60
80
F0
F0
ENDCHAR
STARTCHAR 1D4F
ENCODING 7503
SWIDTH 288 0
DWIDTH 4 0
BBX 3 6 1 5
BITMAP
80
80
A0
C0
C0
A0
ENDCHAR
STARTCHAR 1D50
ENCODING 7504
SWIDTH 576 0
DWIDTH 8 0
BBX 6 5 1 5
BITMAP
FC
A4
A4
A4
04
ENDCHAR
STARTCHAR 1D52
ENCODING 7506
SWIDTH 360 0
DWIDTH 5 0
BBX 4 4 0 6
BITMAP
70
90
90
F0
ENDCHAR
STARTCHAR 1D56
ENCODING 7510
SWIDTH 360 0
DWIDTH 5 0
BBX 4 6 1 4
BITMAP
E0
90
90
A0
C0
80
ENDCHAR
STARTCHAR 1D57
ENCODING 7511
SWIDTH 216 0
DWIDTH 3 0
BBX 2 4 0 7
BITMAP
C0
80
80
40
ENDCHAR
STARTCHAR 1D58
ENCODING 7512
SWIDTH 360 0
DWIDTH 5 0
BBX 3 4 1 6
BITMAP
A0
A0
A0
E0
ENDCHAR
STARTCHAR 1D5B
ENCODING 7515
SWIDTH 288 0
DWIDTH 4 0
BBX 4 4 0 6
BITMAP
90
90
60
60
ENDCHAR
STARTCHAR 1D9C
ENCODING 7580
SWIDTH 288 0
DWIDTH 4 0
BBX 4 4 0 6
BITMAP
70
80
80
E0
ENDCHAR
STARTCHAR 1DA0
ENCODING 7584
SWIDTH 216 0
DWIDTH 3 0
BBX 2 6 0 6
BITMAP
40
80
80
80
80
80
ENDCHAR
STARTCHAR 1DBB
ENCODING 7611
SWIDTH 288 0
DWIDTH 4 0
BBX 3 4 0 6
BITMAP
20
20
40
E0
ENDCHAR
STARTCHAR 1E06
ENCODING 7686
SWIDTH 576 0
DWIDTH 8 0
BBX 6 12 1 -2
BITMAP
F8
84
84
84
F8
84
84
84
84
F8
00
30
ENDCHAR
STARTCHAR 1E07
ENCODING 7687
SWIDTH 576 0
DWIDTH 8 0
BBX 6 12 1 -2
BITMAP
80
80
80
B8
C8
84
84
84
88
F0
00
30
ENDCHAR
STARTCHAR 1E0C
ENCODING 7692
SWIDTH 576 0
DWIDTH 8 0
BBX 7 13 1 -3
BITMAP
F8
84
84
84
82
82
84
84
84
F8
00
00
10
ENDCHAR
STARTCHAR 1E0D
ENCODING 7693
SWIDTH 576 0
DWIDTH 8 0
BBX 5 12 1 -2
BITMAP
08
08
08
78
88
88
88
88
88
78
00
10
ENDCHAR
STARTCHAR 1E0E
ENCODING 7694
SWIDTH 576 0
DWIDTH 8 0
BBX 7 12 1 -2
BITMAP
F8
84
84
84
82
82
84
84
84
F8
00
30
ENDCHAR
STARTCHAR 1E0F
ENCODING 7695
SWIDTH 576 0
DWIDTH 8 0
BBX 5 12 1 -2
BITMAP
08
08
08
78
88
88
88
88
88
78
00
30
ENDCHAR
STARTCHAR 1E16
ENCODING 7702
SWIDTH 504 0
DWIDTH 7 0
BBX 5 13 1 1
BITMAP
10
00
30
F8
80
80
80
F8
80
80
80
80
F8
ENDCHAR
STARTCHAR 1E17
ENCODING 7703
SWIDTH 504 0
DWIDTH 7 0
BBX 5 11 1 0
BITMAP
20
00
70
00
70
88
88
F8
80
80
78
ENDCHAR
STARTCHAR 1E20
ENCODING 7712
SWIDTH 576 0
DWIDTH 8 0
BBX 6 11 1 0
BITMAP
18
3C
40
80
80
80
8C
84
84
44
3C
ENDCHAR
STARTCHAR 1E21
ENCODING 7713
SWIDTH 504 0
DWIDTH 7 0
BBX 6 12 1 -3
BITMAP
70
00
78
88
88
90
70
80
F0
8C
88
F8
ENDCHAR
STARTCHAR 1E24
ENCODING 7716
SWIDTH 648 0
DWIDTH 9 0
BBX 7 13 1 -3
BITMAP
82
82
82
82
FE
82
82
82
82
82
00
00
10
ENDCHAR
STARTCHAR 1E25
ENCODING 7717
SWIDTH 504 0
DWIDTH 7 0
BBX 5 13 1 -3
BITMAP
80
80
80
B8
C8
88
88
88
88
88
00
00
20
ENDCHAR
STARTCHAR 1E2A
ENCODING 7722
SWIDTH 648 0
DWIDTH 9 0
BBX 7 13 1 -3
BITMAP
82
82
82
82
FE
82
82
82
82
82
00
40
38
ENDCHAR
STARTCHAR 1E2B
ENCODING 7723
SWIDTH 504 0
DWIDTH 7 0
BBX 5 13 1 -3
BITMAP
80
80
80
B8
C8
88
88
88
88
88
00
08
70
ENDCHAR
STARTCHAR 1E32
ENCODING 7730
SWIDTH 576 0
DWIDTH 8 0
BBX 6 13 1 -3
BITMAP
84
88
90
A0
B0
D0
88
88
84
84
00
00
10
ENDCHAR
STARTCHAR 1E33
ENCODING 7731
SWIDTH 432 0
DWIDTH 6 0
BBX 5 13 1 -3
BITMAP
80
80
80
88
90
A0
E0
90
90
88
00
00
20
ENDCHAR
STARTCHAR 1E34
ENCODING 7732
SWIDTH 576 0
DWIDTH 8 0
BBX 6 12 1 -2
BITMAP
84
88
90
A0
B0
D0
88
88
84
84
00
10
ENDCHAR
STARTCHAR 1E35
ENCODING 7733
SWIDTH 432 0
DWIDTH 6 0
BBX 5 12 1 -2
BITMAP
80
80
80
88
90
A0
E0
90
90
88
00
20
ENDCHAR
STARTCHAR 1E36
ENCODING 7734
SWIDTH 432 0
DWIDTH 6 0
BBX 5 13 1 -3
BITMAP
80
80
80
80
80
80
80
80
80
F8
00
00
20
ENDCHAR
STARTCHAR 1E37
ENCODING 7735
SWIDTH 216 0
DWIDTH 3 0
BBX 1 12 1 -2
BITMAP
80
80
80
80
80
80
80
80
80
80
00
80
ENDCHAR
STARTCHAR 1E38
ENCODING 7736
SWIDTH 432 0
DWIDTH 6 0
BBX 5 14 1 -3
BITMAP
80
80
80
80
80
80
80
80
80
80
F8
00
00
20
ENDCHAR
STARTCHAR 1E39
ENCODING 7737
SWIDTH 216 0
DWIDTH 3 0
BBX 3 14 0 -2
BITMAP
E0
00
40
40
40
40
40
40
40
40
40
40
00
40
ENDCHAR
STARTCHAR 1E3A
ENCODING 7738
SWIDTH 432 0
DWIDTH 6 0
BBX 5 12 1 -2
BITMAP
80
80
80
80
80
80
80
80
80
F8
00
30
ENDCHAR
STARTCHAR 1E3B
ENCODING 7739
SWIDTH 216 0
DWIDTH 3 0
BBX 2 12 1 -2
BITMAP
80
80
80
80
80
80
80
80
80
80
00
C0
ENDCHAR
STARTCHAR 1E3E
ENCODING 7742
SWIDTH 720 0
DWIDTH 10 0
BBX 7 12 1 1
BITMAP
08
00
82
C2
C6
C6
A6
AA
AA
9A
82
82
ENDCHAR
STARTCHAR 1E3F
ENCODING 7743
SWIDTH 792 0
DWIDTH 11 0
BBX 9 10 1 0
BITMAP
0400
0800
0000
B300
CC80
8880
8880
8880
8880
8880
ENDCHAR
STARTCHAR 1E40
ENCODING 7744
SWIDTH 720 0
DWIDTH 10 0
BBX 7 12 1 0
BITMAP
10
00
82
C2
C6
C6
A6
AA
AA
9A
82
82
ENDCHAR
STARTCHAR 1E41
ENCODING 7745
SWIDTH 792 0
DWIDTH 11 0
BBX 9 9 1 0
BITMAP
0800
0000
B300
CC80
8880
8880
8880
8880
8880
ENDCHAR
STARTCHAR 1E42
ENCODING 7746
SWIDTH 720 0
DWIDTH 10 0
BBX 7 13 1 -3
BITMAP
82
C2
C6
C6
A6
AA
AA
9A
82
82
00
00
10
ENDCHAR
STARTCHAR 1E43
ENCODING 7747
SWIDTH 792 0
DWIDTH 11 0
BBX 9 10 1 -3
BITMAP
B300
CC80
8880
8880
8880
8880
8880
0000
0000
0800
ENDCHAR
STARTCHAR 1E44
ENCODING 7748
SWIDTH 648 0
DWIDTH 9 0
BBX 6 12 1 0
BITMAP
10
00
84
C4
C4
A4
A4
94
8C
8C
84
84
ENDCHAR
STARTCHAR 1E45
ENCODING 7749
SWIDTH 504 0
DWIDTH 7 0
BBX 5 9 1 0
BITMAP
20
00
B8
C8
88
88
88
88
88
ENDCHAR
STARTCHAR 1E46
ENCODING 7750
SWIDTH 648 0
DWIDTH 9 0
BBX 6 13 1 -3
BITMAP
84
C4
C4
A4
A4
94
8C
8C
84
84
00
00
10
ENDCHAR
STARTCHAR 1E47
ENCODING 7751
SWIDTH 504 0
DWIDTH 7 0
BBX 5 10 1 -3
BITMAP
B8
C8
88
88
88
88
88
00
00
20
ENDCHAR
STARTCHAR 1E48
ENCODING 7752
SWIDTH 648 0
DWIDTH 9 0
BBX 6 12 1 -2
BITMAP
84
C4
C4
A4
A4
94
8C
8C
84
84
00
10
ENDCHAR
STARTCHAR 1E49
ENCODING 7753
SWIDTH 504 0
DWIDTH 7 0
BBX 5 9 1 -2
BITMAP
B8
C8
88
88
88
88
88
00
20
ENDCHAR
STARTCHAR 1E52
ENCODING 7762
SWIDTH 648 0
DWIDTH 9 0
BBX 7 14 1 0
BITMAP
08
10
00
10
38
C4
82
82
82
82
82
82
44
38
ENDCHAR
STARTCHAR 1E53
ENCODING 7763
SWIDTH 504 0
DWIDTH 7 0
BBX 6 11 1 0
BITMAP
30
00
70
00
70
88
84
84
84
88
70
ENDCHAR
STARTCHAR 1E58
ENCODING 7768
SWIDTH 576 0
DWIDTH 8 0
BBX 6 12 1 0
BITMAP
20
00
F8
84
84
84
88
F0
90
88
88
84
ENDCHAR
STARTCHAR 1E59
ENCODING 7769
SWIDTH 288 0
DWIDTH 4 0
BBX 3 9 1 0
BITMAP
40
00
A0
C0
80
80
80
80
80
ENDCHAR
STARTCHAR 1E5A
ENCODING 7770
SWIDTH 576 0
DWIDTH 8 0
BBX 6 13 1 -3
BITMAP
F8
84
84
84
88
F0
90
88
88
84
00
00
10
ENDCHAR
STARTCHAR 1E5B
ENCODING 7771
SWIDTH 288 0
DWIDTH 4 0
BBX 3 10 1 -3
BITMAP
A0
C0
80
80
80
80
80
00
00
80
ENDCHAR
STARTCHAR 1E5C
ENCODING 7772
SWIDTH 576 0
DWIDTH 8 0
BBX 6 14 1 -3
BITMAP
30
F8
84
84
84
88
F0
90
88
88
84
00
00
10
ENDCHAR
STARTCHAR 1E5D
ENCODING 7773
SWIDTH 288 0
DWIDTH 4 0
BBX 3 12 1 -3
BITMAP
E0
00
A0
C0
80
80
80
80
80
00
00
80
ENDCHAR
STARTCHAR 1E5E
ENCODING 7774
SWIDTH 576 0
DWIDTH 8 0
BBX 6 12 1 -2
BITMAP
F8
84
84
84
88
F0
90
88
88
84
00
30
ENDCHAR
STARTCHAR 1E5F
ENCODING 7775
SWIDTH 288 0
DWIDTH 4 0
BBX 3 9 1 -2
BITMAP
A0
C0
80
80
80
80
80
00
80
ENDCHAR
STARTCHAR 1E60
ENCODING 7776
SWIDTH 504 0
DWIDTH 7 0
BBX 6 12 1 0
BITMAP
20
00
78
80
80
80
60
18
04
04
08
F8
ENDCHAR
STARTCHAR 1E61
ENCODING 7777
SWIDTH 432 0
DWIDTH 6 0
BBX 5 9 0 0
BITMAP
20
00
78
80
40
30
08
08
70
ENDCHAR
STARTCHAR 1E62
ENCODING 7778
SWIDTH 504 0
DWIDTH 7 0
BBX 6 12 1 -2
BITMAP
78
80
80
80
60
18
04
04
08
F8
00
20
ENDCHAR
STARTCHAR 1E63
ENCODING 7779
SWIDTH 432 0
DWIDTH 6 0
BBX 5 9 0 -2
BITMAP
78
80
40
30
08
08
70
00
30
ENDCHAR
STARTCHAR 1E6C
ENCODING 7788
SWIDTH 504 0
DWIDTH 7 0
BBX 7 13 0 -3
BITMAP
FE
10
10
10
10
10
10
10
10
10
00
00
10
ENDCHAR
STARTCHAR 1E6D
ENCODING 7789
SWIDTH 288 0
DWIDTH 4 0
BBX 4 11 0 -2
BITMAP
40
40
F0
40
40
40
40
40
30
00
20
ENDCHAR
STARTCHAR 1E6E
ENCODING 7790
SWIDTH 504 0
DWIDTH 7 0
BBX 7 12 0 -2
BITMAP
FE
10
10
10
10
10
10
10
10
10
00
10
ENDCHAR
STARTCHAR 1E6F
ENCODING 7791
SWIDTH 288 0
DWIDTH 4 0
BBX 4 11 0 -2
BITMAP
40
40
F0
40
40
40
40
40
30
00
20
ENDCHAR
STARTCHAR 1E80
ENCODING 7808
SWIDTH 792 0
DWIDTH 11 0
BBX 10 12 0 1
BITMAP
0800
0000
8440
8C40
4C40
4A40
5280
5280
5280
5280
3180
2100
ENDCHAR
STARTCHAR 1E81
ENCODING 7809
SWIDTH 720 0
DWIDTH 10 0
BBX 9 10 0 0
BITMAP
1000
0800
0000
8880
8C80
5500
5500
5500
6300
2200
ENDCHAR
STARTCHAR 1E82
ENCODING 7810
SWIDTH 792 0
DWIDTH 11 0
BBX 10 13 0 0
BITMAP
0200
0400
0000
8440
8C40
4C40
4A40
5280
5280
5280
5280
3180
2100
ENDCHAR
STARTCHAR 1E83
ENCODING 7811
SWIDTH 720 0
DWIDTH 10 0
BBX 9 10 0 0
BITMAP
0400
0800
0000
8880
8C80
5500
5500
5500
6300
2200
ENDCHAR
STARTCHAR 1E84
ENCODING 7812
SWIDTH 792 0
DWIDTH 11 0
BBX 10 12 0 0
BITMAP
1200
0000
8440
8C40
4C40
4A40
5280
5280
5280
5280
3180
2100
ENDCHAR
STARTCHAR 1E85
ENCODING 7813
SWIDTH 720 0
DWIDTH 10 0
BBX 9 10 0 0
BITMAP
1400
0000
0000
8880
8C80
5500
5500
5500
6300
2200
ENDCHAR
STARTCHAR 1E8E
ENCODING 7822
SWIDTH 432 0
DWIDTH 6 0
BBX 6 12 0 0
BITMAP
10
00
84
88
48
48
30
10
20
20
20
20
ENDCHAR
STARTCHAR 1E8F
ENCODING 7823
SWIDTH 432 0
DWIDTH 6 0
BBX 6 13 0 -3
BITMAP
10
00
00
84
88
48
48
50
30
10
20
20
C0
ENDCHAR
STARTCHAR 1E92
ENCODING 7826
SWIDTH 504 0
DWIDTH 7 0
BBX 6 13 1 -3
BITMAP
FC
08
08
10
20
20
40
40
80
FC
00
00
20
ENDCHAR
STARTCHAR 1E93
ENCODING 7827
SWIDTH 432 0
DWIDTH 6 0
BBX 5 10 0 -3
BITMAP
78
10
10
20
40
40
F8
00
00
30
ENDCHAR
STARTCHAR 1E94
ENCODING 7828
SWIDTH 504 0
DWIDTH 7 0
BBX 6 12 1 -2
BITMAP
FC
08
08
10
20
20
40
40
80
FC
00
30
ENDCHAR
STARTCHAR 1E95
ENCODING 7829
SWIDTH 432 0
DWIDTH 6 0
BBX 5 9 0 -2
BITMAP
78
10
10
20
40
40
F8
00
30
ENDCHAR
STARTCHAR 1E96
ENCODING 7830
SWIDTH 504 0
DWIDTH 7 0
BBX 5 12 1 -2
BITMAP
80
80
80
B8
C8
88
88
88
88
88
00
30
ENDCHAR
STARTCHAR 1E97
ENCODING 7831
SWIDTH 288 0
DWIDTH 4 0
BBX 4 11 0 0
BITMAP
90
00
00
40
F0
40
40
40
40
40
30
ENDCHAR
STARTCHAR 1E9E
ENCODING 7838
SWIDTH 648 0
DWIDTH 9 0
BBX 7 10 1 0
BITMAP
38
44
84
88
90
8E
82
82
82
9C
ENDCHAR
STARTCHAR 1EA0
ENCODING 7840
SWIDTH 504 0
DWIDTH 7 0
BBX 7 13 0 -3
BITMAP
10
30
28
28
48
44
7C
44
82
82
00
00
10
ENDCHAR
STARTCHAR 1EA1
ENCODING 7841
SWIDTH 504 0
DWIDTH 7 0
BBX 5 9 1 -2
BITMAP
70
08
08
78
88
88
F8
00
20
ENDCHAR
STARTCHAR 1EA2
ENCODING 7842
SWIDTH 504 0
DWIDTH 7 0
BBX 7 13 0 0
BITMAP
10
08
10
10
30
28
28
48
44
7C
84
82
82
ENDCHAR
STARTCHAR 1EA3
ENCODING 7843
SWIDTH 504 0
DWIDTH 7 0
BBX 5 10 1 0
BITMAP
20
20
00
70
08
08
78
88
88
F8
ENDCHAR
STARTCHAR 1EA4
ENCODING 7844
SWIDTH 504 0
DWIDTH 7 0
BBX 7 13 0 0
BITMAP
04
10
28
10
30
28
28
48
44
7C
44
82
82
ENDCHAR
STARTCHAR 1EA5
ENCODING 7845
SWIDTH 504 0
DWIDTH 7 0
BBX 5 10 1 1
BITMAP
28
50
00
70
08
08
78
88
88
F8
ENDCHAR
STARTCHAR 1EA6
ENCODING 7846
SWIDTH 504 0
DWIDTH 7 0
BBX 7 13 0 0
BITMAP
40
10
28
10
30
28
28
48
44
7C
44
82
82
ENDCHAR
STARTCHAR 1EA7
ENCODING 7847
SWIDTH 504 0
DWIDTH 7 0
BBX 6 10 0 1
BITMAP
50
28
00
38
04
04
3C
44
84
7C
ENDCHAR
STARTCHAR 1EA8
ENCODING 7848
SWIDTH 504 0
DWIDTH 7 0
BBX 7 13 0 0
BITMAP
04
14
28
10
30
28
28
48
44
7C
84
82
82
ENDCHAR
STARTCHAR 1EA9
ENCODING 7849
SWIDTH 504 0
DWIDTH 7 0
BBX 5 11 1 0
BITMAP
08
28
50
00
70
08
08
78
88
88
F8
ENDCHAR
STARTCHAR 1EAA
ENCODING 7850
SWIDTH 504 0
DWIDTH 7 0
BBX 7 13 0 0
BITMAP
18
18
20
10
30
28
28
48
44
7C
44
82
82
ENDCHAR
STARTCHAR 1EAB
ENCODING 7851
SWIDTH 504 0
DWIDTH 7 0
BBX 5 11 1 0
BITMAP
30
20
50
00
70
08
08
78
88
88
F8
ENDCHAR
STARTCHAR 1EAC
ENCODING 7852
SWIDTH 504 0
DWIDTH 7 0
BBX 7 15 0 -3
BITMAP
38
00
10
30
28
28
48
44
7C
44
82
82
00
00
10
ENDCHAR
STARTCHAR 1EAD
ENCODING 7853
SWIDTH 504 0
DWIDTH 7 0
BBX 5 13 1 -2
BITMAP
20
50
00
00
70
08
08
78
88
88
F8
00
20
ENDCHAR
STARTCHAR 1EAE
ENCODING 7854
SWIDTH 504 0
DWIDTH 7 0
BBX 7 13 0 1
BITMAP
10
28
10
10
30
28
28
48
44
7C
44
82
82
ENDCHAR
STARTCHAR 1EAF
ENCODING 7855
SWIDTH 504 0
DWIDTH 7 0
BBX 5 11 1 0
BITMAP
20
28
50
20
70
08
08
78
88
88
F8
ENDCHAR
STARTCHAR 1EB0
ENCODING 7856
SWIDTH 504 0
DWIDTH 7 0
BBX 7 13 0 1
BITMAP
10
28
10
10
30
28
28
48
44
7C
44
82
82
ENDCHAR
STARTCHAR 1EB1
ENCODING 7857
SWIDTH 504 0
DWIDTH 7 0
BBX 5 11 1 0
BITMAP
40
08
50
20
70
08
08
78
88
88
F8
ENDCHAR
STARTCHAR 1EB2
ENCODING 7858
SWIDTH 504 0
DWIDTH 7 0
BBX 7 14 0 0
BITMAP
10
10
28
10
10
30
28
28
48
44
7C
84
82
82
ENDCHAR
STARTCHAR 1EB3
ENCODING 7859
SWIDTH 504 0
DWIDTH 7 0
BBX 5 11 1 0
BITMAP
20
20
50
20
70
08
08
78
88
88
F8
ENDCHAR
STARTCHAR 1EB4
ENCODING 7860
SWIDTH 504 0
DWIDTH 7 0
BBX 7 13 0 0
BITMAP
18
48
30
10
30
28
28
48
44
7C
44
82
82
ENDCHAR
STARTCHAR 1EB5
ENCODING 7861
SWIDTH 504 0
DWIDTH 7 0
BBX 5 11 1 0
BITMAP
30
00
50
20
70
08
08
78
88
88
F8
ENDCHAR
STARTCHAR 1EB6
ENCODING 7862
SWIDTH 504 0
DWIDTH 7 0
BBX 7 15 0 -3
BITMAP
28
10
10
30
28
28
48
44
7C
44
82
82
00
00
10
ENDCHAR
STARTCHAR 1EB7
ENCODING 7863
SWIDTH 504 0
DWIDTH 7 0
BBX 5 12 1 -2
BITMAP
88
50
20
70
08
08
78
88
88
F8
00
20
ENDCHAR
STARTCHAR 1EB8
ENCODING 7864
SWIDTH 504 0
DWIDTH 7 0
BBX 5 13 1 -3
BITMAP
F8
80
80
80
F8
80
80
80
80
F8
00
00
10
ENDCHAR
STARTCHAR 1EB9
ENCODING 7865
SWIDTH 504 0
DWIDTH 7 0
BBX 5 9 1 -2
BITMAP
70
88
88
F8
80
80
78
00
20
ENDCHAR
STARTCHAR 1EBA
ENCODING 7866
SWIDTH 504 0
DWIDTH 7 0
BBX 5 13 1 0
BITMAP
10
10
00
F8
80
80
80
F8
80
80
80
80
F8
ENDCHAR
STARTCHAR 1EBB
ENCODING 7867
SWIDTH 504 0
DWIDTH 7 0
BBX 5 10 1 0
BITMAP
10
20
00
70
88
88
F8
80
80
78
ENDCHAR
STARTCHAR 1EBC
ENCODING 7868
SWIDTH 504 0
DWIDTH 7 0
BBX 5 12 1 1
BITMAP
E8
10
F8
80
80
80
F8
80
80
80
80
F8
ENDCHAR
STARTCHAR 1EBD
ENCODING 7869
SWIDTH 504 0
DWIDTH 7 0
BBX 5 10 1 0
BITMAP
68
98
00
70
88
88
F8
80
80
78
ENDCHAR
STARTCHAR 1EBE
ENCODING 7870
SWIDTH 504 0
DWIDTH 7 0
BBX 6 13 1 0
BITMAP
04
38
00
F8
80
80
80
F8
80
80
80
80
F8
ENDCHAR
STARTCHAR 1EBF
ENCODING 7871
SWIDTH 504 0
DWIDTH 7 0
BBX 5 10 1 1
BITMAP
28
50
00
70
88
88
F8
80
80
78
ENDCHAR
STARTCHAR 1EC0
ENCODING 7872
SWIDTH 504 0
DWIDTH 7 0
BBX 5 13 1 0
BITMAP
80
70
00
F8
80
80
80
F8
80
80
80
80
F8
ENDCHAR
STARTCHAR 1EC1
ENCODING 7873
SWIDTH 504 0
DWIDTH 7 0
BBX 6 10 0 1
BITMAP
50
28
00
38
44
84
7C
80
40
3C
ENDCHAR
STARTCHAR 1EC2
ENCODING 7874
SWIDTH 504 0
DWIDTH 7 0
BBX 5 13 1 0
BITMAP
08
38
00
F8
80
80
80
F8
80
80
80
80
F8
ENDCHAR
STARTCHAR 1EC3
ENCODING 7875
SWIDTH 504 0
DWIDTH 7 0
BBX 5 11 1 0
BITMAP
08
28
50
00
70
88
88
F8
80
80
78
ENDCHAR
STARTCHAR 1EC4
ENCODING 7876
SWIDTH 504 0
DWIDTH 7 0
BBX 5 13 1 0
BITMAP
70
30
00
F8
80
80
80
F8
80
80
80
80
F8
ENDCHAR
STARTCHAR 1EC5
ENCODING 7877
SWIDTH 504 0
DWIDTH 7 0
BBX 5 11 1 0
BITMAP
70
20
50
00
70
88
88
F8
80
80
78
ENDCHAR
STARTCHAR 1EC6
ENCODING 7878
SWIDTH 504 0
DWIDTH 7 0
BBX 5 15 1 -3
BITMAP
70
00
F8
80
80
80
F8
80
80
80
80
F8
00
00
10
ENDCHAR
STARTCHAR 1EC7
ENCODING 7879
SWIDTH 504 0
DWIDTH 7 0
BBX 5 13 1 -2
BITMAP
20
50
08
00
70
88
88
F8
80
80
78
00
20
ENDCHAR
STARTCHAR 1EC8
ENCODING 7880
SWIDTH 216 0
DWIDTH 3 0
BBX 2 12 1 0
BITMAP
80
40
80
80
80
80
80
80
80
80
80
80
ENDCHAR
STARTCHAR 1EC9
ENCODING 7881
SWIDTH 216 0
DWIDTH 3 0
BBX 2 10 1 0
BITMAP
40
80
00
80
80
80
80
80
80
80
ENDCHAR
STARTCHAR 1ECA
ENCODING 7882
SWIDTH 216 0
DWIDTH 3 0
BBX 1 13 1 -3
BITMAP
80
80
80
80
80
80
80
80
80
80
00
00
80
ENDCHAR
STARTCHAR 1ECB
ENCODING 7883
SWIDTH 216 0
DWIDTH 3 0
BBX 1 13 1 -3
BITMAP
80
00
00
80
80
80
80
80
80
80
00
00
80
ENDCHAR
STARTCHAR 1ECC
ENCODING 7884
SWIDTH 648 0
DWIDTH 9 0
BBX 7 12 1 -2
BITMAP
38
C4
82
82
82
82
82
82
44
38
00
10
ENDCHAR
STARTCHAR 1ECD
ENCODING 7885
SWIDTH 504 0
DWIDTH 7 0
BBX 6 9 1 -2
BITMAP
70
88
84
84
84
88
70
00
20
ENDCHAR
STARTCHAR 1ECE
ENCODING 7886
SWIDTH 648 0
DWIDTH 9 0
BBX 7 12 1 0
BITMAP
10
10
38
C4
82
82
82
82
82
82
44
38
ENDCHAR
STARTCHAR 1ECF
ENCODING 7887
SWIDTH 504 0
DWIDTH 7 0
BBX 6 10 1 0
BITMAP
10
20
00
70
88
84
84
84
88
70
ENDCHAR
STARTCHAR 1ED0
ENCODING 7888
SWIDTH 648 0
DWIDTH 9 0
BBX 7 13 1 0
BITMAP
04
30
08
38
C4
82
82
82
82
82
82
44
38
ENDCHAR
STARTCHAR 1ED1
ENCODING 7889
SWIDTH 504 0
DWIDTH 7 0
BBX 6 10 1 1
BITMAP
28
50
00
70
88
84
84
84
88
70
ENDCHAR
STARTCHAR 1ED2
ENCODING 7890
SWIDTH 648 0
DWIDTH 9 0
BBX 7 13 1 0
BITMAP
40
30
08
38
C4
82
82
82
82
82
82
44
38
ENDCHAR
STARTCHAR 1ED3
ENCODING 7891
SWIDTH 504 0
DWIDTH 7 0
BBX 6 10 1 1
BITMAP
A0
50
00
70
88
84
84
84
88
70
ENDCHAR
STARTCHAR 1ED4
ENCODING 7892
SWIDTH 648 0
DWIDTH 9 0
BBX 7 13 1 0
BITMAP
04
34
08
38
C4
82
82
82
82
82
82
44
38
ENDCHAR
STARTCHAR 1ED5
ENCODING 7893
SWIDTH 504 0
DWIDTH 7 0
BBX 6 11 1 0
BITMAP
08
28
50
00
70
88
84
84
84
88
70
ENDCHAR
STARTCHAR 1ED6
ENCODING 7894
SWIDTH 648 0
DWIDTH 9 0
BBX 7 13 1 0
BITMAP
18
30
08
38
C4
82
82
82
82
82
82
44
38
ENDCHAR
STARTCHAR 1ED7
ENCODING 7895
SWIDTH 504 0
DWIDTH 7 0
BBX 6 11 1 0
BITMAP
70
20
50
00
70
88
84
84
84
88
70
ENDCHAR
STARTCHAR 1ED8
ENCODING 7896
SWIDTH 648 0
DWIDTH 9 0
BBX 7 14 1 -2
BITMAP
38
00
38
C4
82
82
82
82
82
82
44
38
00
10
ENDCHAR
STARTCHAR 1ED9
ENCODING 7897
SWIDTH 504 0
DWIDTH 7 0
BBX 6 13 1 -2
BITMAP
20
50
08
00
70
88
84
84
84
88
70
00
20
ENDCHAR
STARTCHAR 1EDA
ENCODING 7898
SWIDTH 648 0
DWIDTH 9 0
BBX 7 12 1 1
BITMAP
1A
02
3E
44
82
82
82
82
82
82
44
38
ENDCHAR
STARTCHAR 1EDB
ENCODING 7899
SWIDTH 504 0
DWIDTH 7 0
BBX 6 10 1 0
BITMAP
10
24
04
78
88
84
84
84
88
70
ENDCHAR
STARTCHAR 1EDC
ENCODING 7900
SWIDTH 648 0
DWIDTH 9 0
BBX 7 12 1 1
BITMAP
22
02
3E
44
82
82
82
82
82
82
44
38
ENDCHAR
STARTCHAR 1EDD
ENCODING 7901
SWIDTH 504 0
DWIDTH 7 0
BBX 6 10 1 0
BITMAP
40
24
04
78
88
84
84
84
88
70
ENDCHAR
STARTCHAR 1EDE
ENCODING 7902
SWIDTH 648 0
DWIDTH 9 0
BBX 7 12 1 0
BITMAP
10
12
3E
44
82
82
82
82
82
82
44
38
ENDCHAR
STARTCHAR 1EDF
ENCODING 7903
SWIDTH 504 0
DWIDTH 7 0
BBX 6 10 1 0
BITMAP
10
24
04
78
88
84
84
84
88
70
ENDCHAR
STARTCHAR 1EE0
ENCODING 7904
SWIDTH 648 0
DWIDTH 9 0
BBX 7 12 1 1
BITMAP
76
0A
3E
44
82
82
82
82
82
82
44
38
ENDCHAR
STARTCHAR 1EE1
ENCODING 7905
SWIDTH 504 0
DWIDTH 7 0
BBX 6 10 1 0
BITMAP
68
9C
04
78
88
84
84
84
88
70
ENDCHAR
STARTCHAR 1EE2
ENCODING 7906
SWIDTH 648 0
DWIDTH 9 0
BBX 7 14 1 -2
BITMAP
02
02
3E
44
82
82
82
82
82
82
44
38
00
10
ENDCHAR
STARTCHAR 1EE3
ENCODING 7907
SWIDTH 504 0
DWIDTH 7 0
BBX 6 11 1 -2
BITMAP
04
04
78
88
84
84
84
88
70
00
20
ENDCHAR
STARTCHAR 1EE4
ENCODING 7908
SWIDTH 648 0
DWIDTH 9 0
BBX 6 12 1 -2
BITMAP
84
84
84
84
84
84
84
84
44
38
00
10
ENDCHAR
STARTCHAR 1EE5
ENCODING 7909
SWIDTH 504 0
DWIDTH 7 0
BBX 5 9 1 -2
BITMAP
88
88
88
88
88
88
78
00
20
ENDCHAR
STARTCHAR 1EE6
ENCODING 7910
SWIDTH 648 0
DWIDTH 9 0
BBX 6 12 1 0
BITMAP
10
10
00
84
84
84
84
84
84
84
84
78
ENDCHAR
STARTCHAR 1EE7
ENCODING 7911
SWIDTH 504 0
DWIDTH 7 0
BBX 5 10 1 0
BITMAP
10
20
00
88
88
88
88
88
88
70
ENDCHAR
STARTCHAR 1EE8
ENCODING 7912
SWIDTH 648 0
DWIDTH 9 0
BBX 8 13 1 0
BITMAP
08
11
01
86
84
84
84
84
84
84
84
44
38
ENDCHAR
STARTCHAR 1EE9
ENCODING 7913
SWIDTH 504 0
DWIDTH 7 0
BBX 6 10 1 0
BITMAP
10
24
04
88
88
88
88
88
88
78
ENDCHAR
STARTCHAR 1EEA
ENCODING 7914
SWIDTH 648 0
DWIDTH 9 0
BBX 8 12 1 1
BITMAP
21
01
86
84
84
84
84
84
84
84
44
38
ENDCHAR
STARTCHAR 1EEB
ENCODING 7915
SWIDTH 504 0
DWIDTH 7 0
BBX 6 10 1 0
BITMAP
40
24
04
88
88
88
88
88
88
78
ENDCHAR
STARTCHAR 1EEC
ENCODING 7916
SWIDTH 648 0
DWIDTH 9 0
BBX 8 12 1 0
BITMAP
10
11
01
86
84
84
84
84
84
84
84
78
ENDCHAR
STARTCHAR 1EED
ENCODING 7917
SWIDTH 504 0
DWIDTH 7 0
BBX 6 10 1 0
BITMAP
10
24
04
88
88
88
88
88
88
70
ENDCHAR
STARTCHAR 1EEE
ENCODING 7918
SWIDTH 648 0
DWIDTH 9 0
BBX 8 12 1 1
BITMAP
79
01
86
84
84
84
84
84
84
84
44
38
ENDCHAR
STARTCHAR 1EEF
ENCODING 7919
SWIDTH 504 0
DWIDTH 7 0
BBX 6 10 1 0
BITMAP
68
14
04
88
88
88
88
88
88
78
ENDCHAR
STARTCHAR 1EF0
ENCODING 7920
SWIDTH 648 0
DWIDTH 9 0
BBX 8 14 1 -2
BITMAP
01
01
86
84
84
84
84
84
84
84
44
38
00
10
ENDCHAR
STARTCHAR 1EF1
ENCODING 7921
SWIDTH 504 0
DWIDTH 7 0
BBX 6 11 1 -2
BITMAP
04
04
88
88
88
88
88
88
78
00
20
ENDCHAR
STARTCHAR 1EF2
ENCODING 7922
SWIDTH 432 0
DWIDTH 6 0
BBX 6 12 0 1
BITMAP
20
00
84
88
48
48
30
10
20
20
20
20
ENDCHAR
STARTCHAR 1EF3
ENCODING 7923
SWIDTH 432 0
DWIDTH 6 0
BBX 6 13 0 -3
BITMAP
20
10
00
84
88
48
48
50
30
10
20
20
C0
ENDCHAR
STARTCHAR 1EF4
ENCODING 7924
SWIDTH 432 0
DWIDTH 6 0
BBX 6 13 0 -3
BITMAP
84
88
48
48
30
10
20
20
20
20
00
00
10
ENDCHAR
STARTCHAR 1EF5
ENCODING 7925
SWIDTH 432 0
DWIDTH 6 0
BBX 6 10 0 -3
BITMAP
84
88
48
48
50
30
10
20
20
CC
ENDCHAR
STARTCHAR 1EF6
ENCODING 7926
SWIDTH 432 0
DWIDTH 6 0
BBX 6 11 0 0
BITMAP
10
10
00
84
48
48
50
30
20
20
20
ENDCHAR
STARTCHAR 1EF7
ENCODING 7927
SWIDTH 432 0
DWIDTH 6 0
BBX 6 13 0 -3
BITMAP
10
10
00
84
88
48
48
50
30
10
20
20
C0
ENDCHAR
STARTCHAR 1EF8
ENCODING 7928
SWIDTH 432 0
DWIDTH 6 0
BBX 6 12 0 1
BITMAP
F8
00
84
88
48
48
30
10
20
20
20
20
ENDCHAR
STARTCHAR 1EF9
ENCODING 7929
SWIDTH 432 0
DWIDTH 6 0
BBX 6 13 0 -3
BITMAP
60
18
00
84
88
48
48
50
30
10
20
20
C0
ENDCHAR
STARTCHAR 1F00
ENCODING 7936
SWIDTH 576 0
DWIDTH 8 0
BBX 6 10 1 0
BITMAP
10
20
00
74
88
88
88
88
88
74
ENDCHAR
STARTCHAR 1F01
ENCODING 7937
SWIDTH 576 0
DWIDTH 8 0
BBX 6 10 1 0
BITMAP
60
20
00
74
88
88
88
88
88
74
ENDCHAR
STARTCHAR 1F02
ENCODING 7938
SWIDTH 576 0
DWIDTH 8 0
BBX 6 11 1 0
BITMAP
10
30
40
00
74
88
88
88
88
88
74
ENDCHAR
STARTCHAR 1F03
ENCODING 7939
SWIDTH 576 0
DWIDTH 8 0
BBX 6 10 1 1
BITMAP
D0
50
00
74
88
88
88
88
88
74
ENDCHAR
STARTCHAR 1F04
ENCODING 7940
SWIDTH 576 0
DWIDTH 8 0
BBX 6 10 1 1
BITMAP
30
50
00
74
88
88
88
88
88
74
ENDCHAR
STARTCHAR 1F05
ENCODING 7941
SWIDTH 576 0
DWIDTH 8 0
BBX 6 10 1 1
BITMAP
50
50
00
74
88
88
88
88
88
74
ENDCHAR
STARTCHAR 1F06
ENCODING 7942
SWIDTH 576 0
DWIDTH 8 0
BBX 6 11 1 0
BITMAP
78
00
10
00
74
88
88
88
88
88
74
ENDCHAR
STARTCHAR 1F07
ENCODING 7943
SWIDTH 576 0
DWIDTH 8 0
BBX 6 11 1 0
BITMAP
78
00
20
00
74
88
88
88
88
88
74
ENDCHAR
STARTCHAR 1F08
ENCODING 7944
SWIDTH 504 0
DWIDTH 7 0
BBX 7 10 0 0
BITMAP
90
58
A8
28
24
44
7C
42
82
82
ENDCHAR
STARTCHAR 1F09
ENCODING 7945
SWIDTH 504 0
DWIDTH 7 0
BBX 7 10 0 0
BITMAP
90
A8
28
28
24
44
7C
44
82
82
ENDCHAR
STARTCHAR 1F0A
ENCODING 7946
SWIDTH 648 0
DWIDTH 9 0
BBX 9 10 0 0
BITMAP
A400
AC00
AC00
0A00
1200
1200
1F00
2100
2100
2080
ENDCHAR
STARTCHAR 1F0B
ENCODING 7947
SWIDTH 648 0
DWIDTH 9 0
BBX 9 10 0 0
BITMAP
8400
AC00
AC00
1200
1200
1200
1F00
2100
2100
2080
ENDCHAR
STARTCHAR 1F0C
ENCODING 7948
SWIDTH 648 0
DWIDTH 9 0
BBX 9 10 0 0
BITMAP
A400
AC00
8C00
1200
1200
1200
1F00
2100
2100
2080
ENDCHAR
STARTCHAR 1F0D
ENCODING 7949
SWIDTH 648 0
DWIDTH 9 0
BBX 9 10 0 0
BITMAP
A400
CC00
8C00
1200
1200
1200
1F00
2100
2100
2080
ENDCHAR
STARTCHAR 1F0E
ENCODING 7950
SWIDTH 576 0
DWIDTH 8 0
BBX 7 10 1 0
BITMAP
90
B0
B0
48
48
48
7C
84
84
82
ENDCHAR
STARTCHAR 1F0F
ENCODING 7951
SWIDTH 576 0
DWIDTH 8 0
BBX 8 10 0 0
BITMAP
48
98
18
24
24
24
3E
42
42
41
ENDCHAR
STARTCHAR 1F10
ENCODING 7952
SWIDTH 432 0
DWIDTH 6 0
BBX 4 10 1 0
BITMAP
20
20
00
70
80
80
60
80
80
F0
ENDCHAR
STARTCHAR 1F11
ENCODING 7953
SWIDTH 432 0
DWIDTH 6 0
BBX 4 10 1 0
BITMAP
40
20
00
70
80
80
60
80
80
F0
ENDCHAR
STARTCHAR 1F12
ENCODING 7954
SWIDTH 432 0
DWIDTH 6 0
BBX 4 11 1 0
BITMAP
20
60
50
00
70
80
80
60
80
80
F0
ENDCHAR
STARTCHAR 1F13
ENCODING 7955
SWIDTH 432 0
DWIDTH 6 0
BBX 4 11 1 0
BITMAP
20
A0
40
00
70
80
80
60
80
80
F0
ENDCHAR
STARTCHAR 1F14
ENCODING 7956
SWIDTH 432 0
DWIDTH 6 0
BBX 4 11 1 0
BITMAP
10
60
60
00
70
80
80
60
80
80
F0
ENDCHAR
STARTCHAR 1F15
ENCODING 7957
SWIDTH 432 0
DWIDTH 6 0
BBX 4 11 1 0
BITMAP
10
A0
60
00
70
80
80
60
80
80
F0
ENDCHAR
STARTCHAR 1F18
ENCODING 7960
SWIDTH 576 0
DWIDTH 8 0
BBX 8 10 0 0
BITMAP
9F
60
A0
20
1E
20
20
20
20
1F
ENDCHAR
STARTCHAR 1F19
ENCODING 7961
SWIDTH 576 0
DWIDTH 8 0
BBX 8 10 0 0
BITMAP
9F
A0
20
20
1E
20
20
20
20
1F
ENDCHAR
STARTCHAR 1F1A
ENCODING 7962
SWIDTH 720 0
DWIDTH 10 0
BBX 9 10 0 0
BITMAP
AF80
A800
A800
0800
0F00
0800
0800
0800
0800
0F80
ENDCHAR
STARTCHAR 1F1B
ENCODING 7963
SWIDTH 720 0
DWIDTH 10 0
BBX 9 10 0 0
BITMAP
8F80
B000
B000
1000
0F00
1000
1000
1000
1000
0F80
ENDCHAR
STARTCHAR 1F1C
ENCODING 7964
SWIDTH 720 0
DWIDTH 10 0
BBX 9 10 0 0
BITMAP
AF80
A800
8800
0800
0F00
0800
0800
0800
0800
0F80
ENDCHAR
STARTCHAR 1F1D
ENCODING 7965
SWIDTH 720 0
DWIDTH 10 0
BBX 9 10 0 0
BITMAP
AF80
D000
9000
1000
0F00
1000
1000
1000
1000
0F80
ENDCHAR
STARTCHAR 1F20
ENCODING 7968
SWIDTH 504 0
DWIDTH 7 0
BBX 5 11 1 -2
BITMAP
10
20
00
B8
C8
88
88
88
88
88
08
ENDCHAR
STARTCHAR 1F21
ENCODING 7969
SWIDTH 504 0
DWIDTH 7 0
BBX 5 11 1 -2
BITMAP
20
20
00
B8
C8
88
88
88
88
88
08
ENDCHAR
STARTCHAR 1F22
ENCODING 7970
SWIDTH 504 0
DWIDTH 7 0
BBX 5 12 1 -2
BITMAP
10
30
50
00
B8
C8
88
88
88
88
88
08
ENDCHAR
STARTCHAR 1F23
ENCODING 7971
SWIDTH 504 0
DWIDTH 7 0
BBX 5 12 1 -2
BITMAP
10
D0
50
00
B8
C8
88
88
88
88
88
08
ENDCHAR
STARTCHAR 1F24
ENCODING 7972
SWIDTH 504 0
DWIDTH 7 0
BBX 5 11 1 -1
BITMAP
30
50
00
B8
C8
88
88
88
88
88
08
ENDCHAR
STARTCHAR 1F25
ENCODING 7973
SWIDTH 504 0
DWIDTH 7 0
BBX 5 11 1 -1
BITMAP
50
10
00
B8
C8
88
88
88
88
88
08
ENDCHAR
STARTCHAR 1F26
ENCODING 7974
SWIDTH 504 0
DWIDTH 7 0
BBX 5 12 1 -2
BITMAP
78
00
10
00
B8
C8
88
88
88
88
88
08
ENDCHAR
STARTCHAR 1F27
ENCODING 7975
SWIDTH 504 0
DWIDTH 7 0
BBX 5 12 1 -2
BITMAP
78
00
20
00
B8
C8
88
88
88
88
88
08
ENDCHAR
STARTCHAR 1F28
ENCODING 7976
SWIDTH 720 0
DWIDTH 10 0
BBX 9 10 0 0
BITMAP
A080
6080
A080
2080
1F80
2080
2080
2080
2080
2080
ENDCHAR
STARTCHAR 1F29
ENCODING 7977
SWIDTH 720 0
DWIDTH 10 0
BBX 9 10 0 0
BITMAP
A080
A080
2080
2080
1F80
2080
2080
2080
2080
2080
ENDCHAR
STARTCHAR 1F2A
ENCODING 7978
SWIDTH 792 0
DWIDTH 11 0
BBX 10 10 0 0
BITMAP
A840
A840
A840
0840
0FC0
0840
0840
0840
0840
0840
ENDCHAR
STARTCHAR 1F2B
ENCODING 7979
SWIDTH 792 0
DWIDTH 11 0
BBX 10 10 0 0
BITMAP
9040
B040
B040
1040
0FC0
1040
1040
1040
1040
1040
ENDCHAR
STARTCHAR 1F2C
ENCODING 7980
SWIDTH 792 0
DWIDTH 11 0
BBX 10 10 0 0
BITMAP
A840
A840
8840
0840
0FC0
0840
0840
0840
0840
0840
ENDCHAR
STARTCHAR 1F2D
ENCODING 7981
SWIDTH 792 0
DWIDTH 11 0
BBX 10 10 0 0
BITMAP
B040
D040
9040
1040
0FC0
1040
1040
1040
1040
1040
ENDCHAR
STARTCHAR 1F2E
ENCODING 7982
SWIDTH 792 0
DWIDTH 11 0
BBX 9 10 1 0
BITMAP
A080
A080
A080
2080
1F80
2080
2080
2080
2080
2080
ENDCHAR
STARTCHAR 1F2F
ENCODING 7983
SWIDTH 792 0
DWIDTH 11 0
BBX 10 10 0 0
BITMAP
5040
9040
1040
1040
0FC0
1040
1040
1040
1040
1040
ENDCHAR
STARTCHAR 1F30
ENCODING 7984
SWIDTH 216 0
DWIDTH 3 0
BBX 2 11 1 0
BITMAP
80
40
80
00
80
80
80
80
80
80
C0
ENDCHAR
STARTCHAR 1F31
ENCODING 7985
SWIDTH 216 0
DWIDTH 3 0
BBX 2 10 1 0
BITMAP
80
80
00
80
80
80
80
80
80
C0
ENDCHAR
STARTCHAR 1F32
ENCODING 7986
SWIDTH 216 0
DWIDTH 3 0
BBX 3 10 0 1
BITMAP
A0
A0
00
40
40
40
40
40
40
60
ENDCHAR
STARTCHAR 1F33
ENCODING 7987
SWIDTH 216 0
DWIDTH 3 0
BBX 3 10 0 1
BITMAP
C0
A0
00
40
40
40
40
40
40
60
ENDCHAR
STARTCHAR 1F34
ENCODING 7988
SWIDTH 216 0
DWIDTH 3 0
BBX 3 11 0 0
BITMAP
20
A0
80
00
40
40
40
40
40
40
60
ENDCHAR
STARTCHAR 1F35
ENCODING 7989
SWIDTH 216 0
DWIDTH 3 0
BBX 3 11 0 0
BITMAP
20
A0
80
00
40
40
40
40
40
40
60
ENDCHAR
STARTCHAR 1F36
ENCODING 7990
SWIDTH 216 0
DWIDTH 3 0
BBX 2 11 1 0
BITMAP
C0
00
80
00
80
80
80
80
80
80
C0
ENDCHAR
STARTCHAR 1F37
ENCODING 7991
SWIDTH 216 0
DWIDTH 3 0
BBX 3 11 0 0
BITMAP
60
00
80
00
40
40
40
40
40
40
60
ENDCHAR
STARTCHAR 1F38
ENCODING 7992
SWIDTH 360 0
DWIDTH 5 0
BBX 3 10 0 0
BITMAP
A0
60
A0
20
20
20
20
20
20
20
ENDCHAR
STARTCHAR 1F39
ENCODING 7993
SWIDTH 360 0
DWIDTH 5 0
BBX 3 10 0 0
BITMAP
A0
A0
20
20
20
20
20
20
20
20
ENDCHAR
STARTCHAR 1F3A
ENCODING 7994
SWIDTH 432 0
DWIDTH 6 0
BBX 5 10 0 0
BITMAP
A8
A8
A8
08
08
08
08
08
08
08
ENDCHAR
STARTCHAR 1F3B
ENCODING 7995
SWIDTH 432 0
DWIDTH 6 0
BBX 4 10 0 0
BITMAP
90
B0
B0
10
10
10
10
10
10
10
ENDCHAR
STARTCHAR 1F3C
ENCODING 7996
SWIDTH 432 0
DWIDTH 6 0
BBX 5 10 0 0
BITMAP
A8
A8
88
08
08
08
08
08
08
08
ENDCHAR
STARTCHAR 1F3D
ENCODING 7997
SWIDTH 432 0
DWIDTH 6 0
BBX 4 10 0 0
BITMAP
B0
D0
90
10
10
10
10
10
10
10
ENDCHAR
STARTCHAR 1F3E
ENCODING 7998
SWIDTH 432 0
DWIDTH 6 0
BBX 3 10 1 0
BITMAP
A0
A0
A0
20
20
20
20
20
20
20
ENDCHAR
STARTCHAR 1F3F
ENCODING 7999
SWIDTH 432 0
DWIDTH 6 0
BBX 4 10 0 0
BITMAP
50
90
50
10
10
10
10
10
10
10
ENDCHAR
STARTCHAR 1F40
ENCODING 8000
SWIDTH 504 0
DWIDTH 7 0
BBX 6 10 1 0
BITMAP
10
20
00
70
88
88
84
88
88
70
ENDCHAR
STARTCHAR 1F41
ENCODING 8001
SWIDTH 504 0
DWIDTH 7 0
BBX 6 10 1 0
BITMAP
60
20
00
70
88
88
84
88
88
70
ENDCHAR
STARTCHAR 1F42
ENCODING 8002
SWIDTH 504 0
DWIDTH 7 0
BBX 6 10 1 1
BITMAP
50
50
00
70
88
88
84
88
88
70
ENDCHAR
STARTCHAR 1F43
ENCODING 8003
SWIDTH 504 0
DWIDTH 7 0
BBX 6 10 1 1
BITMAP
E0
50
00
70
88
88
84
88
88
70
ENDCHAR
STARTCHAR 1F44
ENCODING 8004
SWIDTH 504 0
DWIDTH 7 0
BBX 6 11 1 0
BITMAP
10
50
40
00
70
88
88
84
88
88
70
ENDCHAR
STARTCHAR 1F45
ENCODING 8005
SWIDTH 504 0
DWIDTH 7 0
BBX 6 11 1 0
BITMAP
10
D0
40
00
70
88
88
84
88
88
70
ENDCHAR
STARTCHAR 1F48
ENCODING 8008
SWIDTH 720 0
DWIDTH 10 0
BBX 9 10 0 0
BITMAP
8E00
7100
A080
2080
4080
4080
2080
2080
2100
1E00
ENDCHAR
STARTCHAR 1F49
ENCODING 8009
SWIDTH 720 0
DWIDTH 10 0
BBX 9 10 0 0
BITMAP
8E00
B100
A080
4080
4080
4080
4080
2080
2100
1E00
ENDCHAR
STARTCHAR 1F4A
ENCODING 8010
SWIDTH 792 0
DWIDTH 11 0
BBX 11 10 0 0
BITMAP
A780
A840
B040
1020
1020
1020
1020
1040
0840
0780
ENDCHAR
STARTCHAR 1F4B
ENCODING 8011
SWIDTH 792 0
DWIDTH 11 0
BBX 11 10 0 0
BITMAP
8780
A840
B040
1020
1020
1020
1020
1040
0840
0780
ENDCHAR
STARTCHAR 1F4C
ENCODING 8012
SWIDTH 792 0
DWIDTH 11 0
BBX 11 10 0 0
BITMAP
A780
A840
9040
1020
1020
1020
1020
1040
0840
0780
ENDCHAR
STARTCHAR 1F4D
ENCODING 8013
SWIDTH 792 0
DWIDTH 11 0
BBX 11 10 0 0
BITMAP
A780
C840
9040
1040
1020
1020
1040
1040
0840
0780
ENDCHAR
STARTCHAR 1F50
ENCODING 8016
SWIDTH 504 0
DWIDTH 7 0
BBX 5 10 1 0
BITMAP
20
20
00
88
88
88
88
88
88
70
ENDCHAR
STARTCHAR 1F51
ENCODING 8017
SWIDTH 504 0
DWIDTH 7 0
BBX 5 10 1 0
BITMAP
40
20
00
88
88
88
88
88
88
70
ENDCHAR
STARTCHAR 1F52
ENCODING 8018
SWIDTH 504 0
DWIDTH 7 0
BBX 5 11 1 0
BITMAP
20
60
00
00
88
88
88
88
88
88
70
ENDCHAR
STARTCHAR 1F53
ENCODING 8019
SWIDTH 504 0
DWIDTH 7 0
BBX 5 11 1 0
BITMAP
20
A0
00
00
88
88
88
88
88
88
70
ENDCHAR
STARTCHAR 1F54
ENCODING 8020
SWIDTH 504 0
DWIDTH 7 0
BBX 5 11 1 0
BITMAP
10
60
20
00
88
88
88
88
88
88
70
ENDCHAR
STARTCHAR 1F55
ENCODING 8021
SWIDTH 504 0
DWIDTH 7 0
BBX 5 11 1 0
BITMAP
10
A0
60
00
88
88
88
88
88
88
70
ENDCHAR
STARTCHAR 1F56
ENCODING 8022
SWIDTH 504 0
DWIDTH 7 0
BBX 5 11 1 0
BITMAP
F0
00
20
00
88
88
88
88
88
88
70
ENDCHAR
STARTCHAR 1F57
ENCODING 8023
SWIDTH 504 0
DWIDTH 7 0
BBX 5 11 1 0
BITMAP
F0
00
40
00
88
88
88
88
88
88
70
ENDCHAR
STARTCHAR 1F59
ENCODING 8025
SWIDTH 576 0
DWIDTH 8 0
BBX 8 10 0 0
BITMAP
A1
A1
12
12
0C
04
08
08
08
08
ENDCHAR
STARTCHAR 1F5B
ENCODING 8027
SWIDTH 720 0
DWIDTH 10 0
BBX 9 10 0 0
BITMAP
9080
A880
A900
0500
0600
0200
0200
0200
0200
0200
ENDCHAR
STARTCHAR 1F5D
ENCODING 8029
SWIDTH 720 0
DWIDTH 10 0
BBX 9 10 0 0
BITMAP
B080
C880
8900
0500
0600
0200
0200
0200
0200
0200
ENDCHAR
STARTCHAR 1F5F
ENCODING 8031
SWIDTH 648 0
DWIDTH 9 0
BBX 9 10 0 0
BITMAP
5080
8880
4900
0900
0600
0200
0200
0200
0200
0200
ENDCHAR
STARTCHAR 1F60
ENCODING 8032
SWIDTH 648 0
DWIDTH 9 0
BBX 8 10 1 0
BITMAP
08
10
00
42
82
82
91
91
92
6E
ENDCHAR
STARTCHAR 1F61
ENCODING 8033
SWIDTH 648 0
DWIDTH 9 0
BBX 8 10 1 0
BITMAP
30
10
00
42
82
82
91
91
92
6E
ENDCHAR
STARTCHAR 1F62
ENCODING 8034
SWIDTH 648 0
DWIDTH 9 0
BBX 8 10 1 1
BITMAP
28
28
00
42
82
82
91
91
92
6E
ENDCHAR
STARTCHAR 1F63
ENCODING 8035
SWIDTH 648 0
DWIDTH 9 0
BBX 8 10 1 1
BITMAP
68
28
00
42
82
82
91
91
92
6E
ENDCHAR
STARTCHAR 1F64
ENCODING 8036
SWIDTH 648 0
DWIDTH 9 0
BBX 8 11 1 0
BITMAP
08
28
30
00
42
82
82
91
91
92
6E
ENDCHAR
STARTCHAR 1F65
ENCODING 8037
SWIDTH 648 0
DWIDTH 9 0
BBX 8 11 1 0
BITMAP
08
68
30
00
42
82
82
91
91
92
6E
ENDCHAR
STARTCHAR 1F66
ENCODING 8038
SWIDTH 648 0
DWIDTH 9 0
BBX 8 11 1 0
BITMAP
38
00
10
00
42
82
82
91
91
92
6E
ENDCHAR
STARTCHAR 1F67
ENCODING 8039
SWIDTH 648 0
DWIDTH 9 0
BBX 8 11 1 0
BITMAP
38
00
20
00
42
82
82
91
91
92
6E
ENDCHAR
STARTCHAR 1F68
ENCODING 8040
SWIDTH 720 0
DWIDTH 10 0
BBX 9 10 0 0
BITMAP
8E00
5100
A080
2080
4080
4080
2080
2080
1100
3980
ENDCHAR
STARTCHAR 1F69
ENCODING 8041
SWIDTH 720 0
DWIDTH 10 0
BBX 9 10 0 0
BITMAP
8E00
B100
A080
4080
4080
4080
4080
2080
2100
7380
ENDCHAR
STARTCHAR 1F6A
ENCODING 8042
SWIDTH 864 0
DWIDTH 12 0
BBX 11 10 0 0
BITMAP
A780
A840
B040
1020
1020
1020
1020
1040
0840
1CE0
ENDCHAR
STARTCHAR 1F6B
ENCODING 8043
SWIDTH 792 0
DWIDTH 11 0
BBX 11 10 0 0
BITMAP
8780
A840
B040
1020
1020
1020
1040
1040
0840
1CE0
ENDCHAR
STARTCHAR 1F6C
ENCODING 8044
SWIDTH 864 0
DWIDTH 12 0
BBX 11 10 0 0
BITMAP
A780
A840
9040
1020
1020
1020
1020
1040
0840
1CE0
ENDCHAR
STARTCHAR 1F6D
ENCODING 8045
SWIDTH 792 0
DWIDTH 11 0
BBX 11 10 0 0
BITMAP
A780
C840
9040
1020
1020
1020
1040
1040
0840
1CE0
ENDCHAR
STARTCHAR 1F6E
ENCODING 8046
SWIDTH 792 0
DWIDTH 11 0
BBX 10 10 0 0
BITMAP
E700
1880
5040
2040
2040
2040
2040
1040
1080
39C0
ENDCHAR
STARTCHAR 1F6F
ENCODING 8047
SWIDTH 792 0
DWIDTH 11 0
BBX 10 10 0 0
BITMAP
E700
1880
9040
2040
2040
2040
2040
1040
1080
39C0
ENDCHAR
STARTCHAR 1F70
ENCODING 8048
SWIDTH 576 0
DWIDTH 8 0
BBX 6 10 1 0
BITMAP
20
00
00
74
88
88
88
88
88
74
ENDCHAR
STARTCHAR 1F71
ENCODING 8049
SWIDTH 576 0
DWIDTH 8 0
BBX 6 10 1 0
BITMAP
10
20
00
74
88
88
88
88
88
74
ENDCHAR
STARTCHAR 1F72
ENCODING 8050
SWIDTH 432 0
DWIDTH 6 0
BBX 4 10 1 0
BITMAP
40
20
00
70
80
80
60
80
80
F0
ENDCHAR
STARTCHAR 1F73
ENCODING 8051
SWIDTH 432 0
DWIDTH 6 0
BBX 4 10 1 0
BITMAP
20
00
00
70
80
80
60
80
80
F0
ENDCHAR
STARTCHAR 1F74
ENCODING 8052
SWIDTH 504 0
DWIDTH 7 0
BBX 5 11 1 -2
BITMAP
20
00
00
B8
C8
88
88
88
88
88
08
ENDCHAR
STARTCHAR 1F75
ENCODING 8053
SWIDTH 504 0
DWIDTH 7 0
BBX 5 11 1 -2
BITMAP
10
20
00
B8
C8
88
88
88
88
88
08
ENDCHAR
STARTCHAR 1F76
ENCODING 8054
SWIDTH 216 0
DWIDTH 3 0
BBX 3 10 0 0
BITMAP
80
00
00
40
40
40
40
40
40
60
ENDCHAR
STARTCHAR 1F77
ENCODING 8055
SWIDTH 216 0
DWIDTH 3 0
BBX 2 10 1 0
BITMAP
40
80
00
80
80
80
80
80
80
C0
ENDCHAR
STARTCHAR 1F78
ENCODING 8056
SWIDTH 504 0
DWIDTH 7 0
BBX 6 10 1 0
BITMAP
40
20
00
70
88
88
84
88
88
70
ENDCHAR
STARTCHAR 1F79
ENCODING 8057
SWIDTH 504 0
DWIDTH 7 0
BBX 6 10 1 0
BITMAP
10
20
00
70
88
88
84
88
88
70
ENDCHAR
STARTCHAR 1F7A
ENCODING 8058
SWIDTH 504 0
DWIDTH 7 0
BBX 5 10 1 0
BITMAP
40
20
00
88
88
88
88
88
88
70
ENDCHAR
STARTCHAR 1F7B
ENCODING 8059
SWIDTH 504 0
DWIDTH 7 0
BBX 5 10 1 0
BITMAP
20
00
00
88
88
88
88
88
88
70
ENDCHAR
STARTCHAR 1F7C
ENCODING 8060
SWIDTH 648 0
DWIDTH 9 0
BBX 8 10 1 0
BITMAP
20
10
00
42
82
82
91
91
92
6E
ENDCHAR
STARTCHAR 1F7D
ENCODING 8061
SWIDTH 648 0
DWIDTH 9 0
BBX 8 10 1 0
BITMAP
08
10
00
42
82
82
91
91
92
6E
ENDCHAR
STARTCHAR 1F80
ENCODING 8064
SWIDTH 576 0
DWIDTH 8 0
BBX 6 12 1 -2
BITMAP
10
20
00
74
88
88
88
88
88
74
00
20
ENDCHAR
STARTCHAR 1F81
ENCODING 8065
SWIDTH 576 0
DWIDTH 8 0
BBX 6 12 1 -2
BITMAP
60
20
00
74
88
88
88
88
88
74
00
20
ENDCHAR
STARTCHAR 1F82
ENCODING 8066
SWIDTH 576 0
DWIDTH 8 0
BBX 6 13 1 -2
BITMAP
10
30
40
00
74
88
88
88
88
88
74
00
20
ENDCHAR
STARTCHAR 1F83
ENCODING 8067
SWIDTH 576 0
DWIDTH 8 0
BBX 6 12 1 -1
BITMAP
D0
50
00
74
88
88
88
88
88
74
00
20
ENDCHAR
STARTCHAR 1F84
ENCODING 8068
SWIDTH 576 0
DWIDTH 8 0
BBX 6 12 1 -1
BITMAP
30
50
00
74
88
88
88
88
88
74
00
20
ENDCHAR
STARTCHAR 1F85
ENCODING 8069
SWIDTH 576 0
DWIDTH 8 0
BBX 6 12 1 -1
BITMAP
50
50
00
74
88
88
88
88
88
74
00
20
ENDCHAR
STARTCHAR 1F86
ENCODING 8070
SWIDTH 576 0
DWIDTH 8 0
BBX 6 13 1 -2
BITMAP
78
00
10
00
74
88
88
88
88
88
74
00
20
ENDCHAR
STARTCHAR 1F87
ENCODING 8071
SWIDTH 576 0
DWIDTH 8 0
BBX 6 13 1 -2
BITMAP
78
00
20
00
74
88
88
88
88
88
74
00
20
ENDCHAR
STARTCHAR 1F88
ENCODING 8072
SWIDTH 792 0
DWIDTH 11 0
BBX 10 10 0 0
BITMAP
9000
5800
A800
2800
2480
4480
7C80
4280
8280
8240
ENDCHAR
STARTCHAR 1F89
ENCODING 8073
SWIDTH 792 0
DWIDTH 11 0
BBX 10 10 0 0
BITMAP
9000
A800
2800
2800
2480
4480
7C80
4480
8280
8240
ENDCHAR
STARTCHAR 1F8A
ENCODING 8074
SWIDTH 864 0
DWIDTH 12 0
BBX 12 10 0 0
BITMAP
A400
AC00
AC00
0A00
1220
1220
1F20
2120
2120
20B0
ENDCHAR
STARTCHAR 1F8B
ENCODING 8075
SWIDTH 864 0
DWIDTH 12 0
BBX 12 10 0 0
BITMAP
8400
AC00
AC00
1200
1220
1220
1F20
2120
2120
20B0
ENDCHAR
STARTCHAR 1F8C
ENCODING 8076
SWIDTH 864 0
DWIDTH 12 0
BBX 12 10 0 0
BITMAP
A400
AC00
8C00
1200
1220
1220
1F20
2120
2120
20B0
ENDCHAR
STARTCHAR 1F8D
ENCODING 8077
SWIDTH 864 0
DWIDTH 12 0
BBX 12 10 0 0
BITMAP
A400
CC00
8C00
1200
1220
1220
1F20
2120
2120
20B0
ENDCHAR
STARTCHAR 1F8E
ENCODING 8078
SWIDTH 792 0
DWIDTH 11 0
BBX 10 10 1 0
BITMAP
9000
B000
B000
4800
4880
4880
7C80
8480
8480
82C0
ENDCHAR
STARTCHAR 1F8F
ENCODING 8079
SWIDTH 792 0
DWIDTH 11 0
BBX 11 10 0 0
BITMAP
4800
9800
1800
2400
2440
2440
3E40
4240
4240
4160
ENDCHAR
STARTCHAR 1F90
ENCODING 8080
SWIDTH 504 0
DWIDTH 7 0
BBX 5 12 1 -2
BITMAP
10
20
00
B8
C8
88
88
88
88
88
08
88
ENDCHAR
STARTCHAR 1F91
ENCODING 8081
SWIDTH 504 0
DWIDTH 7 0
BBX 5 12 1 -2
BITMAP
20
20
00
B8
C8
88
88
88
88
88
08
88
ENDCHAR
STARTCHAR 1F92
ENCODING 8082
SWIDTH 504 0
DWIDTH 7 0
BBX 5 13 1 -2
BITMAP
10
30
50
00
B8
C8
88
88
88
88
88
08
88
ENDCHAR
STARTCHAR 1F93
ENCODING 8083
SWIDTH 504 0
DWIDTH 7 0
BBX 5 13 1 -2
BITMAP
10
D0
50
00
B8
C8
88
88
88
88
88
08
88
ENDCHAR
STARTCHAR 1F94
ENCODING 8084
SWIDTH 504 0
DWIDTH 7 0
BBX 5 12 1 -1
BITMAP
30
50
00
B8
C8
88
88
88
88
88
08
88
ENDCHAR
STARTCHAR 1F95
ENCODING 8085
SWIDTH 504 0
DWIDTH 7 0
BBX 5 12 1 -1
BITMAP
50
10
00
B8
C8
88
88
88
88
88
08
88
ENDCHAR
STARTCHAR 1F96
ENCODING 8086
SWIDTH 504 0
DWIDTH 7 0
BBX 5 13 1 -2
BITMAP
78
00
10
00
B8
C8
88
88
88
88
88
08
88
ENDCHAR
STARTCHAR 1F97
ENCODING 8087
SWIDTH 504 0
DWIDTH 7 0
BBX 5 13 1 -2
BITMAP
78
00
20
00
B8
C8
88
88
88
88
88
08
88
ENDCHAR
STARTCHAR 1F98
ENCODING 8088
SWIDTH 936 0
DWIDTH 13 0
BBX 13 10 0 0
BITMAP
A080
6080
A080
2080
1F90
2090
2090
2090
2090
2088
ENDCHAR
STARTCHAR 1F99
ENCODING 8089
SWIDTH 936 0
DWIDTH 13 0
BBX 13 10 0 0
BITMAP
A080
A080
2080
2080
1F90
2090
2090
2090
2090
2088
ENDCHAR
STARTCHAR 1F9A
ENCODING 8090
SWIDTH 1080 0
DWIDTH 15 0
BBX 14 10 0 0
BITMAP
A840
A840
A840
0840
0FC8
0848
0848
0848
0848
0844
ENDCHAR
STARTCHAR 1F9B
ENCODING 8091
SWIDTH 1080 0
DWIDTH 15 0
BBX 14 10 0 0
BITMAP
9040
B040
B040
1040
0FC8
1048
1048
1048
1048
1044
ENDCHAR
STARTCHAR 1F9C
ENCODING 8092
SWIDTH 1080 0
DWIDTH 15 0
BBX 14 10 0 0
BITMAP
A840
A840
8840
0840
0FC8
0848
0848
0848
0848
0844
ENDCHAR
STARTCHAR 1F9D
ENCODING 8093
SWIDTH 1080 0
DWIDTH 15 0
BBX 14 10 0 0
BITMAP
B040
D040
9040
1040
0FC8
1048
1048
1048
1048
1044
ENDCHAR
STARTCHAR 1F9E
ENCODING 8094
SWIDTH 1080 0
DWIDTH 15 0
BBX 13 10 1 0
BITMAP
A080
A080
A080
2080
1F90
2090
2090
2090
2090
2088
ENDCHAR
STARTCHAR 1F9F
ENCODING 8095
SWIDTH 1080 0
DWIDTH 15 0
BBX 14 10 0 0
BITMAP
5040
9040
1040
1040
0FC8
1048
1048
1048
1048
1044
ENDCHAR
STARTCHAR 1FA0
ENCODING 8096
SWIDTH 648 0
DWIDTH 9 0
BBX 8 12 1 -2
BITMAP
08
10
00
42
82
82
91
91
92
6E
00
10
ENDCHAR
STARTCHAR 1FA1
ENCODING 8097
SWIDTH 648 0
DWIDTH 9 0
BBX 8 12 1 -2
BITMAP
30
10
00
42
82
82
91
91
92
6E
00
10
ENDCHAR
STARTCHAR 1FA2
ENCODING 8098
SWIDTH 648 0
DWIDTH 9 0
BBX 8 12 1 -1
BITMAP
28
28
00
42
82
82
91
91
92
6E
00
10
ENDCHAR
STARTCHAR 1FA3
ENCODING 8099
SWIDTH 648 0
DWIDTH 9 0
BBX 8 12 1 -1
BITMAP
68
28
00
42
82
82
91
91
92
6E
00
10
ENDCHAR
STARTCHAR 1FA4
ENCODING 8100
SWIDTH 648 0
DWIDTH 9 0
BBX 8 13 1 -2
BITMAP
08
28
30
00
42
82
82
91
91
92
6E
00
10
ENDCHAR
STARTCHAR 1FA5
ENCODING 8101
SWIDTH 648 0
DWIDTH 9 0
BBX 8 13 1 -2
BITMAP
08
68
30
00
42
82
82
91
91
92
6E
00
10
ENDCHAR
STARTCHAR 1FA6
ENCODING 8102
SWIDTH 648 0
DWIDTH 9 0
BBX 8 13 1 -2
BITMAP
38
00
10
00
42
82
82
91
91
92
6E
00
10
ENDCHAR
STARTCHAR 1FA7
ENCODING 8103
SWIDTH 648 0
DWIDTH 9 0
BBX 8 13 1 -2
BITMAP
38
00
20
00
42
82
82
91
91
92
6E
00
10
ENDCHAR
STARTCHAR 1FA8
ENCODING 8104
SWIDTH 936 0
DWIDTH 13 0
BBX 13 10 0 0
BITMAP
8E00
5100
A080
2080
4090
4090
2090
2090
1110
3998
ENDCHAR
STARTCHAR 1FA9
ENCODING 8105
SWIDTH 936 0
DWIDTH 13 0
BBX 13 10 0 0
BITMAP
8E00
B100
A080
4080
4090
4090
4090
2090
2110
7398
ENDCHAR
STARTCHAR 1FAA
ENCODING 8106
SWIDTH 1080 0
DWIDTH 15 0
BBX 14 10 0 0
BITMAP
A780
A840
B040
1020
1028
1028
1028
1048
0848
1CE4
ENDCHAR
STARTCHAR 1FAB
ENCODING 8107
SWIDTH 1080 0
DWIDTH 15 0
BBX 14 10 0 0
BITMAP
8780
A840
B040
1020
1028
1028
1048
1048
0848
1CE4
ENDCHAR
STARTCHAR 1FAC
ENCODING 8108
SWIDTH 1080 0
DWIDTH 15 0
BBX 14 10 0 0
BITMAP
A780
A840
9040
1020
1028
1028
1028
1048
0848
1CE4
ENDCHAR
STARTCHAR 1FAD
ENCODING 8109
SWIDTH 1080 0
DWIDTH 15 0
BBX 14 10 0 0
BITMAP
A780
C840
9040
1020
1028
1028
1048
1048
0848
1CE4
ENDCHAR
STARTCHAR 1FAE
ENCODING 8110
SWIDTH 1008 0
DWIDTH 14 0
BBX 14 10 0 0
BITMAP
E700
1880
5040
2040
2048
2048
2048
1048
1088
39CC
ENDCHAR
STARTCHAR 1FAF
ENCODING 8111
SWIDTH 1008 0
DWIDTH 14 0
BBX 14 10 0 0
BITMAP
E700
1880
9040
2040
2048
2048
2048
1048
1088
39CC
ENDCHAR
STARTCHAR 1FB0
ENCODING 8112
SWIDTH 576 0
DWIDTH 8 0
BBX 6 10 1 0
BITMAP
88
70
00
74
88
88
88
88
88
74
ENDCHAR
STARTCHAR 1FB1
ENCODING 8113
SWIDTH 576 0
DWIDTH 8 0
BBX 6 9 1 0
BITMAP
78
00
74
88
88
88
88
88
74
ENDCHAR
STARTCHAR 1FB2
ENCODING 8114
SWIDTH 576 0
DWIDTH 8 0
BBX 6 12 1 -2
BITMAP
20
00
00
74
88
88
88
88
88
74
00
20
ENDCHAR
STARTCHAR 1FB3
ENCODING 8115
SWIDTH 576 0
DWIDTH 8 0
BBX 6 9 1 -2
BITMAP
74
88
88
88
88
88
74
00
20
ENDCHAR
STARTCHAR 1FB4
ENCODING 8116
SWIDTH 576 0
DWIDTH 8 0
BBX 6 12 1 -2
BITMAP
10
20
00
74
88
88
88
88
88
74
00
20
ENDCHAR
STARTCHAR 1FB6
ENCODING 8118
SWIDTH 576 0
DWIDTH 8 0
BBX 6 10 1 0
BITMAP
60
18
00
74
88
88
88
88
88
74
ENDCHAR
STARTCHAR 1FB7
ENCODING 8119
SWIDTH 576 0
DWIDTH 8 0
BBX 6 12 1 -2
BITMAP
60
18
00
74
88
88
88
88
88
74
00
20
ENDCHAR
STARTCHAR 1FB8
ENCODING 8120
SWIDTH 504 0
DWIDTH 7 0
BBX 7 12 0 0
BITMAP
28
10
10
30
28
28
48
44
7C
44
82
82
ENDCHAR
STARTCHAR 1FB9
ENCODING 8121
SWIDTH 504 0
DWIDTH 7 0
BBX 7 11 0 0
BITMAP
10
10
30
28
28
48
44
7C
44
82
82
ENDCHAR
STARTCHAR 1FBA
ENCODING 8122
SWIDTH 504 0
DWIDTH 7 0
BBX 7 10 0 0
BITMAP
90
A8
28
28
28
44
7C
44
82
82
ENDCHAR
STARTCHAR 1FBB
ENCODING 8123
SWIDTH 504 0
DWIDTH 7 0
BBX 7 10 0 0
BITMAP
90
A8
A8
28
28
44
7C
44
82
82
ENDCHAR
STARTCHAR 1FBC
ENCODING 8124
SWIDTH 792 0
DWIDTH 11 0
BBX 10 10 0 0
BITMAP
1000
3000
2800
2800
4880
4480
7C80
4480
8280
8240
ENDCHAR
STARTCHAR 1FBD
ENCODING 8125
SWIDTH 504 0
DWIDTH 7 0
BBX 2 2 3 8
BITMAP
40
80
ENDCHAR
STARTCHAR 1FBE
ENCODING 8126
SWIDTH 216 0
DWIDTH 3 0
BBX 2 6 1 0
BITMAP
80
80
80
80
80
C0
ENDCHAR
STARTCHAR 1FBF
ENCODING 8127
SWIDTH 504 0
DWIDTH 7 0
BBX 2 2 3 8
BITMAP
40
80
ENDCHAR
STARTCHAR 1FC0
ENCODING 8128
SWIDTH 504 0
DWIDTH 7 0
BBX 5 2 1 8
BITMAP
68
98
ENDCHAR
STARTCHAR 1FC1
ENCODING 8129
SWIDTH 504 0
DWIDTH 7 0
BBX 4 2 2 9
BITMAP
70
A0
ENDCHAR
STARTCHAR 1FC2
ENCODING 8130
SWIDTH 504 0
DWIDTH 7 0
BBX 5 12 1 -2
BITMAP
20
00
00
B8
C8
88
88
88
88
88
08
88
ENDCHAR
STARTCHAR 1FC3
ENCODING 8131
SWIDTH 504 0
DWIDTH 7 0
BBX 5 9 1 -2
BITMAP
B8
C8
88
88
88
88
88
08
88
ENDCHAR
STARTCHAR 1FC4
ENCODING 8132
SWIDTH 504 0
DWIDTH 7 0
BBX 5 12 1 -2
BITMAP
10
20
00
B8
C8
88
88
88
88
88
08
88
ENDCHAR
STARTCHAR 1FC6
ENCODING 8134
SWIDTH 504 0
DWIDTH 7 0
BBX 5 11 1 -2
BITMAP
60
18
00
B8
C8
88
88
88
88
88
08
ENDCHAR
STARTCHAR 1FC7
ENCODING 8135
SWIDTH 504 0
DWIDTH 7 0
BBX 5 12 1 -2
BITMAP
60
18
00
B8
C8
88
88
88
88
88
08
88
ENDCHAR
STARTCHAR 1FC8
ENCODING 8136
SWIDTH 576 0
DWIDTH 8 0
BBX 7 10 0 0
BITMAP
BE
C0
C0
40
3C
40
40
40
40
3E
ENDCHAR
STARTCHAR 1FC9
ENCODING 8137
SWIDTH 576 0
DWIDTH 8 0
BBX 7 10 0 0
BITMAP
BE
C0
40
40
3C
40
40
40
40
3E
ENDCHAR
STARTCHAR 1FCA
ENCODING 8138
SWIDTH 648 0
DWIDTH 9 0
BBX 8 10 0 0
BITMAP
C1
C1
C1
41
3F
41
41
41
41
41
ENDCHAR
STARTCHAR 1FCB
ENCODING 8139
SWIDTH 648 0
DWIDTH 9 0
BBX 8 10 0 0
BITMAP
C1
C1
41
41
3F
41
41
41
41
41
ENDCHAR
STARTCHAR 1FCC
ENCODING 8140
SWIDTH 864 0
DWIDTH 12 0
BBX 11 10 1 0
BITMAP
8200
8200
8200
8200
FE40
8240
8240
8240
8240
8260
ENDCHAR
STARTCHAR 1FCD
ENCODING 8141
SWIDTH 504 0
DWIDTH 7 0
BBX 3 2 2 9
BITMAP
A0
A0
ENDCHAR
STARTCHAR 1FCE
ENCODING 8142
SWIDTH 504 0
DWIDTH 7 0
BBX 3 3 2 8
BITMAP
20
A0
A0
ENDCHAR
STARTCHAR 1FCF
ENCODING 8143
SWIDTH 504 0
DWIDTH 7 0
BBX 4 3 2 8
BITMAP
D0
20
40
ENDCHAR
STARTCHAR 1FD0
ENCODING 8144
SWIDTH 216 0
DWIDTH 3 0
BBX 4 10 0 0
BITMAP
90
A0
40
40
40
40
40
40
40
60
ENDCHAR
STARTCHAR 1FD1
ENCODING 8145
SWIDTH 216 0
DWIDTH 3 0
BBX 3 9 0 0
BITMAP
E0
00
40
40
40
40
40
40
60
ENDCHAR
STARTCHAR 1FD2
ENCODING 8146
SWIDTH 216 0
DWIDTH 3 0
BBX 3 11 0 0
BITMAP
40
C0
00
00
40
40
40
40
40
40
60
ENDCHAR
STARTCHAR 1FD3
ENCODING 8147
SWIDTH 216 0
DWIDTH 3 0
BBX 3 11 0 0
BITMAP
40
C0
40
00
40
40
40
40
40
40
60
ENDCHAR
STARTCHAR 1FD6
ENCODING 8150
SWIDTH 216 0
DWIDTH 3 0
BBX 4 10 0 0
BITMAP
D0
20
00
40
40
40
40
40
40
60
ENDCHAR
STARTCHAR 1FD7
ENCODING 8151
SWIDTH 216 0
DWIDTH 3 0
BBX 3 11 0 0
BITMAP
60
A0
00
00
40
40
40
40
40
40
60
ENDCHAR
STARTCHAR 1FD8
ENCODING 8152
SWIDTH 216 0
DWIDTH 3 0
BBX 3 12 0 0
BITMAP
A0
40
40
40
40
40
40
40
40
40
40
40
ENDCHAR
STARTCHAR 1FD9
ENCODING 8153
SWIDTH 216 0
DWIDTH 3 0
BBX 1 11 1 0
BITMAP
80
80
80
80
80
80
80
80
80
80
80
ENDCHAR
STARTCHAR 1FDA
ENCODING 8154
SWIDTH 288 0
DWIDTH 4 0
BBX 2 10 0 0
BITMAP
C0
C0
C0
40
40
40
40
40
40
40
ENDCHAR
STARTCHAR 1FDB
ENCODING 8155
SWIDTH 288 0
DWIDTH 4 0
BBX 2 10 0 0
BITMAP
C0
C0
40
40
40
40
40
40
40
40
ENDCHAR
STARTCHAR 1FDD
ENCODING 8157
SWIDTH 504 0
DWIDTH 7 0
BBX 3 2 2 9
BITMAP
A0
A0
ENDCHAR
STARTCHAR 1FDE
ENCODING 8158
SWIDTH 504 0
DWIDTH 7 0
BBX 3 3 2 8
BITMAP
20
A0
C0
ENDCHAR
STARTCHAR 1FDF
ENCODING 8159
SWIDTH 504 0
DWIDTH 7 0
BBX 3 3 2 8
BITMAP
C0
20
C0
ENDCHAR
STARTCHAR 1FE0
ENCODING 8160
SWIDTH 504 0
DWIDTH 7 0
BBX 5 10 1 0
BITMAP
90
50
20
88
88
88
88
88
88
70
ENDCHAR
STARTCHAR 1FE1
ENCODING 8161
SWIDTH 504 0
DWIDTH 7 0
BBX 5 9 1 0
BITMAP
70
00
88
88
88
88
88
88
70
ENDCHAR
STARTCHAR 1FE2
ENCODING 8162
SWIDTH 504 0
DWIDTH 7 0
BBX 5 11 1 0
BITMAP
40
D0
20
00
88
88
88
88
88
88
70
ENDCHAR
STARTCHAR 1FE3
ENCODING 8163
SWIDTH 504 0
DWIDTH 7 0
BBX 5 11 1 0
BITMAP
20
B0
00
00
88
88
88
88
88
88
70
ENDCHAR
STARTCHAR 1FE4
ENCODING 8164
SWIDTH 504 0
DWIDTH 7 0
BBX 6 12 1 -2
BITMAP
10
00
00
78
88
84
84
84
88
F0
80
80
ENDCHAR
STARTCHAR 1FE5
ENCODING 8165
SWIDTH 504 0
DWIDTH 7 0
BBX 6 12 1 -2
BITMAP
20
00
00
78
88
84
84
84
88
F0
80
80
ENDCHAR
STARTCHAR 1FE6
ENCODING 8166
SWIDTH 504 0
DWIDTH 7 0
BBX 5 10 1 0
BITMAP
C0
30
00
88
88
88
88
88
88
70
ENDCHAR
STARTCHAR 1FE7
ENCODING 8167
SWIDTH 504 0
DWIDTH 7 0
BBX 5 11 1 0
BITMAP
F0
90
00
00
88
88
88
88
88
88
70
ENDCHAR
STARTCHAR 1FE8
ENCODING 8168
SWIDTH 432 0
DWIDTH 6 0
BBX 6 12 0 0
BITMAP
48
30
84
88
48
48
30
10
20
20
20
20
ENDCHAR
STARTCHAR 1FE9
ENCODING 8169
SWIDTH 432 0
DWIDTH 6 0
BBX 6 11 0 0
BITMAP
30
84
88
48
48
30
10
20
20
20
20
ENDCHAR
STARTCHAR 1FEA
ENCODING 8170
SWIDTH 504 0
DWIDTH 7 0
BBX 7 10 0 0
BITMAP
C2
A2
A4
14
18
08
08
08
08
08
ENDCHAR
STARTCHAR 1FEB
ENCODING 8171
SWIDTH 504 0
DWIDTH 7 0
BBX 7 10 0 0
BITMAP
C2
A2
24
14
18
08
08
08
08
08
ENDCHAR
STARTCHAR 1FEC
ENCODING 8172
SWIDTH 648 0
DWIDTH 9 0
BBX 8 10 0 0
BITMAP
9E
A1
21
21
21
1E
20
20
20
20
ENDCHAR
STARTCHAR 1FED
ENCODING 8173
SWIDTH 504 0
DWIDTH 7 0
BBX 4 2 2 9
BITMAP
40
D0
ENDCHAR
STARTCHAR 1FEE
ENCODING 8174
SWIDTH 504 0
DWIDTH 7 0
BBX 4 2 2 9
BITMAP
40
D0
ENDCHAR
STARTCHAR 1FEF
ENCODING 8175
SWIDTH 504 0
DWIDTH 7 0
BBX 1 2 3 9
BITMAP
80
80
ENDCHAR
STARTCHAR 1FF2
ENCODING 8178
SWIDTH 648 0
DWIDTH 9 0
BBX 8 12 1 -2
BITMAP
20
10
00
42
82
82
91
91
92
6E
00
10
ENDCHAR
STARTCHAR 1FF3
ENCODING 8179
SWIDTH 648 0
DWIDTH 9 0
BBX 8 9 1 -2
BITMAP
42
82
82
91
91
92
6E
00
10
ENDCHAR
STARTCHAR 1FF4
ENCODING 8180
SWIDTH 648 0
DWIDTH 9 0
BBX 8 12 1 -2
BITMAP
08
10
00
42
82
82
91
91
92
6E
00
10
ENDCHAR
STARTCHAR 1FF6
ENCODING 8182
SWIDTH 648 0
DWIDTH 9 0
BBX 8 10 1 0
BITMAP
34
4C
00
42
82
82
91
91
92
6E
ENDCHAR
STARTCHAR 1FF7
ENCODING 8183
SWIDTH 648 0
DWIDTH 9 0
BBX 8 12 1 -2
BITMAP
34
4C
00
42
82
82
91
91
92
6E
00
10
ENDCHAR
STARTCHAR 1FF8
ENCODING 8184
SWIDTH 648 0
DWIDTH 9 0
BBX 9 10 0 0
BITMAP
1E00
A100
C100
4100
4080
4080
4100
4100
2100
1E00
ENDCHAR
STARTCHAR 1FF9
ENCODING 8185
SWIDTH 648 0
DWIDTH 9 0
BBX 9 10 0 0
BITMAP
9E00
A100
4100
4100
4080
4080
4100
4100
2100
1E00
ENDCHAR
STARTCHAR 1FFA
ENCODING 8186
SWIDTH 648 0
DWIDTH 9 0
BBX 9 10 0 0
BITMAP
1E00
A100
C100
4080
4080
4080
4100
4100
2100
7380
ENDCHAR
STARTCHAR 1FFB
ENCODING 8187
SWIDTH 648 0
DWIDTH 9 0
BBX 9 10 0 0
BITMAP
9E00
A100
4100
4100
4080
4080
4100
4100
2100
7380
ENDCHAR
STARTCHAR 1FFC
ENCODING 8188
SWIDTH 864 0
DWIDTH 12 0
BBX 11 10 1 0
BITMAP
3800
4400
8200
8200
8240
8240
8240
8240
4440
E760
ENDCHAR
STARTCHAR 1FFD
ENCODING 8189
SWIDTH 504 0
DWIDTH 7 0
BBX 2 3 3 8
BITMAP
40
80
80
ENDCHAR
STARTCHAR 1FFE
ENCODING 8190
SWIDTH 504 0
DWIDTH 7 0
BBX 1 2 3 8
BITMAP
80
80
ENDCHAR
STARTCHAR 2007
ENCODING 8199
SWIDTH 504 0
DWIDTH 7 0
BBX 0 0 0 0
BITMAP
ENDCHAR
STARTCHAR 2012
ENCODING 8210
SWIDTH 504 0
DWIDTH 7 0
BBX 3 1 2 3
BITMAP
E0
ENDCHAR
STARTCHAR 2013
ENCODING 8211
SWIDTH 504 0
DWIDTH 7 0
BBX 3 1 2 3
BITMAP
E0
ENDCHAR
STARTCHAR 2014
ENCODING 8212
SWIDTH 792 0
DWIDTH 11 0
BBX 8 1 2 3
BITMAP
FF
ENDCHAR
STARTCHAR 2015
ENCODING 8213
SWIDTH 792 0
DWIDTH 11 0
BBX 8 1 2 3
BITMAP
FF
ENDCHAR
STARTCHAR 2016
ENCODING 8214
SWIDTH 360 0
DWIDTH 5 0
BBX 3 14 1 -4
BITMAP
A0
A0
A0
A0
A0
A0
A0
A0
A0
A0
A0
A0
A0
A0
ENDCHAR
STARTCHAR 2018
ENCODING 8216
SWIDTH 216 0
DWIDTH 3 0
BBX 1 3 1 7
BITMAP
80
80
80
ENDCHAR
STARTCHAR 2019
ENCODING 8217
SWIDTH 216 0
DWIDTH 3 0
BBX 1 3 1 7
BITMAP
80
80
80
ENDCHAR
STARTCHAR 201A
ENCODING 8218
SWIDTH 216 0
DWIDTH 3 0
BBX 1 3 1 -2
BITMAP
80
80
80
ENDCHAR
STARTCHAR 201C
ENCODING 8220
SWIDTH 360 0
DWIDTH 5 0
BBX 3 3 1 7
BITMAP
A0
C0
A0
ENDCHAR
STARTCHAR 201D
ENCODING 8221
SWIDTH 360 0
DWIDTH 5 0
BBX 3 3 1 7
BITMAP
A0
A0
A0
ENDCHAR
STARTCHAR 201E
ENCODING 8222
SWIDTH 360 0
DWIDTH 5 0
BBX 3 3 1 -2
BITMAP
A0
A0
A0
ENDCHAR
STARTCHAR 2020
ENCODING 8224
SWIDTH 432 0
DWIDTH 6 0
BBX 4 10 1 -1
BITMAP
40
40
F0
40
40
40
40
40
40
40
ENDCHAR
STARTCHAR 2021
ENCODING 8225
SWIDTH 432 0
DWIDTH 6 0
BBX 4 11 1 -1
BITMAP
40
40
F0
40
40
40
40
40
F0
40
40
ENDCHAR
STARTCHAR 2022
ENCODING 8226
SWIDTH 288 0
DWIDTH 4 0
BBX 2 3 1 2
BITMAP
C0
C0
C0
ENDCHAR
STARTCHAR 2026
ENCODING 8230
SWIDTH 936 0
DWIDTH 13 0
BBX 11 1 1 0
BITMAP
C420
ENDCHAR
STARTCHAR 202F
ENCODING 8239
SWIDTH 144 0
DWIDTH 2 0
BBX 0 0 0 0
BITMAP
ENDCHAR
STARTCHAR 2030
ENCODING 8240
SWIDTH 1152 0
DWIDTH 16 0
BBX 15 10 1 0
BITMAP
E200
A200
A400
A400
AB9C
ACA4
5462
1462
24A4
439C
ENDCHAR
STARTCHAR 2032
ENCODING 8242
SWIDTH 216 0
DWIDTH 3 0
BBX 1 3 1 7
BITMAP
80
80
80
ENDCHAR
STARTCHAR 2033
ENCODING 8243
SWIDTH 360 0
DWIDTH 5 0
BBX 3 3 1 7
BITMAP
A0
A0
A0
ENDCHAR
STARTCHAR 2035
ENCODING 8245
SWIDTH 216 0
DWIDTH 3 0
BBX 1 3 1 7
BITMAP
80
80
80
ENDCHAR
STARTCHAR 2039
ENCODING 8249
SWIDTH 288 0
DWIDTH 4 0
BBX 2 5 1 1
BITMAP
40
80
80
80
40
ENDCHAR
STARTCHAR 203A
ENCODING 8250
SWIDTH 288 0
DWIDTH 4 0
BBX 2 4 1 2
BITMAP
80
40
80
80
ENDCHAR
STARTCHAR 203C
ENCODING 8252
SWIDTH 504 0
DWIDTH 7 0
BBX 5 9 1 0
BITMAP
88
88
88
88
88
08
00
00
88
ENDCHAR
STARTCHAR 203D
ENCODING 8253
SWIDTH 432 0
DWIDTH 6 0
BBX 4 10 1 0
BITMAP
40
B0
50
50
60
40
40
00
00
40
ENDCHAR
STARTCHAR 203E
ENCODING 8254
SWIDTH 504 0
DWIDTH 7 0
BBX 7 1 0 8
BITMAP
FE
ENDCHAR
STARTCHAR 203F
ENCODING 8255
SWIDTH 0 0
DWIDTH 0 0
BBX 12 2 -6 -3
BITMAP
8010
7FE0
ENDCHAR
STARTCHAR 2044
ENCODING 8260
SWIDTH 72 0
DWIDTH 1 0
BBX 5 9 -2 0
BITMAP
08
10
10
20
20
40
40
80
80
ENDCHAR
STARTCHAR 2047
ENCODING 8263
SWIDTH 792 0
DWIDTH 11 0
BBX 8 10 2 0
BITMAP
80
6F
21
21
42
82
84
00
00
84
ENDCHAR
STARTCHAR 2048
ENCODING 8264
SWIDTH 648 0
DWIDTH 9 0
BBX 6 10 2 0
BITMAP
80
68
28
28
48
88
80
00
00
8C
ENDCHAR
STARTCHAR 2049
ENCODING 8265
SWIDTH 648 0
DWIDTH 9 0
BBX 7 9 1 1
BITMAP
9E
82
82
84
84
08
00
00
88
ENDCHAR
STARTCHAR 2070
ENCODING 8304
SWIDTH 360 0
DWIDTH 5 0
BBX 3 5 1 6
BITMAP
E0
A0
A0
A0
E0
ENDCHAR
STARTCHAR 2071
ENCODING 8305
SWIDTH 144 0
DWIDTH 2 0
BBX 2 6 0 6
BITMAP
40
00
00
80
80
80
ENDCHAR
STARTCHAR 2074
ENCODING 8308
SWIDTH 360 0
DWIDTH 5 0
BBX 3 6 1 5
BITMAP
20
60
A0
A0
60
20
ENDCHAR
STARTCHAR 2075
ENCODING 8309
SWIDTH 360 0
DWIDTH 5 0
BBX 3 6 1 6
BITMAP
E0
80
E0
20
20
E0
ENDCHAR
STARTCHAR 2076
ENCODING 8310
SWIDTH 360 0
DWIDTH 5 0
BBX 3 5 1 6
BITMAP
60
80
E0
A0
E0
ENDCHAR
STARTCHAR 2077
ENCODING 8311
SWIDTH 360 0
DWIDTH 5 0
BBX 2 5 2 6
BITMAP
C0
40
80
80
80
ENDCHAR
STARTCHAR 2078
ENCODING 8312
SWIDTH 360 0
DWIDTH 5 0
BBX 3 5 1 6
BITMAP
E0
A0
40
A0
E0
ENDCHAR
STARTCHAR 2079
ENCODING 8313
SWIDTH 360 0
DWIDTH 5 0
BBX 3 5 1 6
BITMAP
E0
A0
A0
60
60
ENDCHAR
STARTCHAR 207D
ENCODING 8317
SWIDTH 216 0
DWIDTH 3 0
BBX 1 7 1 5
BITMAP
80
80
80
80
80
80
80
ENDCHAR
STARTCHAR 207E
ENCODING 8318
SWIDTH 216 0
DWIDTH 3 0
BBX 1 7 1 5
BITMAP
80
80
80
80
80
80
80
ENDCHAR
STARTCHAR 207F
ENCODING 8319
SWIDTH 360 0
DWIDTH 5 0
BBX 3 4 1 5
BITMAP
60
A0
A0
A0
ENDCHAR
STARTCHAR 2080
ENCODING 8320
SWIDTH 360 0
DWIDTH 5 0
BBX 3 5 1 -2
BITMAP
E0
A0
A0
A0
E0
ENDCHAR
STARTCHAR 2081
ENCODING 8321
SWIDTH 360 0
DWIDTH 5 0
BBX 2 5 1 -2
BITMAP
C0
40
40
40
40
ENDCHAR
STARTCHAR 2082
ENCODING 8322
SWIDTH 360 0
DWIDTH 5 0
BBX 3 5 1 -2
BITMAP
E0
20
20
40
C0
ENDCHAR
STARTCHAR 2083
ENCODING 8323
SWIDTH 360 0
DWIDTH 5 0
BBX 3 5 1 -2
BITMAP
E0
20
20
60
E0
ENDCHAR
STARTCHAR 2084
ENCODING 8324
SWIDTH 360 0
DWIDTH 5 0
BBX 3 6 1 -3
BITMAP
20
60
A0
A0
60
20
ENDCHAR
STARTCHAR 2085
ENCODING 8325
SWIDTH 360 0
DWIDTH 5 0
BBX 3 5 1 -2
BITMAP
E0
80
E0
20
E0
ENDCHAR
STARTCHAR 2086
ENCODING 8326
SWIDTH 360 0
DWIDTH 5 0
BBX 3 5 1 -2
BITMAP
60
80
E0
A0
E0
ENDCHAR
STARTCHAR 2087
ENCODING 8327
SWIDTH 360 0
DWIDTH 5 0
BBX 2 5 2 -2
BITMAP
C0
40
80
80
80
ENDCHAR
STARTCHAR 2088
ENCODING 8328
SWIDTH 360 0
DWIDTH 5 0
BBX 3 5 1 -2
BITMAP
E0
A0
40
A0
E0
ENDCHAR
STARTCHAR 2089
ENCODING 8329
SWIDTH 360 0
DWIDTH 5 0
BBX 3 5 1 -2
BITMAP
E0
A0
A0
60
60
ENDCHAR
STARTCHAR 208D
ENCODING 8333
SWIDTH 216 0
DWIDTH 3 0
BBX 1 7 1 -3
BITMAP
80
80
80
80
80
80
80
ENDCHAR
STARTCHAR 208E
ENCODING 8334
SWIDTH 216 0
DWIDTH 3 0
BBX 1 7 1 -3
BITMAP
80
80
80
80
80
80
80
ENDCHAR
STARTCHAR 2094
ENCODING 8340
SWIDTH 360 0
DWIDTH 5 0
BBX 4 4 0 6
BITMAP
70
10
F0
F0
ENDCHAR
STARTCHAR 20A1
ENCODING 8353
SWIDTH 504 0
DWIDTH 7 0
BBX 5 11 1 -1
BITMAP
20
38
F0
B0
D0
D0
D0
E0
E0
78
40
ENDCHAR
STARTCHAR 20A4
ENCODING 8356
SWIDTH 504 0
DWIDTH 7 0
BBX 5 9 1 0
BITMAP
70
80
80
80
60
60
40
40
F8
ENDCHAR
STARTCHAR 20A6
ENCODING 8358
SWIDTH 504 0
DWIDTH 7 0
BBX 4 9 1 0
BITMAP
90
D0
D0
D0
B0
F0
B0
90
90
ENDCHAR
STARTCHAR 20A7
ENCODING 8359
SWIDTH 504 0
DWIDTH 7 0
BBX 5 9 1 0
BITMAP
F0
90
88
F0
90
E0
80
80
80
ENDCHAR
STARTCHAR 20A9
ENCODING 8361
SWIDTH 504 0
DWIDTH 7 0
BBX 6 9 0 0
BITMAP
94
94
B4
B4
FC
B4
6C
48
48
ENDCHAR
STARTCHAR 20AB
ENCODING 8363
SWIDTH 504 0
DWIDTH 7 0
BBX 4 9 1 1
BITMAP
10
10
10
F0
90
90
90
60
70
ENDCHAR
STARTCHAR 20AC
ENCODING 8364
SWIDTH 504 0
DWIDTH 7 0
BBX 5 9 1 0
BITMAP
38
40
80
80
F0
E0
80
40
38
ENDCHAR
STARTCHAR 20AE
ENCODING 8366
SWIDTH 504 0
DWIDTH 7 0
BBX 6 9 0 0
BITMAP
FC
10
14
18
78
30
10
10
10
ENDCHAR
STARTCHAR 20B1
ENCODING 8369
SWIDTH 504 0
DWIDTH 7 0
BBX 5 9 1 0
BITMAP
F0
90
E8
F0
90
E0
80
80
80
ENDCHAR
STARTCHAR 20B2
ENCODING 8370
SWIDTH 504 0
DWIDTH 7 0
BBX 5 11 1 -1
BITMAP
20
70
88
80
80
98
88
88
88
78
20
ENDCHAR
STARTCHAR 20B4
ENCODING 8372
SWIDTH 504 0
DWIDTH 7 0
BBX 4 9 1 0
BITMAP
70
10
10
10
E0
D0
80
80
70
ENDCHAR
STARTCHAR 20B5
ENCODING 8373
SWIDTH 504 0
DWIDTH 7 0
BBX 5 11 1 -1
BITMAP
20
38
E0
A0
A0
A0
A0
A0
A0
78
20
ENDCHAR
STARTCHAR 20B8
ENCODING 8376
SWIDTH 504 0
DWIDTH 7 0
BBX 4 9 1 0
BITMAP
F0
00
F0
20
20
20
20
20
20
ENDCHAR
STARTCHAR 20B9
ENCODING 8377
SWIDTH 504 0
DWIDTH 7 0
BBX 4 9 1 0
BITMAP
F0
10
70
10
E0
40
20
10
10
ENDCHAR
STARTCHAR 20BA
ENCODING 8378
SWIDTH 504 0
DWIDTH 7 0
BBX 6 9 0 0
BITMAP
40
48
30
C8
30
C4
44
44
38
ENDCHAR
STARTCHAR 20BD
ENCODING 8381
SWIDTH 504 0
DWIDTH 7 0
BBX 5 9 1 0
BITMAP
F0
90
88
90
B0
C0
E0
80
80
ENDCHAR
STARTCHAR 2113
ENCODING 8467
SWIDTH 360 0
DWIDTH 5 0
BBX 4 10 1 0
BITMAP
60
90
90
A0
A0
C0
C0
80
80
70
ENDCHAR
STARTCHAR 2116
ENCODING 8470
SWIDTH 864 0
DWIDTH 12 0
BBX 11 9 1 0
BITMAP
8400
C9C0
CA20
AA20
A940
9880
9880
9800
8800
ENDCHAR
STARTCHAR 2117
ENCODING 8471
SWIDTH 720 0
DWIDTH 10 0
BBX 9 9 1 0
BITMAP
7E00
8100
BD00
A480
A480
B900
8100
8200
7C00
ENDCHAR
STARTCHAR 2120
ENCODING 8480
SWIDTH 576 0
DWIDTH 8 0
BBX 8 5 0 5
BITMAP
09
EB
4F
2B
68
ENDCHAR
STARTCHAR 2122
ENCODING 8482
SWIDTH 576 0
DWIDTH 8 0
BBX 7 5 1 5
BITMAP
02
D6
9E
96
90
ENDCHAR
STARTCHAR 2126
ENCODING 8486
SWIDTH 648 0
DWIDTH 9 0
BBX 8 10 1 0
BITMAP
38
44
82
82
82
82
82
82
44
E7
ENDCHAR
STARTCHAR 212E
ENCODING 8494
SWIDTH 792 0
DWIDTH 11 0
BBX 9 10 1 0
BITMAP
3E00
4100
8080
8080
8080
FF00
8000
8000
4100
3E00
ENDCHAR
STARTCHAR 2150
ENCODING 8528
SWIDTH 792 0
DWIDTH 11 0
BBX 9 10 1 0
BITMAP
C400
4400
4800
4800
5180
5100
2100
2100
4200
4000
ENDCHAR
STARTCHAR 2151
ENCODING 8529
SWIDTH 792 0
DWIDTH 11 0
BBX 9 10 1 0
BITMAP
C400
4400
4800
4800
5380
5480
2480
2380
4080
4300
ENDCHAR
STARTCHAR 2152
ENCODING 8530
SWIDTH 1080 0
DWIDTH 15 0
BBX 13 10 1 0
BITMAP
C400
4400
4800
4800
5330
5148
2148
2148
4148
4130
ENDCHAR
STARTCHAR 2153
ENCODING 8531
SWIDTH 792 0
DWIDTH 11 0
BBX 9 10 1 0
BITMAP
C400
4400
4800
4800
5380
5080
2100
2080
4080
4380
ENDCHAR
STARTCHAR 2154
ENCODING 8532
SWIDTH 792 0
DWIDTH 11 0
BBX 9 10 1 0
BITMAP
E200
2200
2400
4400
4B80
8880
5080
1080
2080
2380
ENDCHAR
STARTCHAR 2155
ENCODING 8533
SWIDTH 792 0
DWIDTH 11 0
BBX 9 10 1 0
BITMAP
C400
4400
4800
4800
5380
5200
2380
2080
4080
4380
ENDCHAR
STARTCHAR 2156
ENCODING 8534
SWIDTH 792 0
DWIDTH 11 0
BBX 9 10 1 0
BITMAP
E200
2200
2400
4400
4B80
8A00
5200
1180
2080
2380
ENDCHAR
STARTCHAR 2157
ENCODING 8535
SWIDTH 792 0
DWIDTH 11 0
BBX 9 10 1 0
BITMAP
E200
2200
2400
6400
2800
AB00
5380
1080
2080
2380
ENDCHAR
STARTCHAR 2158
ENCODING 8536
SWIDTH 792 0
DWIDTH 11 0
BBX 10 10 1 0
BITMAP
2200
6200
A400
A400
6980
2A00
1380
1040
2040
2380
ENDCHAR
STARTCHAR 2159
ENCODING 8537
SWIDTH 792 0
DWIDTH 11 0
BBX 9 10 1 0
BITMAP
C400
4400
4800
4800
5380
5400
2780
2480
4480
4380
ENDCHAR
STARTCHAR 215A
ENCODING 8538
SWIDTH 792 0
DWIDTH 11 0
BBX 9 10 1 0
BITMAP
E200
8200
E400
2400
2980
AA00
5400
1780
2480
2380
ENDCHAR
STARTCHAR 215B
ENCODING 8539
SWIDTH 792 0
DWIDTH 11 0
BBX 9 10 1 0
BITMAP
C400
4400
4800
4800
5380
5480
2280
2580
4480
4380
ENDCHAR
STARTCHAR 215C
ENCODING 8540
SWIDTH 792 0
DWIDTH 11 0
BBX 9 10 1 0
BITMAP
E200
2200
2400
6400
2B80
AA80
5180
1280
2480
2380
ENDCHAR
STARTCHAR 215D
ENCODING 8541
SWIDTH 792 0
DWIDTH 11 0
BBX 9 10 1 0
BITMAP
E200
8200
E400
2400
2B80
AA80
5180
1280
2480
2380
ENDCHAR
STARTCHAR 215E
ENCODING 8542
SWIDTH 792 0
DWIDTH 11 0
BBX 9 10 1 0
BITMAP
E400
4400
4800
4800
9380
1480
2280
2580
4480
4380
ENDCHAR
STARTCHAR 2189
ENCODING 8585
SWIDTH 792 0
DWIDTH 11 0
BBX 9 10 1 0
BITMAP
E200
A200
A400
A400
AB80
A880
5080
1080
2080
2380
ENDCHAR
STARTCHAR 2190
ENCODING 8592
SWIDTH 648 0
DWIDTH 9 0
BBX 7 6 1 1
BITMAP
60
80
FE
80
40
20
ENDCHAR
STARTCHAR 2191
ENCODING 8593
SWIDTH 648 0
DWIDTH 9 0
BBX 7 8 1 -1
BITMAP
10
78
54
92
10
10
10
10
ENDCHAR
STARTCHAR 2192
ENCODING 8594
SWIDTH 648 0
DWIDTH 9 0
BBX 7 7 1 0
BITMAP
10
08
04
FE
04
08
10
ENDCHAR
STARTCHAR 2193
ENCODING 8595
SWIDTH 648 0
DWIDTH 9 0
BBX 6 7 1 -1
BITMAP
10
10
10
10
94
58
30
ENDCHAR
STARTCHAR 2202
ENCODING 8706
SWIDTH 504 0
DWIDTH 7 0
BBX 6 10 0 0
BITMAP
38
04
04
04
3C
44
84
84
88
70
ENDCHAR
STARTCHAR 2206
ENCODING 8710
SWIDTH 576 0
DWIDTH 8 0
BBX 7 10 0 0
BITMAP
10
18
28
28
24
44
44
42
82
FE
ENDCHAR
STARTCHAR 220F
ENCODING 8719
SWIDTH 648 0
DWIDTH 9 0
BBX 7 11 1 -2
BITMAP
FE
82
82
82
82
82
82
82
82
82
82
ENDCHAR
STARTCHAR 2211
ENCODING 8721
SWIDTH 504 0
DWIDTH 7 0
BBX 7 11 0 -2
BITMAP
FC
40
20
20
10
10
10
20
40
80
FE
ENDCHAR
STARTCHAR 2212
ENCODING 8722
SWIDTH 504 0
DWIDTH 7 0
BBX 6 1 0 4
BITMAP
FC
ENDCHAR
STARTCHAR 2215
ENCODING 8725
SWIDTH 72 0
DWIDTH 1 0
BBX 5 9 -2 0
BITMAP
08
10
10
20
20
40
40
80
80
ENDCHAR
STARTCHAR 2219
ENCODING 8729
SWIDTH 504 0
DWIDTH 7 0
BBX 1 1 3 4
BITMAP
80
ENDCHAR
STARTCHAR 221A
ENCODING 8730
SWIDTH 504 0
DWIDTH 7 0
BBX 6 13 1 -2
BITMAP
04
04
04
04
08
08
88
48
48
50
30
30
10
ENDCHAR
STARTCHAR 221E
ENCODING 8734
SWIDTH 792 0
DWIDTH 11 0
BBX 9 5 1 2
BITMAP
4700
B880
8880
9880
6700
ENDCHAR
STARTCHAR 222B
ENCODING 8747
SWIDTH 288 0
DWIDTH 4 0
BBX 3 13 1 -2
BITMAP
60
80
80
80
80
80
40
40
40
40
40
40
80
ENDCHAR
STARTCHAR 2248
ENCODING 8776
SWIDTH 504 0
DWIDTH 7 0
BBX 5 5 1 2
BITMAP
C0
38
00
E8
10
ENDCHAR
STARTCHAR 2260
ENCODING 8800
SWIDTH 504 0
DWIDTH 7 0
BBX 6 7 0 1
BITMAP
04
08
FC
10
FC
40
40
ENDCHAR
STARTCHAR 2264
ENCODING 8804
SWIDTH 504 0
DWIDTH 7 0
BBX 6 7 0 0
BITMAP
0C
30
C0
70
0C
00
FC
ENDCHAR
STARTCHAR 2265
ENCODING 8805
SWIDTH 504 0
DWIDTH 7 0
BBX 6 7 0 0
BITMAP
40
38
04
18
E0
00
FC
ENDCHAR
STARTCHAR 231C
ENCODING 8988
SWIDTH 288 0
DWIDTH 4 0
BBX 2 9 1 0
BITMAP
C0
80
80
80
80
80
80
80
80
ENDCHAR
STARTCHAR 231D
ENCODING 8989
SWIDTH 288 0
DWIDTH 4 0
BBX 2 9 1 0
BITMAP
C0
40
40
40
40
40
40
40
40
ENDCHAR
STARTCHAR 231E
ENCODING 8990
SWIDTH 288 0
DWIDTH 4 0
BBX 2 9 1 0
BITMAP
80
80
80
80
80
80
80
80
C0
ENDCHAR
STARTCHAR 231F
ENCODING 8991
SWIDTH 288 0
DWIDTH 4 0
BBX 2 9 1 0
BITMAP
40
40
40
40
40
40
40
40
C0
ENDCHAR
STARTCHAR 25A0
ENCODING 9632
SWIDTH 936 0
DWIDTH 13 0
BBX 11 11 1 -1
BITMAP
FFE0
FFE0
FFE0
FFE0
FFE0
FFE0
FFE0
FFE0
FFE0
FFE0
FFE0
ENDCHAR
STARTCHAR 25B2
ENCODING 9650
SWIDTH 936 0
DWIDTH 13 0
BBX 11 11 1 0
BITMAP
0400
0C00
0E00
1E00
1F00
3F00
3F80
7F80
7FC0
FFC0
FFE0
ENDCHAR
STARTCHAR 25B3
ENCODING 9651
SWIDTH 936 0
DWIDTH 13 0
BBX 11 11 1 0
BITMAP
0400
0C00
1200
1200
2100
2100
4080
4080
4040
8040
FFE0
ENDCHAR
STARTCHAR 25B6
ENCODING 9654
SWIDTH 936 0
DWIDTH 13 0
BBX 11 11 1 -1
BITMAP
8000
E000
F800
FE00
FF80
FFE0
FF80
FE00
F800
E000
8000
ENDCHAR
STARTCHAR 25B7
ENCODING 9655
SWIDTH 936 0
DWIDTH 13 0
BBX 11 11 1 -1
BITMAP
8000
E000
9800
8600
8180
8060
80C0
8300
8C00
B000
C000
ENDCHAR
STARTCHAR 25BC
ENCODING 9660
SWIDTH 936 0
DWIDTH 13 0
BBX 11 12 1 -1
BITMAP
FFE0
FFC0
7FC0
7F80
3F80
3F00
1F00
1E00
0E00
0E00
0400
0400
ENDCHAR
STARTCHAR 25BD
ENCODING 9661
SWIDTH 936 0
DWIDTH 13 0
BBX 10 11 1 -1
BITMAP
FFC0
8040
4080
4080
2100
2100
1100
1200
0A00
0C00
0400
ENDCHAR
STARTCHAR 25C0
ENCODING 9664
SWIDTH 936 0
DWIDTH 13 0
BBX 12 11 0 -1
BITMAP
0010
0070
01F0
0FF0
3FF0
FFF0
3FF0
07F0
01F0
0070
0010
ENDCHAR
STARTCHAR 25C1
ENCODING 9665
SWIDTH 936 0
DWIDTH 13 0
BBX 12 11 0 -1
BITMAP
0010
0070
0190
0E10
3010
C010
7010
0C10
0310
00D0
0030
ENDCHAR
STARTCHAR 25C6
ENCODING 9670
SWIDTH 936 0
DWIDTH 13 0
BBX 11 12 1 -1
BITMAP
0400
0E00
1F00
3F80
7FC0
FFE0
FFE0
7FC0
3F80
1F00
0E00
0400
ENDCHAR
STARTCHAR 25C9
ENCODING 9673
SWIDTH 936 0
DWIDTH 13 0
BBX 12 11 0 0
BITMAP
1FC0
2620
4FA0
9FD0
9FD0
BFD0
9FD0
5F90
4F20
2040
1F80
ENDCHAR
STARTCHAR 25CA
ENCODING 9674
SWIDTH 504 0
DWIDTH 7 0
BBX 5 10 1 0
BITMAP
20
60
50
90
88
88
90
50
60
20
ENDCHAR
STARTCHAR 25CC
ENCODING 9676
SWIDTH 576 0
DWIDTH 8 0
BBX 6 7 1 0
BITMAP
58
84
00
80
00
84
58
ENDCHAR
STARTCHAR 2610
ENCODING 9744
SWIDTH 792 0
DWIDTH 11 0
BBX 9 10 1 0
BITMAP
FF80
8080
8080
8080
8080
8080
8080
8080
8080
FF80
ENDCHAR
STARTCHAR 2611
ENCODING 9745
SWIDTH 792 0
DWIDTH 11 0
BBX 10 11 1 1
BITMAP
00C0
FF80
8180
8280
8280
A480
A480
9880
8880
8880
FF80
ENDCHAR
STARTCHAR 266A
ENCODING 9834
SWIDTH 504 0
DWIDTH 7 0
BBX 6 9 0 0
BITMAP
18
1C
14
14
10
10
10
70
F0
ENDCHAR
STARTCHAR 2713
ENCODING 10003
SWIDTH 576 0
DWIDTH 8 0
BBX 8 9 0 1
BITMAP
01
02
04
08
08
90
90
60
20
ENDCHAR
STARTCHAR 2752
ENCODING 10066
SWIDTH 936 0
DWIDTH 13 0
BBX 11 12 1 -1
BITMAP
FFE0
8020
8020
8020
8020
8020
8020
8020
8020
8020
8020
FFE0
ENDCHAR
STARTCHAR 27E6
ENCODING 10214
SWIDTH 360 0
DWIDTH 5 0
BBX 2 12 1 -2
BITMAP
C0
C0
C0
C0
C0
C0
C0
C0
C0
C0
C0
C0
ENDCHAR
STARTCHAR 27E7
ENCODING 10215
SWIDTH 360 0
DWIDTH 5 0
BBX 2 12 1 -2
BITMAP
C0
C0
C0
C0
C0
C0
C0
C0
C0
C0
C0
C0
ENDCHAR
STARTCHAR 2E22
ENCODING 11810
SWIDTH 288 0
DWIDTH 4 0
BBX 2 6 1 4
BITMAP
C0
80
80
80
80
80
ENDCHAR
STARTCHAR 2E23
ENCODING 11811
SWIDTH 288 0
DWIDTH 4 0
BBX 2 6 1 4
BITMAP
C0
40
40
40
40
40
ENDCHAR
STARTCHAR 2E24
ENCODING 11812
SWIDTH 288 0
DWIDTH 4 0
BBX 2 6 1 -2
BITMAP
80
80
80
80
80
C0
ENDCHAR
STARTCHAR 2E25
ENCODING 11813
SWIDTH 288 0
DWIDTH 4 0
BBX 2 6 1 -2
BITMAP
40
40
40
40
40
C0
ENDCHAR
STARTCHAR 2E3A
ENCODING 11834
SWIDTH 1512 0
DWIDTH 21 0
BBX 17 1 2 3
BITMAP
FFFF80
ENDCHAR
STARTCHAR 2E3B
ENCODING 11835
SWIDTH 2232 0
DWIDTH 31 0
BBX 27 1 2 3
BITMAP
FFFFFFE0
ENDCHAR
STARTCHAR FB00
ENCODING 64256
SWIDTH 504 0
DWIDTH 7 0
BBX 8 10 0 0
BITMAP
37
44
44
FE
44
44
44
44
44
44
ENDCHAR
STARTCHAR FB01
ENCODING 64257
SWIDTH 504 0
DWIDTH 7 0
BBX 6 10 0 0
BITMAP
30
44
40
F4
44
44
44
44
44
44
ENDCHAR
STARTCHAR FB02
ENCODING 64258
SWIDTH 504 0
DWIDTH 7 0
BBX 6 10 0 0
BITMAP
34
44
44
F4
44
44
44
44
44
44
ENDCHAR
STARTCHAR FB03
ENCODING 64259
SWIDTH 792 0
DWIDTH 11 0
BBX 9 10 0 0
BITMAP
3700
4480
4400
FE80
4480
4480
4480
4480
4480
4400
ENDCHAR
STARTCHAR FB04
ENCODING 64260
SWIDTH 792 0
DWIDTH 11 0
BBX 10 10 0 0
BITMAP
3700
4480
4480
FE80
4480
4480
4480
4480
4480
4440
ENDCHAR
STARTCHAR FEFF
ENCODING 65279
SWIDTH 0 0
DWIDTH 0 0
BBX 0 0 0 0
BITMAP
ENDCHAR
ENDFONT
